<?xml version="1.0" standalone="no"?>
<!DOCTYPE svg PUBLIC "-//W3C//DTD SVG 1.1//EN" "http://www.w3.org/Graphics/SVG/1.1/DTD/svg11.dtd" >
<svg xmlns="http://www.w3.org/2000/svg" xmlns:xlink="http://www.w3.org/1999/xlink" version="1.1">
<metadata>
Created by FontForge 20170731 at Fri Aug  4 18:38:16 2006
 By Aleksey,,,
(c) 2005 Microsoft Corporation. All Rights Reserved.
</metadata>
<defs>
<font id="Candara-Bold" horiz-adv-x="1033" >
  <font-face 
    font-family="Candara"
    font-weight="700"
    font-stretch="normal"
    units-per-em="2048"
    panose-1="2 14 7 2 3 3 3 2 2 4"
    ascent="1484"
    descent="-564"
    x-height="950"
    cap-height="1302"
    bbox="-1016 -569 2376 1900"
    underline-thickness="20"
    underline-position="-163"
    unicode-range="U+000D-FB04"
  />
<missing-glyph horiz-adv-x="932" 
d="M932 1308v-1308h-932v1308h932zM841 91v1126h-750v-1126h750zM409 426l-2 31q0 124 38.5 175t68.5 79q57 58 73.5 88t16.5 63q0 66 -41.5 111.5t-96.5 45.5q-58 0 -98.5 -41t-51.5 -131l-90 14q12 130 80.5 190t167.5 60q94 0 159 -66.5t65 -173.5q0 -57 -22.5 -103
t-91.5 -112q-68 -61 -79.5 -99.5t-11.5 -130.5h-84zM389 272q0 28 19 47t46 19q28 0 47 -19t19 -47q0 -27 -19 -45.5t-47 -18.5q-27 0 -46 18.5t-19 45.5z" />
    <glyph glyph-name="uniFB00" unicode="ff" horiz-adv-x="1346" 
d="M1342 1419l-36 -178q-58 14 -117 14q-71 -2 -98 -67t-27 -255q89 0 245 8l-8 -199q-156 6 -237 6q0 -377 15 -748h-264q15 366 15 748h-371q0 -377 14 -748h-264q14 367 14 748q-57 0 -174 -7l8 199q107 -6 166 -6q0 264 105 373t334 109q169 0 294 -59q91 79 210 79
q103 0 176 -17zM861 1201q-88 44 -190 44q-123 0 -167.5 -63t-44.5 -248h371q0 162 31 267z" />
    <glyph glyph-name="uniFB01" unicode="fi" horiz-adv-x="1195" 
d="M1112 1338l-77 -198q-192 115 -364 115q-123 0 -167.5 -63t-44.5 -258q292 0 619 37q-12 -195 -12 -496q0 -258 14 -475h-270q14 207 14 475q0 182 -7 288q-54 -6 -154.5 -10.5t-203.5 -4.5q0 -377 14 -748h-264q14 367 14 748q-57 0 -174 -7l8 199q107 -6 166 -6
q0 284 105 393t334 109q274 0 450 -98z" />
    <glyph glyph-name="uniFB02" unicode="fl" horiz-adv-x="1198" 
d="M1079 0h-273q15 343 15 743q0 281 -16 501q-87 21 -185 21q-108 0 -135 -71t-27 -261q89 0 245 8l-8 -199q-156 6 -237 6q0 -377 15 -748h-264q15 366 15 748q-59 0 -175 -6l8 198q106 -7 167 -7q0 282 95 392.5t271 110.5q113 0 200 -30l289 16q-15 -283 -15 -679
q0 -402 15 -743z" />
    <glyph glyph-name="uniFB03" unicode="ffi" horiz-adv-x="1800" 
d="M1717 1338l-77 -198q-192 115 -364 115q-123 0 -167.5 -63t-44.5 -258q292 0 619 37q-12 -195 -12 -496q0 -258 14 -475h-270q14 207 14 475q0 182 -7 288q-54 -6 -154.5 -10.5t-203.5 -4.5q0 -377 14 -748h-264q13 357 14 748h-369q0 -377 14 -748h-264q14 367 14 748
q-57 0 -174 -7l8 199q107 -6 166 -6q0 264 105 373t334 109q169 0 291 -70q106 90 314 90q274 0 450 -98zM862 1200q-89 45 -191 45q-123 0 -167.5 -63t-44.5 -248h369q0 161 34 266z" />
    <glyph glyph-name="uniFB04" unicode="ffl" horiz-adv-x="1803" 
d="M1685 0h-273q15 343 15 743q0 281 -16 501q-87 21 -185 21q-108 0 -135 -71t-27 -261q89 0 245 8l-8 -199q-156 6 -237 6q0 -377 15 -748h-264q15 366 15 748h-371q0 -377 14 -748h-264q14 367 14 748q-57 0 -174 -7l8 199q107 -6 166 -6q0 264 105 373t334 109
q169 0 294 -59q91 79 240 79q113 0 200 -30l289 16q-15 -283 -15 -679q0 -402 15 -743zM861 1201q-88 44 -190 44q-123 0 -167.5 -63t-44.5 -248h371q0 162 31 267z" />
    <glyph glyph-name="f_b.liga" unicode="fb" horiz-adv-x="1840" 
d="M1771 516q0 -217 -123.5 -381t-341.5 -164q-159 0 -227 68h-12l-21 -39h-240q16 342 16 743q-2 282 -18 502q-87 21 -185 21q-108 0 -135 -71t-27 -261q89 0 245 8l-8 -199q-156 6 -235 6q0 -378 14 -749h-264q14 367 14 748q-57 0 -174 -7l8 199q107 -6 166 -6
q0 282 95 392.5t271 110.5q113 0 200 -30l289 16q-9 -233 -9 -529l12 1q101 88 273 88q192 0 304.5 -138t112.5 -329zM1505 489q0 125 -63.5 217.5t-173.5 92.5q-140 0 -203 -82q0 -342 14 -514q64 -49 164 -49q133 0 197.5 98t64.5 237z" />
    <glyph glyph-name="f_f_b.liga" unicode="ffb" horiz-adv-x="2445" 
d="M2376 516q0 -217 -123.5 -381t-341.5 -164q-159 0 -227 68h-12l-21 -39h-240q16 342 16 743q0 281 -16 501q-87 21 -185 21q-108 0 -135 -71t-27 -261q89 0 245 8l-8 -199q-156 6 -237 6q0 -377 15 -748h-264q15 366 15 748h-371q0 -377 14 -748h-264q14 367 14 748
q-57 0 -174 -7l8 199q107 -6 166 -6q0 264 105 373t334 109q169 0 294 -59q91 79 240 79q113 0 200 -30l288 15q-10 -231 -10 -527l12 1q101 88 273 88q192 0 304.5 -138t112.5 -329zM2110 489q0 125 -63.5 217.5t-173.5 92.5q-140 0 -203 -82q0 -342 14 -514
q64 -49 164 -49q133 0 197.5 98t64.5 237zM861 1201q-88 44 -190 44q-123 0 -167.5 -63t-44.5 -248h371q0 162 31 267z" />
    <glyph glyph-name="f_h.liga" unicode="fh" horiz-adv-x="1834" 
d="M1723 0h-266q23 254 23 512q0 162 -47.5 215t-145.5 53q-108 0 -215 -71q0 -426 10 -709h-276q16 342 16 743q0 281 -16 501q-87 21 -185 21q-108 0 -135 -71t-27 -261q89 0 245 8l-8 -199q-156 6 -237 6q0 -377 14 -748h-264q14 367 14 748q-57 0 -174 -7l8 199
q107 -6 166 -6q2 281 97 391.5t271 110.5q113 0 200 -30l289 15q-14 -321 -14 -560l12 1q133 121 293 121q168 0 260 -72.5t92 -257.5q0 -18 -2 -77.5t-2 -77.5q0 -166 4 -498z" />
    <glyph glyph-name="f_f_h.liga" unicode="ffh" horiz-adv-x="2439" 
d="M2328 0h-266q23 254 23 512q0 162 -47.5 215t-145.5 53q-108 0 -215 -71q0 -426 10 -709h-276q16 342 16 743q0 281 -16 501q-87 21 -185 21q-108 0 -135 -71t-27 -261q89 0 245 8l-8 -199q-156 6 -237 6q0 -377 15 -748h-264q15 366 15 748h-371q0 -377 14 -748h-264
q14 367 14 748q-57 0 -174 -7l8 199q107 -6 166 -6q0 264 105 373t334 109q169 0 294 -59q91 79 240 79q113 0 200 -30l289 15q-14 -321 -14 -560l12 1q133 121 293 121q168 0 260 -72.5t92 -257.5q0 -18 -2 -78q-2 -59 -2 -77q0 -166 4 -498zM861 1201q-88 44 -190 44
q-123 0 -167.5 -63t-44.5 -248h371q0 162 31 267z" />
    <glyph glyph-name="f_j.liga" unicode="fj" horiz-adv-x="1196" 
d="M1036 1140q-192 115 -364 115q-123 0 -167.5 -63t-44.5 -258q292 0 619 37q-12 -303 -12 -602q0 -78 3 -214.5t3 -183.5q0 -368 -295 -428l-72 142q70 57 93 151q28 125 28 481q0 306 -10 447q-53 -7 -153.5 -11.5t-203.5 -4.5q0 -377 14 -748h-264q14 367 14 748
q-57 0 -174 -7l8 199q107 -6 166 -6q0 284 105 393t334 109q274 0 450 -98z" />
    <glyph glyph-name="f_f_j.liga" unicode="ffj" horiz-adv-x="1801" 
d="M1717 1338l-77 -198q-192 115 -364 115q-123 0 -167.5 -63t-44.5 -258q292 0 620 37q-12 -303 -12 -602q0 -78 3 -214.5t3 -183.5q0 -368 -295 -428l-72 142q70 57 93 151q28 125 28 481q0 305 -10 446q-54 -6 -154.5 -10.5t-203.5 -4.5q0 -377 14 -748h-264
q13 357 14 748h-369q0 -377 14 -748h-264q14 367 14 748q-57 0 -174 -7l8 199q107 -6 166 -6q0 264 105 373t334 109q169 0 291 -70q106 90 314 90q274 0 450 -98zM862 1200q-89 45 -191 45q-123 0 -167.5 -63t-44.5 -248h369q0 161 34 266z" />
    <glyph glyph-name="f_k.liga" unicode="fk" horiz-adv-x="1743" 
d="M1727 0h-305q0 37 -149 248q-156 217 -197 217h-12q0 -207 10 -465h-268q16 342 16 743q-2 282 -18 502q-87 21 -185 21q-108 0 -135 -71t-27 -261q89 0 245 8l-8 -199q-156 6 -235 5q0 -377 14 -748h-264q14 367 14 748q-57 0 -174 -7l8 199q107 -6 166 -6
q0 282 95 392.5t271 110.5q113 0 200 -30l289 16q-16 -381 -16 -680v-148l14 1q29 0 160 161t131 193h297q0 -30 -136 -172.5t-220 -195.5v-17q94 -63 262 -301q157 -223 157 -264z" />
    <glyph glyph-name="f_f_k.liga" unicode="ffk" horiz-adv-x="2349" 
d="M2333 0h-306q0 37 -149 248q-156 217 -197 217h-14q0 -207 12 -465h-268q16 342 16 743q0 281 -16 501q-87 21 -185 21q-108 0 -135 -71t-27 -261q89 0 245 8l-8 -199q-156 6 -237 6q0 -377 15 -748h-264q15 366 15 748h-371q0 -377 14 -748h-264q14 367 14 748
q-57 0 -174 -7l8 199q107 -6 166 -6q0 264 105 373t334 109q169 0 294 -59q91 79 240 79q113 0 200 -30l283 15q-12 -379 -12 -678v-147l14 1q29 -1 159 160t130 193h299q0 -30 -136 -172.5t-220 -195.5v-17q94 -63 262 -301q158 -223 158 -264zM861 1201q-88 44 -190 44
q-123 0 -167.5 -63t-44.5 -248h371q0 162 31 267z" />
    <glyph glyph-name=".notdef" horiz-adv-x="932" 
d="M932 1308v-1308h-932v1308h932zM841 91v1126h-750v-1126h750zM409 426l-2 31q0 124 38.5 175t68.5 79q57 58 73.5 88t16.5 63q0 66 -41.5 111.5t-96.5 45.5q-58 0 -98.5 -41t-51.5 -131l-90 14q12 130 80.5 190t167.5 60q94 0 159 -66.5t65 -173.5q0 -57 -22.5 -103
t-91.5 -112q-68 -61 -79.5 -99.5t-11.5 -130.5h-84zM389 272q0 28 19 47t46 19q28 0 47 -19t19 -47q0 -27 -19 -45.5t-47 -18.5q-27 0 -46 18.5t-19 45.5z" />
    <glyph glyph-name="glyph1" horiz-adv-x="1024" 
 />
    <glyph glyph-name="glyph1" horiz-adv-x="1024" 
 />
    <glyph glyph-name="uni000D" unicode="&#xd;" horiz-adv-x="444" 
 />
    <glyph glyph-name="space" unicode=" " horiz-adv-x="444" 
 />
    <glyph glyph-name="space" unicode="&#xa0;" horiz-adv-x="444" 
 />
    <glyph glyph-name="exclam" unicode="!" horiz-adv-x="516" 
d="M427 1154q0 -195 -117 -617h-102q-86 435 -86 611q0 190 160 190q145 0 145 -184zM430 174q0 -73 -50.5 -128.5t-139.5 -55.5q-75 0 -117 48t-42 115q0 73 50.5 126.5t140.5 53.5q76 0 117 -46.5t41 -112.5z" />
    <glyph glyph-name="quotedbl" unicode="&#x22;" horiz-adv-x="936" 
d="M410 1262q0 -215 -146 -560h-84q-71 372 -71 560q0 67 43 113t116 46q142 0 142 -159zM821 1262q0 -215 -146 -560h-84q-71 372 -71 560q0 67 43 113t116 46q142 0 142 -159z" />
    <glyph glyph-name="numbersign" unicode="#" 
d="M998 916v-180h-212q-12 -32 -25 -66q-25 -68 -48 -128h285v-180h-353q-113 -305 -127 -362h-150q15 37 141 362h-195q-113 -305 -127 -362h-150q15 37 141 362h-144v180h214q15 39 33 84q22 58 42 110h-289v180h357q117 317 124 392h148q-8 -41 -140 -392h199
q117 319 124 392h148q-8 -39 -140 -392h144zM654 736h-199q-12 -32 -25 -68q-26 -67 -48 -126h197q16 41 33 86q22 57 42 108z" />
    <glyph glyph-name="dollar" unicode="$" horiz-adv-x="909" 
d="M816 319q0 -247 -293 -289q0 -175 8 -293h-143q6 118 6 283q-151 0 -306 33l33 193q125 -43 249 -43q112 0 158 20.5t46 71.5q0 69 -158 135q-147 62 -209 113q-97 80 -97 194q0 111 72.5 189.5t213.5 98.5q0 205 -8 303h143q-8 -97 -8 -296q166 -2 252 -31l-34 -194
q-114 45 -245 45q-146 0 -146 -86q0 -41 38 -69q31 -24 122 -59q146 -57 211 -112q95 -82 95 -207zM456 -40zM471 1077z" />
    <glyph glyph-name="percent" unicode="%" 
d="M563 1068q0 -98 -64 -166q-71 -76 -192 -76t-192 75q-64 67 -64 165t64 166q71 76 192 76t192 -75q64 -67 64 -165zM987 231q0 -98 -64 -166q-71 -75 -192 -75t-193 74q-64 68 -64 165q0 98 65 166q71 76 192 76t192 -75q64 -67 64 -165zM960 1292q0 -89 -375 -633
t-375 -659l-148 10q0 97 375 643t375 649zM420 1064q0 55 -28 94q-30 43 -82 43q-51 0 -82 -43q-28 -39 -28 -94q0 -54 27 -91q31 -41 83 -41q53 0 83 41q27 37 27 91zM844 227q0 55 -28 94q-30 43 -82 43q-51 0 -82 -43q-28 -39 -28 -94q0 -54 27 -91q31 -41 83 -41
q53 0 83 41q27 37 27 91z" />
    <glyph glyph-name="ampersand" unicode="&#x26;" horiz-adv-x="1396" 
d="M1373 0h-296q0 29 -46 108.5t-81 116.5h-15q-190 -254 -470 -254q-186 0 -294.5 94t-108.5 255q0 129 73 239.5t212 169.5v14q-177 135 -177 282q0 142 114.5 220.5t265.5 78.5q144 0 249 -72.5t105 -204.5q0 -183 -196 -272v-15q91 -49 254 -211h15q41 67 41 213h251
q0 -41 -63 -155t-116 -167v-14q80 -74 181.5 -227t101.5 -199zM857 338v15q-60 68 -159.5 163.5t-212.5 148.5q-169 -77 -169 -277q0 -103 61 -166q63 -66 172 -66q156 0 308 182zM698 1008q0 72 -41 113t-106 41q-63 0 -106.5 -36.5t-43.5 -93.5q0 -119 175 -198
q122 57 122 174z" />
    <glyph glyph-name="quotesingle" unicode="'" horiz-adv-x="516" 
d="M410 1262q0 -215 -146 -560h-84q-71 372 -71 560q0 67 43 113t116 46q142 0 142 -159z" />
    <glyph glyph-name="parenleft" unicode="(" horiz-adv-x="723" 
d="M651 -349l-73 -137q-146 67 -249 185q-250 283 -250 772q0 526 255 841q106 131 255 209l51 -136q-100 -75 -172 -191q-172 -280 -172 -723q0 -381 178 -638q73 -108 177 -182z" />
    <glyph glyph-name="parenright" unicode=")" horiz-adv-x="723" 
d="M651 564q0 -526 -255 -841q-107 -131 -256 -209l-51 137q101 74 173 191q172 279 172 722q0 381 -177 639q-74 108 -178 182l72 136q146 -67 250 -185q250 -283 250 -772z" />
    <glyph glyph-name="asterisk" unicode="*" 
d="M940 1058q0 -63 -82 -80q-32 -7 -135 -7q-43 0 -112 2l-8 -26q197 -169 197 -226q0 -41 -44 -81.5t-87 -40.5q-82 0 -151 292h-29q-105 -263 -177 -263q-42 0 -88 35.5t-46 76.5q0 72 232 214l-7 29q-100 12 -269 46q-39 13 -39 74q0 48 23 89t64 41q58 0 262 -156l23 16
q-43 203 -43 271q0 31 34.5 50.5t78.5 19.5q99 0 99 -70q0 -79 -71 -277l22 -20q200 125 260 125q38 0 65.5 -46t27.5 -88z" />
    <glyph glyph-name="plus" unicode="+" 
d="M926 409h-319v-340h-180v340h-320v180h320v340h180v-340h319v-180z" />
    <glyph glyph-name="comma" unicode="," horiz-adv-x="516" 
d="M428 156q0 -261 -320 -555l-89 76q136 151 136 327q-76 46 -76 149q0 72 51 126t141 54q74 0 115.5 -54t41.5 -123zM240 -10z" />
    <glyph glyph-name="hyphen" unicode="-" horiz-adv-x="516" 
d="M479 605l-12 -180l-428 -15l9 180z" />
    <glyph glyph-name="hyphen" unicode="&#x2010;" horiz-adv-x="516" 
d="M479 605l-12 -180l-428 -15l9 180z" />
    <glyph glyph-name="hyphen" unicode="&#xad;" horiz-adv-x="516" 
d="M479 605l-12 -180l-428 -15l9 180z" />
    <glyph glyph-name="period" unicode="." horiz-adv-x="516" 
d="M430 174q0 -73 -50.5 -128.5t-139.5 -55.5q-75 0 -117 48t-42 115q0 73 50.5 126.5t140.5 53.5q76 0 117 -46.5t41 -112.5z" />
    <glyph glyph-name="slash" unicode="/" horiz-adv-x="547" 
d="M542 1455q0 -69 -178 -828.5t-178 -928.5h-181q0 65 179 816.5t179 940.5h179z" />
    <glyph glyph-name="zero" unicode="0" horiz-adv-x="1094" 
d="M1004 529q0 -286 -120 -427.5t-348 -141.5q-221 0 -333.5 124.5t-112.5 395.5q0 279 121.5 438t349.5 159q219 0 331 -141.5t112 -406.5zM757 466q0 183 -51 301t-168 118q-198 0 -198 -338q0 -201 51.5 -297.5t166.5 -96.5q199 0 199 313z" />
    <glyph glyph-name="one" unicode="1" horiz-adv-x="685" 
d="M525 0h-267q11 258 11 416q0 161 -7 344l-160 -70l-52 96l351 270h124q-11 -412 -11 -640q0 -153 11 -416z" />
    <glyph glyph-name="two" unicode="2" horiz-adv-x="982" 
d="M882 214l-21 -214h-761l21 201q422 235 422 472q0 197 -273 197q-73 0 -155 -14l19 186q87 22 247 22q204 0 311 -87t107 -237q0 -188 -139.5 -323t-295.5 -205v-13q221 0 518 15z" />
    <glyph glyph-name="three" unicode="3" horiz-adv-x="964" 
d="M874 147q0 -203 -193 -352q-221 -171 -614 -194l-27 167q263 17 416 107q159 92 159 237q0 238 -446 238l21 161q165 0 269.5 56.5t104.5 144.5q0 160 -250 160q-112 0 -199 -18l18 185q70 25 286 25q189 0 291 -77q94 -73 94 -197q0 -98 -71 -180q-65 -75 -159 -105v-15
q133 -22 216.5 -115t83.5 -228z" />
    <glyph glyph-name="four" unicode="4" horiz-adv-x="1099" 
d="M1009 346l-21 -217h-159q0 -187 12 -459h-264q9 253 9 459h-515l-21 189q0 18 257.5 365t259.5 372h274q-13 -336 -13 -718q89 0 181 9zM610 838h-14q0 -21 -171.5 -253t-171.5 -246v-13q127 0 340 5q7 280 17 507z" />
    <glyph glyph-name="five" unicode="5" horiz-adv-x="969" 
d="M879 174q0 -207 -192 -357q-211 -166 -566 -183l-28 164q244 19 380.5 107t136.5 224q0 145 -120.5 209t-399.5 64q59 467 59 653h650l-9 -218q-191 21 -472 21q-22 -144 -22 -277q583 0 583 -407z" />
    <glyph glyph-name="six" unicode="6" horiz-adv-x="1083" 
d="M993 419q0 -183 -114 -313q-127 -146 -337 -146q-188 0 -310 122q-142 143 -142 416q0 811 733 846l19 -163q-455 -49 -504 -468h16q83 102 257 102q182 0 287 -122q95 -110 95 -274zM755 384q0 109 -57 183q-65 84 -181 84q-112 0 -185 -83q0 -431 218 -431q95 0 153 77
q52 70 52 170z" />
    <glyph glyph-name="seven" unicode="7" horiz-adv-x="952" 
d="M882 1055q0 -191 -131 -489q-121 -249 -243 -498q-131 -272 -131 -398l-266 21q0 120 271 585.5t271 577.5q-206 0 -603 -20l9 221h823z" />
    <glyph glyph-name="eight" unicode="8" horiz-adv-x="1098" 
d="M1008 373q0 -174 -131 -285.5t-335 -111.5q-201 0 -326.5 104.5t-125.5 270.5q0 120 67 217q72 105 206 159v16q-198 115 -198 307q0 140 114 230q113 87 284 87q167 0 272 -81.5t105 -209.5q0 -94 -51 -173q-56 -88 -156 -129v-16q275 -141 275 -385zM758 354
q0 194 -251 306q-79 -29 -129 -107.5t-50 -168.5q0 -105 62 -167.5t159 -62.5q91 0 150 55.5t59 144.5zM727 1041q0 79 -48.5 125.5t-125.5 46.5q-75 0 -122.5 -39.5t-47.5 -104.5q0 -149 208 -248q136 69 136 220z" />
    <glyph glyph-name="nine" unicode="9" horiz-adv-x="1081" 
d="M991 496q0 -417 -190 -650q-194 -236 -559 -252l-28 165q254 15 390 185q115 144 133 374h-10q-91 -106 -257 -106q-180 0 -285 124q-95 113 -95 278q0 181 111 308q125 142 336 142q186 0 311 -134q143 -153 143 -434zM745 465q0 215 -71 326q-59 93 -154 93
q-91 0 -145 -75q-50 -69 -50 -168q0 -108 58 -184q66 -85 177 -85q117 0 185 93z" />
    <glyph glyph-name="colon" unicode=":" horiz-adv-x="516" 
d="M430 174q0 -73 -50.5 -128.5t-139.5 -55.5q-75 0 -117 48t-42 115q0 73 50.5 126.5t140.5 53.5q76 0 117 -46.5t41 -112.5zM430 798q0 -73 -50.5 -128.5t-139.5 -55.5q-75 0 -117 48t-42 115q0 73 50.5 126.5t140.5 53.5q76 0 117 -46.5t41 -112.5z" />
    <glyph glyph-name="semicolon" unicode=";" horiz-adv-x="516" 
d="M428 156q0 -261 -320 -555l-89 76q136 151 136 327q-76 46 -76 149q0 72 51 126t141 54q74 0 115.5 -54t41.5 -123zM240 -10zM430 798q0 -73 -50.5 -128.5t-139.5 -55.5q-75 0 -117 48t-42 115q0 73 50.5 126.5t140.5 53.5q76 0 117 -46.5t41 -112.5z" />
    <glyph glyph-name="less" unicode="&#x3c;" 
d="M926 203l-83 -188l-736 418v139l736 418l83 -187l-585 -290v-23z" />
    <glyph glyph-name="equal" unicode="=" 
d="M926 619h-819v180h819v-180zM926 200h-819v180h819v-180z" />
    <glyph glyph-name="greater" unicode="&#x3e;" 
d="M926 433l-736 -418l-83 188l584 288v23l-584 289l83 187l736 -418v-139z" />
    <glyph glyph-name="question" unicode="?" horiz-adv-x="723" 
d="M681 1033q0 -216 -279 -345l-21 -151h-133l-38 213q215 63 215 208q0 177 -371 188l23 189q311 0 457.5 -65.5t146.5 -236.5zM472 174q0 -73 -50.5 -128.5t-139.5 -55.5q-75 0 -117 48t-42 115q0 73 50.5 126.5t140.5 53.5q76 0 117 -46.5t41 -112.5z" />
    <glyph glyph-name="at" unicode="@" horiz-adv-x="2066" 
d="M1938 607q0 -262 -130 -449t-346 -187q-131 0 -201 60.5t-70 152.5h-12q-109 -213 -300 -213q-135 0 -208 113t-73 280q0 231 125 407t344 176q122 0 179 -74h13l17 46l196 21q-74 -455 -74 -575q0 -112 30 -164.5t106 -52.5q78 0 132.5 123.5t54.5 294.5q0 307 -174 513
t-510 206q-309 0 -492.5 -238.5t-183.5 -570.5q0 -316 176 -542.5t500 -226.5q168 0 310 52l24 -195q-143 -39 -338 -39q-430 0 -666 283.5t-236 676.5q0 409 244 699.5t658 290.5q428 0 666.5 -252t238.5 -616zM1222 727q-57 50 -138 50q-125 0 -197.5 -119.5t-72.5 -269.5
q0 -101 36 -168.5t103 -67.5q112 0 190.5 167.5t78.5 407.5z" />
    <glyph glyph-name="A" unicode="A" horiz-adv-x="1290" 
d="M1279 0h-320q0 66 -91 374h-462q-94 -303 -94 -374h-301q0 39 233.5 640t233.5 662h378q0 -57 211.5 -652.5t211.5 -649.5zM817 565q-171 516 -171 558h-16q0 -39 -177 -558h364z" />
    <glyph glyph-name="B" unicode="B" horiz-adv-x="1224" 
d="M1147 392q0 -398 -651 -398q-113 0 -352 6q13 302 13 681q0 364 -13 621h162q46 0 154.5 3t169.5 3q443 0 443 -288q0 -222 -227 -294v-15q121 -19 211 -94.5t90 -224.5zM877 381q0 199 -349 199q-69 0 -119 -5q0 -209 9 -385q34 -8 102 -8q185 0 271 44.5t86 154.5z
M804 941q0 179 -224 179q-103 0 -183 -15q11 -101 11 -347q38 -2 80 -2q316 0 316 185z" />
    <glyph glyph-name="C" unicode="C" horiz-adv-x="1131" 
d="M1076 237l-17 -230q-142 -34 -280 -34q-343 0 -522.5 189.5t-179.5 460.5q0 281 190.5 489t522.5 208q122 0 231 -28l-35 -231q-118 38 -226 38q-203 0 -302 -128.5t-99 -312.5q0 -188 117.5 -326t329.5 -138q124 0 270 43z" />
    <glyph glyph-name="D" unicode="D" horiz-adv-x="1321" 
d="M1244 696q0 -284 -182 -496t-510 -212q-148 0 -408 12q13 302 13 681q0 364 -13 621h175q43 0 128 3t111 3q361 0 523.5 -180t162.5 -432zM971 653q0 192 -112 323.5t-342 131.5q-43 0 -118 -9q10 -200 10 -418q0 -239 10 -474q65 -13 130 -13q215 0 318.5 133.5
t103.5 325.5z" />
    <glyph glyph-name="E" unicode="E" horiz-adv-x="1080" 
d="M1003 220l-8 -220h-851q13 302 13 681q0 364 -13 621h812l-11 -219q-300 16 -544 16q10 -139 10 -328q209 0 447 11v-209q-234 10 -447 10q0 -203 8 -380q274 0 584 17z" />
    <glyph glyph-name="F" unicode="F" horiz-adv-x="1005" 
d="M972 1302l-9 -219q-312 16 -565 16q13 -171 13 -379q193 0 438 10v-207q-248 9 -438 9q0 -283 9 -532h-276q13 302 13 681q0 364 -13 621h828z" />
    <glyph glyph-name="G" unicode="G" horiz-adv-x="1273" 
d="M1174 34q-238 -61 -398 -61q-344 0 -521.5 188.5t-177.5 457.5q0 283 193.5 492t536.5 209q161 0 284 -29l-33 -236q-157 41 -282 41q-211 0 -315 -129.5t-104 -316.5q0 -191 116.5 -333t321.5 -142q57 0 132 12q-15 111 -15 218q0 108 -21 243h283q-8 -154 -8 -310
q0 -113 8 -304z" />
    <glyph glyph-name="H" unicode="H" horiz-adv-x="1338" 
d="M1194 0h-283q10 331 10 574h-504q0 -218 10 -574h-283q13 330 13 681q0 355 -13 621h283q-12 -281 -12 -520h508q0 211 -12 520h283q-14 -254 -14 -621q0 -383 14 -681z" />
    <glyph glyph-name="I" unicode="I" horiz-adv-x="571" 
d="M427 0h-283q13 310 13 681q0 365 -13 621h283q-13 -252 -13 -621q0 -377 13 -681z" />
    <glyph glyph-name="J" unicode="J" horiz-adv-x="818" 
d="M696 1302q-12 -298 -12 -736q0 -333 -137 -473q-116 -120 -361 -120q-88 0 -175 21l18 215q67 -30 134 -30q131 0 190 57q85 82 85 310q0 457 -15 756h273z" />
    <glyph glyph-name="K" unicode="K" horiz-adv-x="1207" 
d="M1196 0h-327q0 46 -169 317q-180 289 -255 289h-30q0 -228 11 -606h-282q13 302 13 681q0 364 -13 621h282q-11 -277 -11 -520h22q44 0 222 246q173 239 173 274h298q0 -33 -183 -249q-189 -223 -276 -284v-15q102 -53 321 -395q204 -318 204 -359z" />
    <glyph glyph-name="L" unicode="L" horiz-adv-x="994" 
d="M983 218l-8 -218h-831q12 271 12 681q0 376 -12 621h281q-12 -227 -12 -621q0 -301 -13 -478q276 0 583 15z" />
    <glyph glyph-name="M" unicode="M" horiz-adv-x="1769" 
d="M1647 0h-291q0 170 -21 573.5t-22 503.5h-15q-10 -60 -53 -222t-161.5 -477.5t-118.5 -377.5h-221q0 64 -113.5 381t-148.5 444t-56 252h-15q-1 -125 -24.5 -536t-23.5 -541h-264q0 30 72.5 601t72.5 701h387q0 -112 122.5 -494t122.5 -489h15q0 108 139.5 490t139.5 493
h384q0 -207 46.5 -738.5t46.5 -563.5z" />
    <glyph glyph-name="N" unicode="N" horiz-adv-x="1361" 
d="M1217 0h-247q0 41 -275 433q-288 413 -328 565h-16q25 -219 25 -396q0 -247 14 -602h-246q15 310 15 681q0 365 -15 621h297q0 -53 247 -423q263 -393 302 -533h15q-24 223 -24 400q0 271 -14 556h250q-14 -248 -14 -621q0 -376 14 -681z" />
    <glyph glyph-name="O" unicode="O" horiz-adv-x="1427" 
d="M1350 675q0 -307 -188 -509t-465 -202q-264 0 -442 185.5t-178 471.5q0 307 188 509t465 202q264 0 442 -185t178 -472zM1074 646q0 209 -107 339t-264 130q-146 0 -248 -131t-102 -331q0 -208 107.5 -338.5t263.5 -130.5q146 0 248 131.5t102 330.5z" />
    <glyph glyph-name="P" unicode="P" horiz-adv-x="1138" 
d="M1094 961q0 -239 -177.5 -353t-435.5 -114q-47 0 -67 2q0 -188 11 -496h-281q13 289 13 681q0 360 -13 621h174q37 0 142 3t182 3q190 0 321 -86t131 -261zM836 906q0 214 -284 214q-71 0 -150 -15q11 -189 11 -428q25 -2 58 -2q365 0 365 231z" />
    <glyph glyph-name="Q" unicode="Q" horiz-adv-x="1427" 
d="M1389 -432l-293 -12q-56 257 -123.5 332.5t-275.5 75.5q-264 0 -442 185.5t-178 471.5q0 307 188 509t465 202q264 0 442 -185t178 -472q0 -206 -90 -370.5t-244 -254.5v-16q163 -20 242 -114.5t131 -351.5zM1074 646q0 209 -108 339t-263 130q-146 0 -248 -131
t-102 -331q0 -208 108.5 -338.5t262.5 -130.5q146 0 248 131.5t102 330.5z" />
    <glyph glyph-name="R" unicode="R" horiz-adv-x="1220" 
d="M1198 0h-296q-116 354 -178 437t-200 83q-58 0 -111 -1q0 -257 9 -519h-278q13 302 13 681q0 364 -13 621h173q30 0 125.5 3t176.5 3q459 0 459 -314q0 -249 -262 -347v-15q101 -28 177 -157.5t205 -474.5zM823 920q0 199 -256 199q-94 0 -166 -14q11 -155 11 -404
q55 -2 93 -2q318 0 318 221z" />
    <glyph glyph-name="S" unicode="S" horiz-adv-x="1071" 
d="M994 355q0 -391 -562 -391q-191 0 -355 46l49 223q162 -56 306 -56q160 0 230 31t70 104q0 76 -66 128q-57 46 -231 120q-158 68 -235 148q-97 101 -97 249q0 172 127.5 269t366.5 97q196 0 329 -33l-37 -222q-135 49 -292 49q-236 0 -236 -126q0 -67 55 -109
q48 -36 209 -101q171 -69 256 -152q113 -111 113 -274z" />
    <glyph glyph-name="T" unicode="T" horiz-adv-x="1077" 
d="M1055 1302l-7 -215q-200 15 -377 15q-2 -189 -2 -421q0 -360 11 -681h-280q13 318 13 681q0 228 -4 421q-141 0 -387 -16l8 216h1025z" />
    <glyph glyph-name="U" unicode="U" horiz-adv-x="1347" 
d="M1225 1302q-9 -336 -9 -672q0 -664 -544 -664q-269 0 -405 147t-136 528q0 336 -9 661h283q-13 -338 -13 -652q0 -275 70 -377t216 -102q153 0 221 101.5t68 379.5q0 305 -13 650h271z" />
    <glyph glyph-name="V" unicode="V" horiz-adv-x="1175" 
d="M1164 1302q0 -82 -228.5 -652t-228.5 -650h-275q0 77 -210.5 653t-210.5 649h317q0 -73 134 -518t134 -505h17q0 58 134.5 487t134.5 536h282z" />
    <glyph glyph-name="W" unicode="W" horiz-adv-x="1877" 
d="M1866 1302q0 -93 -200 -660t-200 -642h-264q0 79 -121 445q-129 392 -145 517h-17q-16 -126 -134 -521q-110 -369 -110 -441h-270q0 94 -197 669t-197 633h317q0 -63 114 -502t114 -521h16q0 82 122 511.5t122 511.5h285q0 -75 122 -520.5t122 -502.5h16q0 72 110.5 489
t110.5 534h284z" />
    <glyph glyph-name="X" unicode="X" horiz-adv-x="1203" 
d="M1192 0h-335q0 35 -114 257q-111 217 -159 283h-16q-43 -59 -144 -277q-104 -223 -104 -263h-309q0 30 194.5 337t249.5 361v15q-54 62 -213 304q-164 253 -164 285h322q0 -32 93 -215t131 -229h16q37 47 125.5 229t88.5 215h296q0 -28 -171.5 -277.5t-219.5 -296.5v-15
q66 -72 249.5 -374t183.5 -339z" />
    <glyph glyph-name="Y" unicode="Y" horiz-adv-x="1130" 
d="M1119 1302q0 -41 -114 -221q-175 -275 -213 -342q-114 -203 -114 -301q0 -220 12 -438h-284q11 219 11 441q0 102 -105 309q-49 96 -196 343q-105 177 -105 209h314q0 -36 125.5 -303.5t125.5 -345.5h16q0 72 122.5 328t122.5 321h282z" />
    <glyph glyph-name="Z" unicode="Z" horiz-adv-x="1054" 
d="M977 226l-7 -226h-893l15 205q109 144 323 478q232 362 232 407v16q-239 0 -553 -23l6 219h856l-14 -207q-110 -152 -308 -470q-224 -360 -224 -407v-15q210 0 567 23z" />
    <glyph glyph-name="bracketleft" unicode="[" horiz-adv-x="723" 
d="M599 -274l-10 -212l-471 11q12 501 12 946q0 467 -12 1037l481 13l-10 -211q-181 6 -261 6q-9 -475 -9 -845q0 -278 9 -763q74 2 271 18z" />
    <glyph glyph-name="backslash" unicode="\" horiz-adv-x="547" 
d="M543 -302h-191q0 169 -173 928.5t-173 828.5h189q0 -189 174 -940.5t174 -816.5z" />
    <glyph glyph-name="bracketright" unicode="]" horiz-adv-x="723" 
d="M600 -472l-481 -13l10 211q181 -6 261 -6q9 475 9 845q0 278 -9 763q-74 -2 -271 -18l10 212l471 -11q-12 -501 -12 -946q0 -467 12 -1037z" />
    <glyph glyph-name="asciicircum" unicode="^" 
d="M1004 682l-179 -83l-298 593h-23l-295 -593l-180 83l418 735h139z" />
    <glyph glyph-name="underscore" unicode="_" 
d="M1033 -512h-1033v180h1033v-180z" />
    <glyph glyph-name="grave" unicode="`" horiz-adv-x="562" 
d="M512 1086h-175q0 16 -138 164t-138 160h271q0 -11 90 -159.5t90 -164.5z" />
    <glyph glyph-name="a" unicode="a" horiz-adv-x="1006" 
d="M925 1l-236 -8q-16 42 -16 76h-13q-110 -94 -297 -94q-125 0 -207.5 69.5t-82.5 184.5q0 152 128.5 249t450.5 103q2 18 2 34q0 108 -52 142.5t-191 34.5q-151 0 -295 -40l22 184q136 47 384 47q181 0 279.5 -76t98.5 -266q0 -42 -3.5 -153t-3.5 -148q0 -207 32 -339z
M658 209q-6 135 -6 233q-341 0 -341 -173q0 -119 150 -119q118 0 197 59z" />
    <glyph glyph-name="b" unicode="b" horiz-adv-x="1136" 
d="M1067 516q0 -217 -124 -381t-341 -164q-160 0 -226 68h-13l-20 -39h-235q13 351 13 743q0 369 -33 663l287 16q-10 -233 -10 -527h12q101 89 273 89q192 0 304.5 -138.5t112.5 -329.5zM801 490q0 125 -63.5 216.5t-174.5 91.5q-138 0 -202 -81q0 -342 15 -515
q63 -49 163 -49q133 0 197.5 98.5t64.5 238.5z" />
    <glyph glyph-name="c" unicode="c" horiz-adv-x="912" 
d="M868 210l-17 -191q-91 -48 -247 -48q-258 0 -396.5 144t-138.5 346q0 210 145 366.5t397 156.5q123 0 219 -28l-34 -204q-92 38 -206 38q-121 0 -191 -85.5t-70 -210.5q0 -136 83 -230t235 -94q89 0 221 40z" />
    <glyph glyph-name="d" unicode="d" horiz-adv-x="1127" 
d="M1027 1l-237 -8q-7 35 -7 73h-15q-110 -95 -281 -95q-192 0 -305 139t-113 330q0 219 123 381.5t342 162.5q142 0 213 -53h14q0 236 -23 475l283 8q-16 -233 -16 -670q0 -443 22 -743zM776 228q0 319 -15 528q-69 48 -165 48q-132 0 -196 -98t-64 -240q0 -126 62 -217.5
t172 -91.5q147 0 206 71z" />
    <glyph glyph-name="e" unicode="e" horiz-adv-x="1049" 
d="M980 577q0 -51 -6 -133l-644 -11q14 -113 97 -188t218 -75q150 0 319 45l-20 -194q-138 -50 -342 -50q-258 0 -395.5 145t-137.5 349q0 213 130.5 369.5t362.5 156.5q212 0 315 -115t103 -299zM746 586q0 230 -196 230q-187 0 -222 -238z" />
    <glyph glyph-name="f" unicode="f" horiz-adv-x="741" 
d="M737 1419l-36 -178q-57 14 -117 14q-72 0 -99 -66t-27 -256q89 0 245 8l-8 -199q-156 6 -237 6q0 -377 15 -748h-264q15 366 15 748q-59 0 -175 -6l8 198q106 -7 167 -7q0 503 338 503q101 0 175 -17zM347 950z" />
    <glyph glyph-name="g" unicode="g" horiz-adv-x="1128" 
d="M1109 1088l-22 -186q-156 0 -195 -45v-13q59 -75 59 -168q0 -143 -105.5 -244t-314.5 -101q-102 0 -167 16q-53 -24 -53 -63q0 -61 63.5 -85.5t295.5 -24.5q401 0 401 -273q0 -192 -167 -305t-406 -113q-468 0 -468 294q0 91 52.5 154.5t121.5 77.5v15q-84 53 -84 162
q0 110 115 184v14q-162 81 -162 253q0 147 111.5 246t344.5 99q159 0 258 -60h14q29 189 194 189q65 0 114 -23zM824 -173q0 74 -56.5 107t-194.5 33q-112 0 -226 10q-88 -52 -88 -155q0 -192 256 -192q143 0 226 54t83 143zM706 650q0 90 -58 137t-133 47t-131.5 -45.5
t-56.5 -133.5q0 -89 58 -135t135 -46q73 0 129.5 44.5t56.5 131.5z" />
    <glyph glyph-name="h" unicode="h" horiz-adv-x="1126" 
d="M1015 0h-266q22 253 22 492q0 178 -45 233.5t-148 55.5q-109 0 -214 -73q0 -425 10 -708h-266q11 310 11 743q0 399 -31 663l283 16q-15 -322 -15 -560h13q132 121 302 121q161 0 252.5 -73t91.5 -257q0 -19 -2.5 -77.5t-2.5 -77.5q0 -167 5 -498z" />
    <glyph glyph-name="i" unicode="i" horiz-adv-x="510" 
d="M395 0h-269q14 207 14 475q0 266 -34 466l288 29q-13 -194 -13 -495q0 -257 14 -475zM441 1252q0 -68 -46.5 -119t-129.5 -51q-70 0 -109.5 44t-39.5 106q0 68 46.5 118t130.5 50q71 0 109.5 -43.5t38.5 -104.5z" />
    <glyph glyph-name="j" unicode="j" horiz-adv-x="510" 
d="M394 971q-14 -303 -14 -602q0 -78 4 -214.5t4 -182.5q0 -369 -295 -428l-73 140q71 57 96.5 167.5t25.5 465.5q0 403 -36 626zM438 1253q0 -68 -47 -119t-130 -51q-70 0 -109.5 44t-39.5 106q0 68 47 118t131 50q71 0 109.5 -43.5t38.5 -104.5z" />
    <glyph glyph-name="k" unicode="k" horiz-adv-x="1045" 
d="M1029 0h-306q0 37 -152 250.5t-194 213.5h-13q0 -205 12 -464h-265q12 467 12 743q0 382 -31 663l284 16q-14 -380 -14 -679q0 -38 1 -148h14q28 0 159 161.5t131 193.5h298q0 -31 -136 -173t-220 -196v-15q93 -65 256.5 -295.5t163.5 -270.5z" />
    <glyph glyph-name="l" unicode="l" horiz-adv-x="528" 
d="M410 0h-273q15 343 15 743q0 390 -31 663l289 16q-15 -283 -15 -679q0 -402 15 -743z" />
    <glyph glyph-name="m" unicode="m" horiz-adv-x="1704" 
d="M1593 0h-265q21 253 21 492q0 179 -46 234t-147 55q-81 0 -171 -59q-4 -125 -4 -224q0 -167 6 -498h-268q22 274 22 533q0 134 -37.5 191t-155.5 57q-109 0 -181 -73q5 -396 5 -708h-269q18 312 18 492q0 234 -49 451l256 28l17 -106h16q130 118 293 118q204 0 287 -118
h16q148 118 293 118q170 0 256.5 -73.5t86.5 -266.5q0 -19 -2 -72.5t-2 -72.5q0 -167 4 -498z" />
    <glyph glyph-name="n" unicode="n" horiz-adv-x="1126" 
d="M1015 0h-266q22 253 22 512q0 157 -46.5 213t-141.5 56q-114 0 -216 -78q5 -390 5 -703h-269q18 313 18 492q0 239 -49 451l256 28l17 -106h16q137 118 315 118q154 0 246.5 -72.5t92.5 -267.5q0 -29 -2.5 -77.5t-2.5 -99.5q0 -135 5 -466z" />
    <glyph glyph-name="o" unicode="o" horiz-adv-x="1144" 
d="M1075 497q0 -252 -155 -394t-365 -142q-200 0 -343 129.5t-143 364.5q0 253 156 396t366 143q199 0 341.5 -130.5t142.5 -366.5zM814 467q0 145 -68 243.5t-177 98.5q-106 0 -172.5 -92t-66.5 -230q0 -145 68 -243.5t177 -98.5q106 0 172.5 92t66.5 230z" />
    <glyph glyph-name="p" unicode="p" horiz-adv-x="1146" 
d="M1076 516q0 -217 -124 -381t-339 -164q-160 0 -220 68h-12q0 -245 7 -496h-272q18 287 18 662q0 484 -52 738l256 28l15 -86h16q107 99 291 99q192 0 304 -138.5t112 -329.5zM810 490q0 126 -63 217t-174 91q-138 0 -202 -81q15 -281 15 -515q63 -49 163 -49
q133 0 197 98.5t64 238.5z" />
    <glyph glyph-name="q" unicode="q" horiz-adv-x="1136" 
d="M1033 -455h-266q11 274 11 521h-16q-103 -95 -275 -95q-192 0 -305 139t-113 330q0 220 125 382t340 162q159 0 240 -59h14l35 25l210 16q-13 -314 -13 -680q0 -419 13 -741zM778 239q0 329 -11 516q-75 49 -171 49q-131 0 -195.5 -97.5t-64.5 -240.5q0 -126 62 -217.5
t172 -91.5q147 0 208 82z" />
    <glyph glyph-name="r" unicode="r" horiz-adv-x="789" 
d="M771 950l-58 -234q-74 30 -150 30q-147 0 -194 -132q0 -399 6 -614h-266q17 301 17 492q0 238 -50 451l255 28q17 -110 17 -129h16q92 141 245 141q72 0 162 -33z" />
    <glyph glyph-name="s" unicode="s" horiz-adv-x="859" 
d="M791 273q0 -300 -444 -300q-162 0 -283 35l34 197q125 -45 249 -45q120 0 166.5 20t46.5 67q0 73 -168 139q-147 58 -214 114q-92 78 -92 191q0 133 99 214t288 81q177 0 278 -31l-34 -198q-113 44 -244 44q-160 0 -160 -82q0 -42 34 -67.5t139 -64.5q145 -53 211 -109
q94 -80 94 -205z" />
    <glyph glyph-name="t" unicode="t" horiz-adv-x="743" 
d="M704 187l-17 -178q-70 -30 -176 -30q-162 0 -244 88t-82 339q0 151 2 342q-51 0 -138 -6l7 197q77 -6 143 -6q1 53 8 279l237 29q-15 -199 -15 -308q84 0 251 8l-8 -199q-152 6 -247 6q-2 -133 -2 -279q0 -178 36 -238.5t127 -60.5q55 0 118 17zM327 950z" />
    <glyph glyph-name="u" unicode="u" horiz-adv-x="1107" 
d="M1005 1l-234 -8q-16 54 -16 86h-16q-131 -108 -306 -108q-165 0 -248.5 86.5t-83.5 345.5q0 31 1.5 87t1.5 98q0 111 -19 354l279 10q-16 -192 -16 -364q0 -245 36.5 -330t143.5 -85q117 0 202 56q0 526 -12 714l270 9q-10 -189 -10 -490q0 -223 27 -461z" />
    <glyph glyph-name="v" unicode="v" horiz-adv-x="1002" 
d="M976 950q0 -58 -179 -475t-179 -475h-273q0 64 -159 486.5t-159 463.5h292q0 -45 98.5 -347.5t98.5 -355.5h13q0 48 94 336t94 367h259z" />
    <glyph glyph-name="w" unicode="w" horiz-adv-x="1613" 
d="M1581 950q0 -57 -166.5 -468t-166.5 -482h-233q0 46 -82 283q-102 296 -130 403h-16q-26 -103 -124 -398q-79 -234 -79 -288h-234q0 61 -158.5 486.5t-158.5 463.5h288q0 -41 87.5 -343.5t87.5 -359.5h15q0 69 100 358.5t100 344.5h235q0 -38 97.5 -345t97.5 -358h14
q0 56 88.5 340.5t88.5 362.5h249z" />
    <glyph glyph-name="x" unicode="x" horiz-adv-x="1055" 
d="M1023 0h-313q0 27 -82 180q-78 145 -119 203h-14q-33 -45 -108 -200t-75 -183h-278q0 24 144.5 234t201.5 268v15q-48 52 -174 225q-134 185 -134 208h311q0 -26 67 -155q65 -125 100 -172h12q31 39 92.5 169.5t61.5 157.5h268q0 -19 -133.5 -200t-175.5 -220v-15
q57 -63 200 -271q148 -215 148 -244z" />
    <glyph glyph-name="y" unicode="y" horiz-adv-x="1002" 
d="M968 950q0 -65 -143 -412q-163 -399 -201 -544q-65 -250 -175 -345q-106 -92 -318 -92l-20 193q124 0 204 70.5t80 188.5q0 119 -180 520.5t-180 420.5h309q0 -35 91 -339t91 -372h14q0 58 82.5 342.5t82.5 368.5h263z" />
    <glyph glyph-name="z" unicode="z" horiz-adv-x="890" 
d="M834 200l-5 -200h-756l14 191q50 45 235 278q198 249 198 285v16q-238 0 -438 -17l5 197h726l-15 -192q-63 -69 -225 -280q-189 -246 -189 -282v-15q227 0 450 19z" />
    <glyph glyph-name="braceleft" unicode="{" horiz-adv-x="723" 
d="M692 -330l-68 -160q-432 90 -432 319q0 74 43.5 244t43.5 216q0 70 -75.5 106.5t-158.5 42.5v149q242 35 242 155q0 46 -47.5 209.5t-47.5 230.5q0 196 223 287q92 38 222 52l45 -156q-294 -38 -294 -275q0 -52 47 -180t47 -164q0 -113 -93 -176q-68 -47 -136 -47v-15
q68 0 148.5 -53.5t80.5 -165.5q0 -40 -47 -177.5t-47 -182.5q0 -187 304 -259z" />
    <glyph glyph-name="bar" unicode="|" horiz-adv-x="516" 
d="M365 -517h-213q13 566 13 988q0 415 -13 1079h213q-12 -645 -12 -1079q0 -433 12 -988z" />
    <glyph glyph-name="braceright" unicode="}" horiz-adv-x="723" 
d="M692 441q-235 -59 -235 -152q0 -46 44.5 -214t44.5 -240q0 -167 -218 -263q-91 -40 -218 -62l-60 159q286 58 286 260q0 47 -40.5 183.5t-40.5 175.5q0 112 93 173q68 44 137 44v14q-67 0 -148.5 56.5t-81.5 169.5q0 37 40.5 165.5t40.5 178.5q0 221 -282 275l51 157
q129 -18 221 -57q220 -93 220 -276q0 -69 -46.5 -234.5t-46.5 -211.5q0 -69 77.5 -107t161.5 -45v-149z" />
    <glyph glyph-name="asciitilde" unicode="~" 
d="M1029 611q-149 -264 -337 -264q-68 0 -168.5 33.5t-164.5 33.5q-118 0 -230 -128l-123 90q147 276 335 276q68 0 175.5 -32t171.5 -32q118 0 218 112z" />
    <glyph glyph-name="exclamdown" unicode="&#xa1;" horiz-adv-x="516" 
d="M394 -181q0 -190 -160 -190q-145 0 -145 184q0 195 117 617h102q86 -435 86 -611zM435 814q0 -72 -50.5 -126t-140.5 -54q-76 0 -117 46.5t-41 112.5q0 74 50.5 129t139.5 55q75 0 117 -48t42 -115z" />
    <glyph glyph-name="cent" unicode="&#xa2;" 
d="M900 241l-17 -191q-30 -12 -63 -20q-80 -20 -166 -22q0 -158 9 -281h-139q3 55 6 288q-201 28 -308.5 164.5t-107.5 316.5q0 185 111 334t307 183q-1 162 -8 305h139q-8 -148 -8 -295q114 -1 212 -29l-34 -200q-92 35 -190 35q-124 0 -195.5 -89.5t-71.5 -212.5
q0 -130 81.5 -225.5t231.5 -95.5q83 0 211 35zM591 1077zM586 -40z" />
    <glyph glyph-name="sterling" unicode="&#xa3;" horiz-adv-x="909" 
d="M853 179l-19 -179h-776v159q53 20 89 57t36 122q0 62 -13 155q-65 0 -137 -5l6 147q49 -4 118 -4q-7 70 -7 130q0 215 93 316t267 101q102 0 179 -13l-25 -170q-59 13 -109 13q-90 0 -129 -48.5t-39 -151.5q0 -72 11 -177q74 0 194 5l-7 -147q-84 4 -169 4q6 -47 6 -88
q0 -167 -110 -235v-10q206 0 541 19z" />
    <glyph glyph-name="currency" unicode="&#xa4;" horiz-adv-x="1000" 
d="M889 774l-111 -106q47 -72 47 -177q0 -110 -46 -188l94 -88l-102 -102l-86 91q-90 -64 -205 -64q-102 0 -181 49l-87 -92l-101 101l92 87q-40 69 -40 165q0 129 61 215l-97 92l102 102l97 -104q82 49 182 49q95 0 170 -44l110 115zM673 467q0 81 -48.5 146.5t-132.5 65.5
q-82 0 -129.5 -62t-47.5 -140q0 -81 48.5 -146.5t131.5 -65.5t130.5 62t47.5 140z" />
    <glyph glyph-name="yen" unicode="&#xa5;" horiz-adv-x="909" 
d="M934 1068q0 -27 -78 -153.5t-156 -252.5q55 2 157 5v-122q-166 -1 -226 0q-23 -44 -34 -72h260v-122q-168 7 -286 7q1 -157 8 -358h-275q4 99 8 358q-92 0 -262 -7v122h237q-16 42 -30 72h-207v122q112 -5 144 -5q-17 30 -117.5 205t-100.5 201h312q0 -27 92.5 -237
t92.5 -267h14q0 55 87 263.5t87 240.5h273z" />
    <glyph glyph-name="brokenbar" unicode="&#xa6;" horiz-adv-x="500" 
d="M354 -500h-208q12 334 12 422q0 87 -12 454h208q-12 -334 -12 -422q0 -87 12 -454zM354 624h-208q12 334 12 422q0 87 -12 454h208q-12 -334 -12 -422q0 -87 12 -454z" />
    <glyph glyph-name="section" unicode="&#xa7;" horiz-adv-x="859" 
d="M791 -109q0 -325 -444 -325q-162 0 -283 35l34 197q125 -45 249 -45q213 0 213 108q0 64 -123 174q-212 189 -228 206q-123 133 -123 253q0 201 198 264q-198 176 -198 335q0 137 95.5 228.5t280.5 91.5q177 0 289 -30l-34 -199q-124 44 -255 44q-147 0 -147 -106
q0 -65 123 -169q202 -169 230 -198q123 -132 123 -265q0 -201 -186 -262q186 -167 186 -337zM579 453q0 72 -157 197q-59 0 -90.5 -34.5t-31.5 -84.5q0 -70 161 -191q58 0 88 33.5t30 79.5z" />
    <glyph glyph-name="dieresis" unicode="&#xa8;" horiz-adv-x="836" 
d="M753 1251q0 -58 -39.5 -101.5t-110.5 -43.5q-60 0 -93.5 37.5t-33.5 90.5q0 57 40.5 100t111.5 43q60 0 92.5 -37t32.5 -89zM358 1251q0 -58 -39.5 -101.5t-110.5 -43.5q-59 0 -92.5 37.5t-33.5 90.5q0 58 40 100.5t111 42.5q60 0 92.5 -37t32.5 -89z" />
    <glyph glyph-name="copyright" unicode="&#xa9;" horiz-adv-x="1353" 
d="M1277 608q0 -253 -178.5 -430.5t-431.5 -177.5t-432.5 178t-179.5 430q0 253 179.5 432.5t432.5 179.5t431.5 -179.5t178.5 -432.5zM1183 610q0 215 -151 367t-365 152q-215 0 -366.5 -152t-151.5 -367t151.5 -366.5t366.5 -151.5q214 0 365 151.5t151 366.5zM892 415
l-8 -115q-82 -17 -140 -17q-173 0 -262 95t-89 230q0 140 95.5 244t260.5 104q61 0 116 -14l-18 -115q-58 19 -113 19q-100 0 -150 -64t-50 -157q0 -94 58.5 -163t164.5 -69q62 0 135 22z" />
    <glyph glyph-name="ordfeminine" unicode="&#xaa;" horiz-adv-x="574" 
d="M521 759l-158 -7q-6 12 -6 45h-7q-49 -51 -147 -51q-75 0 -124 38t-49 119q0 96 86.5 151t232.5 55q-1 52 -18.5 68.5t-90.5 16.5q-66 0 -184 -33l16 133q96 31 199 31q53 0 93.5 -9.5t73 -32t50.5 -62t18 -92.5q0 -65 -1.5 -97.5t-1.5 -88.5q0 -92 18 -184zM349 898v2
q-2 32 -2 99q-159 -9 -159 -78q0 -48 63 -48q57 0 98 25z" />
    <glyph glyph-name="guillemotleft" unicode="&#xab;" horiz-adv-x="929" 
d="M446 244l-82 -118l-294 261v201l294 259l82 -117l-201 -242zM859 244l-82 -118l-294 261v201l294 259l82 -117l-201 -242z" />
    <glyph glyph-name="logicalnot" unicode="&#xac;" 
d="M926 160h-159v457h-660v192h819v-649z" />
    <glyph glyph-name="registered" unicode="&#xae;" horiz-adv-x="1353" 
d="M1277 771q0 -253 -178.5 -430.5t-431.5 -177.5t-432.5 178t-179.5 430q0 253 179.5 432.5t432.5 179.5t431.5 -179.5t178.5 -432.5zM1183 773q0 215 -151 366.5t-365 151.5q-215 0 -366.5 -151.5t-151.5 -366.5t151.5 -367t366.5 -152q214 0 365 152t151 367zM963 466
h-148q-58 177 -89 218.5t-100 41.5q-29 0 -55 -1q0 -128 4 -259h-139q7 151 7 340q0 182 -7 311h87q15 0 62.5 1.5t88.5 1.5q229 0 229 -157q0 -125 -131 -174v-7q50 -14 88.5 -79t102.5 -237zM776 926q0 99 -128 99q-47 0 -83 -7q5 -78 5 -202q27 -1 47 -1q159 0 159 111z
" />
    <glyph glyph-name="macron" unicode="&#xaf;" horiz-adv-x="500" 
d="M497 1335l-12 -174h-484l11 174h485z" />
    <glyph glyph-name="macron" unicode="&#x2c9;" horiz-adv-x="500" 
d="M497 1335l-12 -174h-484l11 174h485z" />
    <glyph glyph-name="degree" unicode="&#xb0;" horiz-adv-x="547" 
d="M531 1281q0 -112 -78 -197t-217 -85q-117 0 -182.5 74.5t-65.5 176.5q0 112 77 195t218 83q118 0 183 -73t65 -174zM411 1273q0 56 -37 96t-103 40q-78 0 -121 -45.5t-43 -107.5q0 -57 36 -97.5t101 -40.5q78 0 122.5 46.5t44.5 108.5z" />
    <glyph glyph-name="plusminus" unicode="&#xb1;" 
d="M926 619h-319v-290h-180v290h-320v180h320v290h180v-290h319v-180zM926 45h-819v180h819v-180z" />
    <glyph glyph-name="uni00B2" unicode="&#xb2;" horiz-adv-x="547" 
d="M506 738l-16 -131h-435l13 109q51 35 94 76.5t77.5 86t53 93.5t18.5 97q0 120 -128 120q-64 0 -122 -17l15 124q59 20 148 20q132 0 192.5 -62t60.5 -162q0 -181 -212 -352v-10q152 0 241 8z" />
    <glyph glyph-name="uni00B3" unicode="&#xb3;" horiz-adv-x="547" 
d="M504 833q0 -54 -27 -102.5t-80.5 -90.5t-143.5 -69t-209 -33l-25 107q162 18 238 61t76 109q0 111 -244 111l18 110q117 0 162 17t45 66q0 36 -26 53t-90 17q-43 0 -141 -21l9 126q82 22 190 22q90 0 153.5 -38t63.5 -122q0 -99 -101 -140v-8q57 -17 94.5 -56.5
t37.5 -118.5z" />
    <glyph glyph-name="acute" unicode="&#xb4;" horiz-adv-x="562" 
d="M510 1410q0 -12 -138 -160t-138 -164h-175q0 16 90 164.5t90 159.5h271z" />
    <glyph glyph-name="mu" unicode="&#xb5;" horiz-adv-x="1128" 
d="M1020 -1l-235 -8q-19 68 -19 103h-16q-85 -94 -215 -94q-136 0 -208 94h-16q0 -269 57 -549l-262 -20q13 400 13 743q0 399 -33 670l290 11q-9 -208 -9 -369q0 -239 44.5 -320t153.5 -81q105 0 179 67q0 507 -12 694l268 10q-11 -232 -11 -437q0 -232 31 -514z" />
    <glyph glyph-name="paragraph" unicode="&#xb6;" horiz-adv-x="1371" 
d="M1199 -413h-271q8 519 8 1128q0 262 -9 493q-32 3 -133 6q-11 -528 -11 -852q0 -497 13 -858h-186q12 365 12 858q0 85 -1 203q-246 3 -371 104t-125 336q0 194 134.5 300t318.5 106q74 0 188 -3t164 -3h269q-13 -275 -13 -711q0 -599 13 -1107z" />
    <glyph glyph-name="periodcentered" unicode="&#xb7;" horiz-adv-x="516" 
d="M430 613q0 -73 -50.5 -128.5t-139.5 -55.5q-75 0 -117 48t-42 115q0 73 50.5 126.5t140.5 53.5q76 0 117 -46.5t41 -112.5z" />
    <glyph glyph-name="periodcentered" unicode="&#x2219;" horiz-adv-x="516" 
d="M430 613q0 -73 -50.5 -128.5t-139.5 -55.5q-75 0 -117 48t-42 115q0 73 50.5 126.5t140.5 53.5q76 0 117 -46.5t41 -112.5z" />
    <glyph glyph-name="cedilla" unicode="&#xb8;" horiz-adv-x="470" 
d="M421 -287q0 -227 -246 -227l-24 112q40 0 69 29.5t29 65.5q0 101 -129 125l41 234l87 -14l-16 -130q189 -47 189 -195z" />
    <glyph glyph-name="uni00B9" unicode="&#xb9;" horiz-adv-x="547" 
d="M427 1304q-5 -174 -5 -351q0 -192 5 -346h-170q6 163 6 346q0 81 -3 161l-190 -99l-38 96l291 193h104z" />
    <glyph glyph-name="ordmasculine" unicode="&#xba;" horiz-adv-x="637" 
d="M600 1047q0 -142 -85 -225.5t-207 -83.5q-112 0 -191.5 75t-79.5 205q0 146 84.5 229t208.5 83q112 0 191 -74.5t79 -208.5zM437 1030q0 76 -34.5 127t-84.5 51q-56 0 -87 -46t-31 -123q0 -74 34.5 -126t85.5 -52q56 0 86.5 45t30.5 124z" />
    <glyph glyph-name="guillemotright" unicode="&#xbb;" horiz-adv-x="929" 
d="M446 387l-293 -261l-83 118l202 242l-202 244l83 117l293 -259v-201zM859 387l-293 -261l-83 118l202 242l-202 244l83 117l293 -259v-201z" />
    <glyph glyph-name="onequarter" unicode="&#xbc;" horiz-adv-x="1550" 
d="M457 1304q-5 -174 -5 -351q0 -192 5 -346h-170q6 163 6 346q0 81 -3 161l-190 -99l-38 96l291 193h104zM1330 1315q0 -66 -497.5 -666t-497.5 -691l-165 20q0 71 497 665.5t497 691.5zM1440 339l-16 -132h-82q0 -47 2.5 -110t5.5 -126h-170q3 64 4.5 122t1.5 114h-273
l-13 96q0 10 37 64.5t123 172t104 158.5h187q-3 -53 -6 -141t-3 -226q44 0 98 8zM1190 551h-5q-10 -41 -138 -215v-9h52q58 0 87 1q1 28 2 85q2 98 2 138z" />
    <glyph glyph-name="onehalf" unicode="&#xbd;" horiz-adv-x="1550" 
d="M488 1304q-5 -174 -5 -351q0 -192 5 -346h-170q6 163 6 346q0 81 -3 161l-190 -99l-38 96l291 193h104zM1355 1315q0 -66 -497.5 -666t-497.5 -691l-165 20q0 71 497 665.5t497 691.5zM1420 132l-16 -131h-435l13 109q51 35 94 76.5t77.5 86t53 93.5t18.5 97
q0 120 -128 120q-64 0 -122 -17l15 124q59 20 148 20q132 0 192.5 -62t60.5 -162q0 -181 -212 -352v-10q152 0 241 8z" />
    <glyph glyph-name="threequarters" unicode="&#xbe;" horiz-adv-x="1550" 
d="M563 833q0 -54 -27 -102.5t-80.5 -90.5t-143.5 -69t-209 -33l-25 107q162 18 238 61t76 109q0 111 -244 111l18 110q117 0 162 17t45 66q0 36 -26 53t-90 17q-43 0 -141 -21l9 126q82 22 190 22q90 0 153.5 -38t63.5 -122q0 -99 -101 -140v-8q57 -17 94.5 -56.5
t37.5 -118.5zM1358 1315q0 -66 -497.5 -666t-497.5 -691l-165 20q0 71 497 665.5t497 691.5zM1428 339l-16 -132h-82q0 -47 2.5 -110t5.5 -126h-170q3 64 4.5 122t1.5 114h-273l-13 96q0 10 37 64.5t123 172t104 158.5h187q-3 -53 -6 -141t-3 -226q44 0 98 8zM1178 551h-5
q-10 -41 -138 -215v-9h52q58 0 87 1q1 28 2 85q2 98 2 138z" />
    <glyph glyph-name="questiondown" unicode="&#xbf;" horiz-adv-x="723" 
d="M669 -172l-23 -189q-311 0 -457.5 65.5t-146.5 236.5q0 216 279 345l21 151h133l38 -213q-215 -62 -215 -208q0 -177 371 -188zM600 821q0 -72 -50.5 -126t-140.5 -54q-76 0 -117 46.5t-41 112.5q0 74 50 129t140 55q75 0 117 -48t42 -115z" />
    <glyph glyph-name="Agrave" unicode="&#xc0;" horiz-adv-x="1290" 
d="M1279 0h-320q0 66 -91 374h-462q-94 -303 -94 -374h-301q0 39 233.5 640t233.5 662h378q0 -57 211.5 -652.5t211.5 -649.5zM817 565q-171 516 -171 558h-16q0 -39 -177 -558h364zM787 1416h-175q-10 16 -143 139t-133 135h291q0 -11 80 -134.5t80 -139.5z" />
    <glyph glyph-name="Aacute" unicode="&#xc1;" horiz-adv-x="1290" 
d="M1279 0h-320q0 66 -91 374h-462q-94 -303 -94 -374h-301q0 39 233.5 640t233.5 662h378q0 -57 211.5 -652.5t211.5 -649.5zM817 565q-171 516 -171 558h-16q0 -39 -177 -558h364zM987 1690q0 -12 -133 -135t-143 -139h-175q0 16 80 139.5t80 134.5h291z" />
    <glyph glyph-name="Acircumflex" unicode="&#xc2;" horiz-adv-x="1290" 
d="M1279 0h-320q0 66 -91 374h-462q-94 -303 -94 -374h-301q0 39 233.5 640t233.5 662h378q0 -57 211.5 -652.5t211.5 -649.5zM817 565q-171 516 -171 558h-16q0 -39 -177 -558h364zM994 1416h-155q-10 16 -166 134q-156 -118 -166 -134h-155q0 16 100 139.5t100 134.5h242
q0 -11 100 -134.5t100 -139.5z" />
    <glyph glyph-name="Atilde" unicode="&#xc3;" horiz-adv-x="1290" 
d="M1279 0h-320q0 66 -91 374h-462q-94 -303 -94 -374h-301q0 39 233.5 640t233.5 662h378q0 -57 211.5 -652.5t211.5 -649.5zM817 565q-171 516 -171 558h-16q0 -39 -177 -558h364zM1051 1625q-112 -196 -256 -196q-46 0 -121.5 23t-115.5 23q-91 0 -176 -67l-89 75
q112 186 256 186q50 0 124 -23t113 -23q91 0 176 77z" />
    <glyph glyph-name="Adieresis" unicode="&#xc4;" horiz-adv-x="1290" 
d="M1279 0h-320q0 66 -91 374h-462q-94 -303 -94 -374h-301q0 39 233.5 640t233.5 662h378q0 -57 211.5 -652.5t211.5 -649.5zM817 565q-171 516 -171 558h-16q0 -39 -177 -558h364zM997 1567q0 -58 -39.5 -101.5t-110.5 -43.5q-60 0 -93.5 37.5t-33.5 90.5q0 57 40.5 100
t111.5 43q60 0 92.5 -37t32.5 -89zM602 1567q0 -58 -39.5 -101.5t-110.5 -43.5q-59 0 -92.5 37.5t-33.5 90.5q0 58 40 100.5t111 42.5q60 0 92.5 -37t32.5 -89z" />
    <glyph glyph-name="Aring" unicode="&#xc5;" horiz-adv-x="1290" 
d="M1279 0h-320q0 66 -91 374h-462q-94 -303 -94 -374h-301q0 39 233.5 640t233.5 662h378q0 -57 211.5 -652.5t211.5 -649.5zM817 565q-171 516 -171 558h-16q0 -39 -177 -558h364zM919 1605q0 -115 -77.5 -182.5t-177.5 -67.5q-90 0 -155.5 57.5t-65.5 163.5
q0 114 77.5 180t177.5 66q90 0 155.5 -56.5t65.5 -160.5zM805 1596q0 60 -33.5 92t-81.5 32q-52 0 -92 -37t-40 -101q0 -60 33.5 -92.5t81.5 -32.5q52 0 92 37.5t40 101.5z" />
    <glyph glyph-name="AE" unicode="&#xc6;" horiz-adv-x="1695" 
d="M1618 220l-8 -220h-860q11 185 11 374h-371q-91 -290 -91 -374h-288q0 38 234 638t234 664h1091l-9 -219q-314 16 -558 16q12 -141 12 -328q194 0 460 8v-206q-247 10 -460 10q0 -193 7 -380q277 0 596 17zM763 565q0 325 -10 534h-131q0 -39 -185 -534h326z" />
    <glyph glyph-name="Ccedilla" unicode="&#xc7;" horiz-adv-x="1131" 
d="M1076 237l-17 -230q-142 -34 -280 -34q-52 0 -99 5l-9 -70q189 -47 189 -195q0 -227 -246 -227l-24 112q40 0 69 29.5t29 65.5q0 101 -129 125l30 173q-211 41 -361.5 201t-150.5 431q0 279 191 488t522 209q122 0 231 -28l-35 -231q-118 38 -226 38q-201 0 -301 -128.5
t-100 -312.5q0 -188 117.5 -326t329.5 -138q124 0 270 43z" />
    <glyph glyph-name="Egrave" unicode="&#xc8;" horiz-adv-x="1080" 
d="M1003 220l-8 -220h-851q13 302 13 681q0 364 -13 621h812l-11 -219q-300 16 -544 16q10 -139 10 -328q209 0 447 11v-209q-234 10 -447 10q0 -203 8 -380q274 0 584 17zM717 1416h-175q-10 16 -143 139t-133 135h291q0 -11 80 -134.5t80 -139.5z" />
    <glyph glyph-name="Eacute" unicode="&#xc9;" horiz-adv-x="1080" 
d="M1003 220l-8 -220h-851q13 302 13 681q0 364 -13 621h812l-11 -219q-300 16 -544 16q10 -139 10 -328q209 0 447 11v-209q-234 10 -447 10q0 -203 8 -380q274 0 584 17zM919 1690q0 -12 -133 -135t-143 -139h-175q0 16 80 139.5t80 134.5h291z" />
    <glyph glyph-name="Ecircumflex" unicode="&#xca;" horiz-adv-x="1080" 
d="M1003 220l-8 -220h-851q13 302 13 681q0 364 -13 621h812l-11 -219q-300 16 -544 16q10 -139 10 -328q209 0 447 11v-209q-234 10 -447 10q0 -203 8 -380q274 0 584 17zM915 1416h-155q-10 16 -166 134q-156 -118 -166 -134h-155q0 16 100 139.5t100 134.5h242
q0 -11 100 -134.5t100 -139.5z" />
    <glyph glyph-name="Edieresis" unicode="&#xcb;" horiz-adv-x="1080" 
d="M1003 220l-8 -220h-851q13 302 13 681q0 364 -13 621h812l-11 -219q-300 16 -544 16q10 -139 10 -328q209 0 447 11v-209q-234 10 -447 10q0 -203 8 -380q274 0 584 17zM902 1567q0 -58 -39.5 -101.5t-110.5 -43.5q-60 0 -93.5 37.5t-33.5 90.5q0 57 40.5 100t111.5 43
q60 0 92.5 -37t32.5 -89zM507 1567q0 -58 -39.5 -101.5t-110.5 -43.5q-59 0 -92.5 37.5t-33.5 90.5q0 58 40 100.5t111 42.5q60 0 92.5 -37t32.5 -89z" />
    <glyph glyph-name="Igrave" unicode="&#xcc;" horiz-adv-x="571" 
d="M427 0h-283q13 310 13 681q0 365 -13 621h283q-13 -252 -13 -621q0 -377 13 -681zM413 1416h-175q-10 16 -143 139t-133 135h291q0 -11 80 -134.5t80 -139.5z" />
    <glyph glyph-name="Iacute" unicode="&#xcd;" horiz-adv-x="571" 
d="M427 0h-283q13 310 13 681q0 365 -13 621h283q-13 -252 -13 -621q0 -377 13 -681zM630 1690q0 -12 -133 -135t-143 -139h-175q0 16 80 139.5t80 134.5h291z" />
    <glyph glyph-name="Icircumflex" unicode="&#xce;" horiz-adv-x="571" 
d="M427 0h-283q13 310 13 681q0 365 -13 621h283q-13 -252 -13 -621q0 -377 13 -681zM608 1416h-155q-10 16 -166 134q-156 -118 -166 -134h-155q0 16 100 139.5t100 134.5h242q0 -11 100 -134.5t100 -139.5z" />
    <glyph glyph-name="Idieresis" unicode="&#xcf;" horiz-adv-x="571" 
d="M427 0h-283q13 310 13 681q0 365 -13 621h283q-13 -252 -13 -621q0 -377 13 -681zM622 1567q0 -58 -39.5 -101.5t-110.5 -43.5q-60 0 -93.5 37.5t-33.5 90.5q0 57 40.5 100t111.5 43q60 0 92.5 -37t32.5 -89zM227 1567q0 -58 -39.5 -101.5t-110.5 -43.5q-59 0 -92.5 37.5
t-33.5 90.5q0 58 40 100.5t111 42.5q60 0 92.5 -37t32.5 -89z" />
    <glyph glyph-name="Eth" unicode="&#xd0;" horiz-adv-x="1321" 
d="M1244 696q0 -282 -181 -495t-502 -213q-157 0 -417 12q13 248 13 582q-56 -4 -146 -14l9 179q80 -1 137 -1q0 307 -13 556h175q44 0 130 3t129 3q335 0 500.5 -176t165.5 -436zM971 653q0 189 -115 322t-339 133q-51 0 -118 -8q12 -139 11 -347q99 5 329 26l-9 -176
q-70 0 -320 -7q0 -224 9 -389q65 -13 135 -13q210 0 313.5 133.5t103.5 325.5z" />
    <glyph glyph-name="Ntilde" unicode="&#xd1;" horiz-adv-x="1361" 
d="M1217 0h-247q0 41 -275 433q-288 413 -328 565h-16q25 -219 25 -396q0 -247 14 -602h-246q15 310 15 681q0 365 -15 621h297q0 -53 247 -423q263 -393 302 -533h15q-24 223 -24 400q0 271 -14 556h250q-14 -248 -14 -621q0 -376 14 -681zM1063 1625q-112 -196 -256 -196
q-46 0 -121.5 23t-115.5 23q-91 0 -176 -67l-89 75q112 186 256 186q50 0 124 -23t113 -23q91 0 176 77z" />
    <glyph glyph-name="Ograve" unicode="&#xd2;" horiz-adv-x="1427" 
d="M1350 675q0 -307 -188 -509t-465 -202q-264 0 -442 185.5t-178 471.5q0 307 188 509t465 202q264 0 442 -185t178 -472zM1074 646q0 209 -107 339t-264 130q-146 0 -248 -131t-102 -331q0 -208 107.5 -338.5t263.5 -130.5q146 0 248 131.5t102 330.5zM839 1416h-175
q-10 16 -143 139t-133 135h291q0 -11 80 -134.5t80 -139.5z" />
    <glyph glyph-name="Oacute" unicode="&#xd3;" horiz-adv-x="1427" 
d="M1350 675q0 -307 -188 -509t-465 -202q-264 0 -442 185.5t-178 471.5q0 307 188 509t465 202q264 0 442 -185t178 -472zM1074 646q0 209 -107 339t-264 130q-146 0 -248 -131t-102 -331q0 -208 107.5 -338.5t263.5 -130.5q146 0 248 131.5t102 330.5zM1106 1690
q0 -12 -133 -135t-143 -139h-175q0 16 80 139.5t80 134.5h291z" />
    <glyph glyph-name="Ocircumflex" unicode="&#xd4;" horiz-adv-x="1427" 
d="M1350 675q0 -307 -188 -509t-465 -202q-264 0 -442 185.5t-178 471.5q0 307 188 509t465 202q264 0 442 -185t178 -472zM1074 646q0 209 -107 339t-264 130q-146 0 -248 -131t-102 -331q0 -208 107.5 -338.5t263.5 -130.5q146 0 248 131.5t102 330.5zM1042 1416h-155
q-10 16 -166 134q-156 -118 -166 -134h-155q0 16 100 139.5t100 134.5h242q0 -11 100 -134.5t100 -139.5z" />
    <glyph glyph-name="Otilde" unicode="&#xd5;" horiz-adv-x="1427" 
d="M1350 675q0 -307 -188 -509t-465 -202q-264 0 -442 185.5t-178 471.5q0 307 188 509t465 202q264 0 442 -185t178 -472zM1074 646q0 209 -107 339t-264 130q-146 0 -248 -131t-102 -331q0 -208 107.5 -338.5t263.5 -130.5q146 0 248 131.5t102 330.5zM1145 1625
q-112 -196 -256 -196q-46 0 -121.5 23t-115.5 23q-91 0 -176 -67l-89 75q112 186 256 186q50 0 124 -23t113 -23q91 0 176 77z" />
    <glyph glyph-name="Odieresis" unicode="&#xd6;" horiz-adv-x="1427" 
d="M1350 675q0 -307 -188 -509t-465 -202q-264 0 -442 185.5t-178 471.5q0 307 188 509t465 202q264 0 442 -185t178 -472zM1074 646q0 209 -107 339t-264 130q-146 0 -248 -131t-102 -331q0 -208 107.5 -338.5t263.5 -130.5q146 0 248 131.5t102 330.5zM1067 1567
q0 -58 -39.5 -101.5t-110.5 -43.5q-60 0 -93.5 37.5t-33.5 90.5q0 57 40.5 100t111.5 43q60 0 92.5 -37t32.5 -89zM672 1567q0 -58 -39.5 -101.5t-110.5 -43.5q-59 0 -92.5 37.5t-33.5 90.5q0 58 40 100.5t111 42.5q60 0 92.5 -37t32.5 -89z" />
    <glyph glyph-name="multiply" unicode="&#xd7;" horiz-adv-x="1024" 
d="M880 739l-241 -240l226 -226l-127 -127l-226 226l-240 -241l-128 128l241 240l-227 226l128 128l226 -227l240 241z" />
    <glyph glyph-name="Oslash" unicode="&#xd8;" horiz-adv-x="1427" 
d="M1360 1322q0 -43 -144 -225q136 -177 136 -422q0 -307 -188 -509t-465 -202q-200 0 -356 113q-130 -161 -130 -196l-147 42q0 40 171 249q-158 182 -158 449q0 307 188 509t465 202q218 0 381 -131q98 126 98 158zM954 1004q-102 111 -249 111q-146 0 -248 -131
t-102 -331q0 -151 61 -267q190 216 538 618zM1076 646q0 126 -43 227q-185 -209 -529 -603q96 -86 222 -86q146 0 248 131.5t102 330.5z" />
    <glyph glyph-name="Ugrave" unicode="&#xd9;" horiz-adv-x="1347" 
d="M1225 1302q-9 -336 -9 -672q0 -664 -544 -664q-269 0 -405 147t-136 528q0 336 -9 661h283q-13 -338 -13 -652q0 -275 70 -377t216 -102q153 0 221 101.5t68 379.5q0 305 -13 650h271zM804 1416h-175q-10 16 -143 139t-133 135h291q0 -11 80 -134.5t80 -139.5z" />
    <glyph glyph-name="Uacute" unicode="&#xda;" horiz-adv-x="1347" 
d="M1225 1302q-9 -336 -9 -672q0 -664 -544 -664q-269 0 -405 147t-136 528q0 336 -9 661h283q-13 -338 -13 -652q0 -275 70 -377t216 -102q153 0 221 101.5t68 379.5q0 305 -13 650h271zM1025 1690q0 -12 -133 -135t-143 -139h-175q0 16 80 139.5t80 134.5h291z" />
    <glyph glyph-name="Ucircumflex" unicode="&#xdb;" horiz-adv-x="1347" 
d="M1225 1302q-9 -336 -9 -672q0 -664 -544 -664q-269 0 -405 147t-136 528q0 336 -9 661h283q-13 -338 -13 -652q0 -275 70 -377t216 -102q153 0 221 101.5t68 379.5q0 305 -13 650h271zM997 1416h-155q-10 16 -166 134q-156 -118 -166 -134h-155q0 16 100 139.5t100 134.5
h242q0 -11 100 -134.5t100 -139.5z" />
    <glyph glyph-name="Udieresis" unicode="&#xdc;" horiz-adv-x="1347" 
d="M1225 1302q-9 -336 -9 -672q0 -664 -544 -664q-269 0 -405 147t-136 528q0 336 -9 661h283q-13 -338 -13 -652q0 -275 70 -377t216 -102q153 0 221 101.5t68 379.5q0 305 -13 650h271zM1018 1567q0 -58 -39.5 -101.5t-110.5 -43.5q-60 0 -93.5 37.5t-33.5 90.5
q0 57 40.5 100t111.5 43q60 0 92.5 -37t32.5 -89zM623 1567q0 -58 -39.5 -101.5t-110.5 -43.5q-59 0 -92.5 37.5t-33.5 90.5q0 58 40 100.5t111 42.5q60 0 92.5 -37t32.5 -89z" />
    <glyph glyph-name="Yacute" unicode="&#xdd;" horiz-adv-x="1130" 
d="M1119 1302q0 -41 -114 -221q-175 -275 -213 -342q-114 -203 -114 -301q0 -220 12 -438h-284q11 219 11 441q0 102 -105 309q-49 96 -196 343q-105 177 -105 209h314q0 -36 125.5 -303.5t125.5 -345.5h16q0 72 122.5 328t122.5 321h282zM944 1690q0 -12 -133 -135
t-143 -139h-175q0 16 80 139.5t80 134.5h291z" />
    <glyph glyph-name="Thorn" unicode="&#xde;" horiz-adv-x="1138" 
d="M1094 798q0 -236 -178.5 -351.5t-454.5 -115.5h-47q0 -125 8 -331h-278q12 317 12 684q0 357 -12 618h284q-6 -72 -9 -162q115 5 223 5q190 0 321 -86t131 -261zM836 743q0 214 -284 214q-66 0 -136 -15q-2 -191 -2 -430h57q365 0 365 231z" />
    <glyph glyph-name="germandbls" unicode="&#xdf;" horiz-adv-x="1112" 
d="M1046 270q0 -136 -107.5 -214t-265.5 -78q-111 0 -195 24l21 176q76 -28 166 -28q137 0 137 92q0 62 -131 185q-147 138 -147 261q0 86 65 173q60 68 121 136q65 75 65 132q0 131 -190 131q-100 0 -168 -82t-68 -261q0 -519 15 -917h-265q10 332 10 896
q0 267 152.5 403.5t349.5 136.5q167 0 268 -72t101 -206q0 -83 -61 -164q-56 -62 -113 -123q-61 -68 -61 -120q0 -63 119 -168q182 -160 182 -313z" />
    <glyph glyph-name="agrave" unicode="&#xe0;" horiz-adv-x="1006" 
d="M925 1l-236 -8q-16 42 -16 76h-13q-110 -94 -297 -94q-125 0 -207.5 69.5t-82.5 184.5q0 152 128.5 249t450.5 103q2 18 2 34q0 108 -52 142.5t-191 34.5q-151 0 -295 -40l22 184q136 47 384 47q181 0 279.5 -76t98.5 -266q0 -42 -3.5 -153t-3.5 -148q0 -207 32 -339z
M658 209q-6 135 -6 233q-341 0 -341 -173q0 -119 150 -119q118 0 197 59zM612 1086h-175q0 16 -138 164t-138 160h271q0 -11 90 -159.5t90 -164.5z" />
    <glyph glyph-name="aacute" unicode="&#xe1;" horiz-adv-x="1006" 
d="M925 1l-236 -8q-16 42 -16 76h-13q-110 -94 -297 -94q-125 0 -207.5 69.5t-82.5 184.5q0 152 128.5 249t450.5 103q2 18 2 34q0 108 -52 142.5t-191 34.5q-151 0 -295 -40l22 184q136 47 384 47q181 0 279.5 -76t98.5 -266q0 -42 -3.5 -153t-3.5 -148q0 -207 32 -339z
M658 209q-6 135 -6 233q-341 0 -341 -173q0 -119 150 -119q118 0 197 59zM830 1410q0 -12 -138 -160t-138 -164h-175q0 16 90 164.5t90 159.5h271z" />
    <glyph glyph-name="acircumflex" unicode="&#xe2;" horiz-adv-x="1006" 
d="M925 1l-236 -8q-16 42 -16 76h-13q-110 -94 -297 -94q-125 0 -207.5 69.5t-82.5 184.5q0 152 128.5 249t450.5 103q2 18 2 34q0 108 -52 142.5t-191 34.5q-151 0 -295 -40l22 184q136 47 384 47q181 0 279.5 -76t98.5 -266q0 -42 -3.5 -153t-3.5 -148q0 -207 32 -339z
M658 209q-6 135 -6 233q-341 0 -341 -173q0 -119 150 -119q118 0 197 59zM801 1086h-155q0 16 -166 194q-166 -178 -166 -194h-155q0 16 95 164.5t95 159.5h262q0 -11 95 -159.5t95 -164.5z" />
    <glyph glyph-name="atilde" unicode="&#xe3;" horiz-adv-x="1006" 
d="M925 1l-236 -8q-16 42 -16 76h-13q-110 -94 -297 -94q-125 0 -207.5 69.5t-82.5 184.5q0 152 128.5 249t450.5 103q2 18 2 34q0 108 -52 142.5t-191 34.5q-151 0 -295 -40l22 184q136 47 384 47q181 0 279.5 -76t98.5 -266q0 -42 -3.5 -153t-3.5 -148q0 -207 32 -339z
M658 209q-6 135 -6 233q-341 0 -341 -173q0 -119 150 -119q118 0 197 59zM900 1355q-112 -226 -256 -226q-46 0 -121.5 23t-115.5 23q-91 0 -176 -107l-89 75q112 226 256 226q50 0 124 -23t113 -23q91 0 176 107z" />
    <glyph glyph-name="adieresis" unicode="&#xe4;" horiz-adv-x="1006" 
d="M925 1l-236 -8q-16 42 -16 76h-13q-110 -94 -297 -94q-125 0 -207.5 69.5t-82.5 184.5q0 152 128.5 249t450.5 103q2 18 2 34q0 108 -52 142.5t-191 34.5q-151 0 -295 -40l22 184q136 47 384 47q181 0 279.5 -76t98.5 -266q0 -42 -3.5 -153t-3.5 -148q0 -207 32 -339z
M658 209q-6 135 -6 233q-341 0 -341 -173q0 -119 150 -119q118 0 197 59zM833 1251q0 -58 -39.5 -101.5t-110.5 -43.5q-60 0 -93.5 37.5t-33.5 90.5q0 57 40.5 100t111.5 43q60 0 92.5 -37t32.5 -89zM438 1251q0 -58 -39.5 -101.5t-110.5 -43.5q-59 0 -92.5 37.5t-33.5 90.5
q0 58 40 100.5t111 42.5q60 0 92.5 -37t32.5 -89z" />
    <glyph glyph-name="aring" unicode="&#xe5;" horiz-adv-x="1006" 
d="M925 1l-236 -8q-16 42 -16 76h-13q-110 -94 -297 -94q-125 0 -207.5 69.5t-82.5 184.5q0 152 128.5 249t450.5 103q2 18 2 34q0 108 -52 142.5t-191 34.5q-151 0 -295 -40l22 184q136 47 384 47q181 0 279.5 -76t98.5 -266q0 -42 -3.5 -153t-3.5 -148q0 -207 32 -339z
M658 209q-6 135 -6 233q-341 0 -341 -173q0 -119 150 -119q118 0 197 59zM743 1289q0 -115 -77.5 -182.5t-177.5 -67.5q-90 0 -155.5 57.5t-65.5 163.5q0 114 77.5 180t177.5 66q90 0 155.5 -56.5t65.5 -160.5zM629 1280q0 60 -33.5 92t-81.5 32q-52 0 -92 -37t-40 -101
q0 -60 33.5 -92.5t81.5 -32.5q52 0 92 37.5t40 101.5z" />
    <glyph glyph-name="ae" unicode="&#xe6;" horiz-adv-x="1611" 
d="M1542 577q0 -51 -6 -133l-640 -11q14 -114 94.5 -188.5t215.5 -74.5q150 0 320 45l-20 -194q-139 -50 -343 -50q-252 0 -391 163h-16q-97 -87 -174.5 -123t-218.5 -36q-125 0 -207.5 69.5t-82.5 184.5q0 152 128.5 249t450.5 103q2 18 2 34q0 108 -52.5 142.5
t-191.5 34.5q-151 0 -295 -40l22 184q136 47 384 47q207 0 292 -102h16q124 110 296 110q212 0 314.5 -115t102.5 -299zM696 235q-49 103 -49 207q-337 0 -337 -173q0 -119 150 -119q118 0 236 85zM1308 586q0 230 -195 230t-219 -238z" />
    <glyph glyph-name="ccedilla" unicode="&#xe7;" horiz-adv-x="912" 
d="M868 210l-17 -191q-101 -48 -247 -48q-35 0 -65 3l-10 -66q189 -47 189 -195q0 -227 -246 -227l-24 112q40 0 69 29.5t29 65.5q0 101 -129 125l29 170q-148 33 -262.5 152t-114.5 321q0 210 145 366.5t397 156.5q123 0 219 -28l-34 -204q-92 38 -206 38
q-121 0 -191 -85.5t-70 -210.5q0 -136 83 -230t235 -94q89 0 221 40z" />
    <glyph glyph-name="egrave" unicode="&#xe8;" horiz-adv-x="1049" 
d="M980 577q0 -51 -6 -133l-644 -11q14 -113 97 -188t218 -75q150 0 319 45l-20 -194q-138 -50 -342 -50q-258 0 -395.5 145t-137.5 349q0 213 130.5 369.5t362.5 156.5q212 0 315 -115t103 -299zM746 586q0 230 -196 230q-187 0 -222 -238zM672 1086h-175q0 16 -138 164
t-138 160h271q0 -11 90 -159.5t90 -164.5z" />
    <glyph glyph-name="eacute" unicode="&#xe9;" horiz-adv-x="1049" 
d="M980 577q0 -51 -6 -133l-644 -11q14 -113 97 -188t218 -75q150 0 319 45l-20 -194q-138 -50 -342 -50q-258 0 -395.5 145t-137.5 349q0 213 130.5 369.5t362.5 156.5q212 0 315 -115t103 -299zM746 586q0 230 -196 230q-187 0 -222 -238zM905 1410q0 -12 -138 -160
t-138 -164h-175q0 16 90 164.5t90 159.5h271z" />
    <glyph glyph-name="ecircumflex" unicode="&#xea;" horiz-adv-x="1049" 
d="M980 577q0 -51 -6 -133l-644 -11q14 -113 97 -188t218 -75q150 0 319 45l-20 -194q-138 -50 -342 -50q-258 0 -395.5 145t-137.5 349q0 213 130.5 369.5t362.5 156.5q212 0 315 -115t103 -299zM746 586q0 230 -196 230q-187 0 -222 -238zM876 1086h-155q0 16 -166 194
q-166 -178 -166 -194h-155q0 16 95 164.5t95 159.5h262q0 -11 95 -159.5t95 -164.5z" />
    <glyph glyph-name="edieresis" unicode="&#xeb;" horiz-adv-x="1049" 
d="M980 577q0 -51 -6 -133l-644 -11q14 -113 97 -188t218 -75q150 0 319 45l-20 -194q-138 -50 -342 -50q-258 0 -395.5 145t-137.5 349q0 213 130.5 369.5t362.5 156.5q212 0 315 -115t103 -299zM746 586q0 230 -196 230q-187 0 -222 -238zM893 1251q0 -58 -39.5 -101.5
t-110.5 -43.5q-60 0 -93.5 37.5t-33.5 90.5q0 57 40.5 100t111.5 43q60 0 92.5 -37t32.5 -89zM498 1251q0 -58 -39.5 -101.5t-110.5 -43.5q-59 0 -92.5 37.5t-33.5 90.5q0 58 40 100.5t111 42.5q60 0 92.5 -37t32.5 -89z" />
    <glyph glyph-name="igrave" unicode="&#xec;" horiz-adv-x="510" 
d="M395 0h-269q14 207 14 475q0 266 -34 466l288 29q-13 -194 -13 -495q0 -257 14 -475zM393 1086h-175q0 16 -138 164t-138 160h271q0 -11 90 -159.5t90 -164.5z" />
    <glyph glyph-name="iacute" unicode="&#xed;" horiz-adv-x="510" 
d="M395 0h-269q14 207 14 475q0 266 -34 466l288 29q-13 -194 -13 -495q0 -257 14 -475zM608 1410q0 -12 -138 -160t-138 -164h-175q0 16 90 164.5t90 159.5h271z" />
    <glyph glyph-name="icircumflex" unicode="&#xee;" horiz-adv-x="510" 
d="M395 0h-269q14 207 14 475q0 266 -34 466l288 29q-13 -194 -13 -495q0 -257 14 -475zM582 1086h-155q0 16 -166 194q-166 -178 -166 -194h-155q0 16 95 164.5t95 159.5h262q0 -11 95 -159.5t95 -164.5z" />
    <glyph glyph-name="idieresis" unicode="&#xef;" horiz-adv-x="510" 
d="M395 0h-269q14 207 14 475q0 266 -34 466l288 29q-13 -194 -13 -495q0 -257 14 -475zM600 1251q0 -58 -39.5 -101.5t-110.5 -43.5q-60 0 -93.5 37.5t-33.5 90.5q0 57 40.5 100t111.5 43q60 0 92.5 -37t32.5 -89zM205 1251q0 -58 -39.5 -101.5t-110.5 -43.5
q-59 0 -92.5 37.5t-33.5 90.5q0 58 40 100.5t111 42.5q60 0 92.5 -37t32.5 -89z" />
    <glyph glyph-name="eth" unicode="&#xf0;" horiz-adv-x="1130" 
d="M1065 580q0 -261 -132.5 -439.5t-367.5 -178.5q-237 0 -365 144.5t-128 348.5q0 187 125 338.5t349 151.5q100 0 204 -64h16q-36 158 -120 258q-88 -48 -162 -102l-89 142q40 17 174 69q-74 65 -133 110l129 101q56 -29 161 -115q75 46 166 111l88 -145q-40 -17 -150 -69
q235 -249 235 -661zM808 494q0 130 -16 201q-97 61 -217 61q-115 0 -176.5 -93t-61.5 -212q0 -125 60 -213.5t168 -88.5q111 0 177 100t66 245z" />
    <glyph glyph-name="ntilde" unicode="&#xf1;" horiz-adv-x="1126" 
d="M1015 0h-266q22 253 22 512q0 157 -46.5 213t-141.5 56q-114 0 -216 -78q5 -390 5 -703h-269q18 313 18 492q0 239 -49 451l256 28l17 -106h16q137 118 315 118q154 0 246.5 -72.5t92.5 -267.5q0 -29 -2.5 -77.5t-2.5 -99.5q0 -135 5 -466zM960 1355q-112 -226 -256 -226
q-46 0 -121.5 23t-115.5 23q-91 0 -176 -107l-89 75q112 226 256 226q50 0 124 -23t113 -23q91 0 176 107z" />
    <glyph glyph-name="ograve" unicode="&#xf2;" horiz-adv-x="1144" 
d="M1075 497q0 -252 -155 -394t-365 -142q-200 0 -343 129.5t-143 364.5q0 253 156 396t366 143q199 0 341.5 -130.5t142.5 -366.5zM814 467q0 145 -68 243.5t-177 98.5q-106 0 -172.5 -92t-66.5 -230q0 -145 68 -243.5t177 -98.5q106 0 172.5 92t66.5 230zM702 1086h-175
q0 16 -138 164t-138 160h271q0 -11 90 -159.5t90 -164.5z" />
    <glyph glyph-name="oacute" unicode="&#xf3;" horiz-adv-x="1144" 
d="M1075 497q0 -252 -155 -394t-365 -142q-200 0 -343 129.5t-143 364.5q0 253 156 396t366 143q199 0 341.5 -130.5t142.5 -366.5zM814 467q0 145 -68 243.5t-177 98.5q-106 0 -172.5 -92t-66.5 -230q0 -145 68 -243.5t177 -98.5q106 0 172.5 92t66.5 230zM925 1410
q0 -12 -138 -160t-138 -164h-175q0 16 90 164.5t90 159.5h271z" />
    <glyph glyph-name="ocircumflex" unicode="&#xf4;" horiz-adv-x="1144" 
d="M1075 497q0 -252 -155 -394t-365 -142q-200 0 -343 129.5t-143 364.5q0 253 156 396t366 143q199 0 341.5 -130.5t142.5 -366.5zM814 467q0 145 -68 243.5t-177 98.5q-106 0 -172.5 -92t-66.5 -230q0 -145 68 -243.5t177 -98.5q106 0 172.5 92t66.5 230zM911 1086h-155
q0 16 -166 194q-166 -178 -166 -194h-155q0 16 95 164.5t95 159.5h262q0 -11 95 -159.5t95 -164.5z" />
    <glyph glyph-name="otilde" unicode="&#xf5;" horiz-adv-x="1144" 
d="M1075 497q0 -252 -155 -394t-365 -142q-200 0 -343 129.5t-143 364.5q0 253 156 396t366 143q199 0 341.5 -130.5t142.5 -366.5zM814 467q0 145 -68 243.5t-177 98.5q-106 0 -172.5 -92t-66.5 -230q0 -145 68 -243.5t177 -98.5q106 0 172.5 92t66.5 230zM1000 1355
q-112 -226 -256 -226q-46 0 -121.5 23t-115.5 23q-91 0 -176 -107l-89 75q112 226 256 226q50 0 124 -23t113 -23q91 0 176 107z" />
    <glyph glyph-name="odieresis" unicode="&#xf6;" horiz-adv-x="1144" 
d="M1075 497q0 -252 -155 -394t-365 -142q-200 0 -343 129.5t-143 364.5q0 253 156 396t366 143q199 0 341.5 -130.5t142.5 -366.5zM814 467q0 145 -68 243.5t-177 98.5q-106 0 -172.5 -92t-66.5 -230q0 -145 68 -243.5t177 -98.5q106 0 172.5 92t66.5 230zM933 1251
q0 -58 -39.5 -101.5t-110.5 -43.5q-60 0 -93.5 37.5t-33.5 90.5q0 57 40.5 100t111.5 43q60 0 92.5 -37t32.5 -89zM538 1251q0 -58 -39.5 -101.5t-110.5 -43.5q-59 0 -92.5 37.5t-33.5 90.5q0 58 40 100.5t111 42.5q60 0 92.5 -37t32.5 -89z" />
    <glyph glyph-name="divide" unicode="&#xf7;" 
d="M921 409h-810v180h810v-180zM652 173q0 -58 -37 -99q-42 -46 -113 -46q-60 0 -95 39q-32 36 -32 89q0 57 38 98q43 45 114 45q60 0 94 -39q31 -35 31 -87zM658 844q0 -58 -37 -99q-42 -46 -113 -46q-60 0 -95 39q-32 36 -32 89q0 57 38 98q43 45 114 45q60 0 94 -39
q31 -35 31 -87z" />
    <glyph glyph-name="oslash" unicode="&#xf8;" horiz-adv-x="1144" 
d="M1100 981q0 -37 -117 -174q92 -125 92 -310q0 -253 -155 -394.5t-365 -141.5q-161 0 -284 84q-118 -132 -118 -159l-111 42q0 35 142 193q-115 132 -115 334q0 253 156 396t366 143q182 0 313 -106q84 101 84 130zM745 711q-69 98 -176 98q-106 0 -172.5 -92t-66.5 -230
q0 -98 33 -176zM814 467q0 70 -20 132q-128 -133 -370 -387q64 -67 151 -67q106 0 172.5 92t66.5 230z" />
    <glyph glyph-name="ugrave" unicode="&#xf9;" horiz-adv-x="1107" 
d="M1005 1l-234 -8q-16 54 -16 86h-16q-131 -108 -306 -108q-165 0 -248.5 86.5t-83.5 345.5q0 31 1.5 87t1.5 98q0 111 -19 354l279 10q-16 -192 -16 -364q0 -245 36.5 -330t143.5 -85q117 0 202 56q0 526 -12 714l270 9q-10 -189 -10 -490q0 -223 27 -461zM672 1086h-175
q0 16 -138 164t-138 160h271q0 -11 90 -159.5t90 -164.5z" />
    <glyph glyph-name="uacute" unicode="&#xfa;" horiz-adv-x="1107" 
d="M1005 1l-234 -8q-16 54 -16 86h-16q-131 -108 -306 -108q-165 0 -248.5 86.5t-83.5 345.5q0 31 1.5 87t1.5 98q0 111 -19 354l279 10q-16 -192 -16 -364q0 -245 36.5 -330t143.5 -85q117 0 202 56q0 526 -12 714l270 9q-10 -189 -10 -490q0 -223 27 -461zM885 1410
q0 -12 -138 -160t-138 -164h-175q0 16 90 164.5t90 159.5h271z" />
    <glyph glyph-name="ucircumflex" unicode="&#xfb;" horiz-adv-x="1107" 
d="M1005 1l-234 -8q-16 54 -16 86h-16q-131 -108 -306 -108q-165 0 -248.5 86.5t-83.5 345.5q0 31 1.5 87t1.5 98q0 111 -19 354l279 10q-16 -192 -16 -364q0 -245 36.5 -330t143.5 -85q117 0 202 56q0 526 -12 714l270 9q-10 -189 -10 -490q0 -223 27 -461zM886 1086h-155
q0 16 -166 194q-166 -178 -166 -194h-155q0 16 95 164.5t95 159.5h262q0 -11 95 -159.5t95 -164.5z" />
    <glyph glyph-name="udieresis" unicode="&#xfc;" horiz-adv-x="1107" 
d="M1005 1l-234 -8q-16 54 -16 86h-16q-131 -108 -306 -108q-165 0 -248.5 86.5t-83.5 345.5q0 31 1.5 87t1.5 98q0 111 -19 354l279 10q-16 -192 -16 -364q0 -245 36.5 -330t143.5 -85q117 0 202 56q0 526 -12 714l270 9q-10 -189 -10 -490q0 -223 27 -461zM893 1251
q0 -58 -39.5 -101.5t-110.5 -43.5q-60 0 -93.5 37.5t-33.5 90.5q0 57 40.5 100t111.5 43q60 0 92.5 -37t32.5 -89zM498 1251q0 -58 -39.5 -101.5t-110.5 -43.5q-59 0 -92.5 37.5t-33.5 90.5q0 58 40 100.5t111 42.5q60 0 92.5 -37t32.5 -89z" />
    <glyph glyph-name="yacute" unicode="&#xfd;" horiz-adv-x="1002" 
d="M968 950q0 -65 -143 -412q-163 -399 -201 -544q-65 -250 -175 -345q-106 -92 -318 -92l-20 193q124 0 204 70.5t80 188.5q0 119 -180 520.5t-180 420.5h309q0 -35 91 -339t91 -372h14q0 58 82.5 342.5t82.5 368.5h263zM875 1410q0 -12 -138 -160t-138 -164h-175
q0 16 90 164.5t90 159.5h271z" />
    <glyph glyph-name="thorn" unicode="&#xfe;" horiz-adv-x="1136" 
d="M1067 516q0 -217 -124.5 -381t-341.5 -164q-155 0 -222 63h-14q0 -236 13 -491h-282q24 506 24 1159q0 395 -33 704l287 16q-10 -233 -10 -527h12q106 89 284 89q191 0 299 -137.5t108 -330.5zM801 490q0 125 -64 216.5t-175 91.5q-138 0 -202 -81q0 -342 6 -515
q62 -49 162 -49q134 0 203.5 99.5t69.5 237.5z" />
    <glyph glyph-name="ydieresis" unicode="&#xff;" horiz-adv-x="1002" 
d="M968 950q0 -65 -143 -412q-163 -399 -201 -544q-65 -250 -175 -345q-106 -92 -318 -92l-20 193q124 0 204 70.5t80 188.5q0 119 -180 520.5t-180 420.5h309q0 -35 91 -339t91 -372h14q0 58 82.5 342.5t82.5 368.5h263zM873 1251q0 -58 -39.5 -101.5t-110.5 -43.5
q-60 0 -93.5 37.5t-33.5 90.5q0 57 40.5 100t111.5 43q60 0 92.5 -37t32.5 -89zM478 1251q0 -58 -39.5 -101.5t-110.5 -43.5q-59 0 -92.5 37.5t-33.5 90.5q0 58 40 100.5t111 42.5q60 0 92.5 -37t32.5 -89z" />
    <glyph glyph-name="Amacron" unicode="&#x100;" horiz-adv-x="1290" 
d="M1279 0h-320q0 66 -91 374h-462q-94 -303 -94 -374h-301q0 39 233.5 640t233.5 662h378q0 -57 211.5 -652.5t211.5 -649.5zM817 565q-171 516 -171 558h-16q0 -39 -177 -558h364zM920 1621l-12 -174h-504l11 174h505z" />
    <glyph glyph-name="amacron" unicode="&#x101;" horiz-adv-x="1006" 
d="M925 1l-236 -8q-16 42 -16 76h-13q-110 -94 -297 -94q-125 0 -207.5 69.5t-82.5 184.5q0 152 128.5 249t450.5 103q2 18 2 34q0 108 -52 142.5t-191 34.5q-151 0 -295 -40l22 184q136 47 384 47q181 0 279.5 -76t98.5 -266q0 -42 -3.5 -153t-3.5 -148q0 -207 32 -339z
M658 209q-6 135 -6 233q-341 0 -341 -173q0 -119 150 -119q118 0 197 59zM751 1335l-12 -174h-484l11 174h485z" />
    <glyph glyph-name="Abreve" unicode="&#x102;" horiz-adv-x="1290" 
d="M1279 0h-320q0 66 -91 374h-462q-94 -303 -94 -374h-301q0 39 233.5 640t233.5 662h378q0 -57 211.5 -652.5t211.5 -649.5zM817 565q-171 516 -171 558h-16q0 -39 -177 -558h364zM981 1630q-94 -251 -327 -251q-246 0 -329 251l132 60q72 -147 196 -147q120 0 196 147z
" />
    <glyph glyph-name="abreve" unicode="&#x103;" horiz-adv-x="1006" 
d="M925 1l-236 -8q-16 42 -16 76h-13q-110 -94 -297 -94q-125 0 -207.5 69.5t-82.5 184.5q0 152 128.5 249t450.5 103q2 18 2 34q0 108 -52 142.5t-191 34.5q-151 0 -295 -40l22 184q136 47 384 47q181 0 279.5 -76t98.5 -266q0 -42 -3.5 -153t-3.5 -148q0 -207 32 -339z
M658 209q-6 135 -6 233q-341 0 -341 -173q0 -119 150 -119q118 0 197 59zM842 1360q-94 -286 -327 -286q-246 0 -329 286l132 60q92 -182 196 -182q100 0 196 182z" />
    <glyph glyph-name="Aogonek" unicode="&#x104;" horiz-adv-x="1290" 
d="M1279 0q-280 -31 -280 -202q0 -127 119 -127q31 0 79 10l28 -149q-62 -18 -139 -18q-143 0 -207 57q-67 61 -67 159q0 164 147 270q0 66 -91 374h-462q-94 -303 -94 -374h-301q0 39 233.5 640t233.5 662h378q0 -57 211.5 -652.5t211.5 -649.5zM817 565q-171 516 -171 558
h-16q0 -39 -177 -558h364z" />
    <glyph glyph-name="aogonek" unicode="&#x105;" horiz-adv-x="1006" 
d="M925 0q-208 -31 -208 -202q0 -127 119 -127q31 0 79 10l28 -149q-62 -18 -139 -18q-143 0 -208.5 59t-65.5 157q0 164 159 264q-16 41 -16 75h-13q-110 -94 -297 -94q-125 0 -207.5 69.5t-82.5 184.5q0 152 128.5 249t450.5 103q2 18 2 34q0 108 -52 142.5t-191 34.5
q-151 0 -295 -40l22 184q136 47 384 47q181 0 279.5 -76t98.5 -266q0 -42 -3.5 -153t-3.5 -148q0 -207 32 -340zM658 209q-6 135 -6 233q-341 0 -341 -173q0 -119 150 -119q118 0 197 59z" />
    <glyph glyph-name="Cacute" unicode="&#x106;" horiz-adv-x="1131" 
d="M1076 237l-17 -230q-142 -34 -280 -34q-343 0 -522.5 189.5t-179.5 460.5q0 281 190.5 489t522.5 208q122 0 231 -28l-35 -231q-118 38 -226 38q-203 0 -302 -128.5t-99 -312.5q0 -188 117.5 -326t329.5 -138q124 0 270 43zM1125 1690q0 -12 -133 -135t-143 -139h-175
q0 16 80 139.5t80 134.5h291z" />
    <glyph glyph-name="cacute" unicode="&#x107;" horiz-adv-x="912" 
d="M868 210l-17 -191q-91 -48 -247 -48q-258 0 -396.5 144t-138.5 346q0 210 145 366.5t397 156.5q123 0 219 -28l-34 -204q-92 38 -206 38q-121 0 -191 -85.5t-70 -210.5q0 -136 83 -230t235 -94q89 0 221 40zM919 1410q0 -12 -138 -160t-138 -164h-175q0 16 90 164.5
t90 159.5h271z" />
    <glyph glyph-name="Ccircumflex" unicode="&#x108;" horiz-adv-x="1131" 
d="M1076 237l-17 -230q-142 -34 -280 -34q-343 0 -522.5 189.5t-179.5 460.5q0 281 190.5 489t522.5 208q122 0 231 -28l-35 -231q-118 38 -226 38q-203 0 -302 -128.5t-99 -312.5q0 -188 117.5 -326t329.5 -138q124 0 270 43zM1055 1416h-155q-10 16 -166 134
q-156 -118 -166 -134h-155q0 16 100 139.5t100 134.5h242q0 -11 100 -134.5t100 -139.5z" />
    <glyph glyph-name="ccircumflex" unicode="&#x109;" horiz-adv-x="912" 
d="M868 210l-17 -191q-91 -48 -247 -48q-258 0 -396.5 144t-138.5 346q0 210 145 366.5t397 156.5q123 0 219 -28l-34 -204q-92 38 -206 38q-121 0 -191 -85.5t-70 -210.5q0 -136 83 -230t235 -94q89 0 221 40zM863 1086h-155q0 16 -166 194q-166 -178 -166 -194h-155
q0 16 95 164.5t95 159.5h262q0 -11 95 -159.5t95 -164.5z" />
    <glyph glyph-name="Cdotaccent" unicode="&#x10a;" horiz-adv-x="1131" 
d="M1076 237l-17 -230q-142 -34 -280 -34q-343 0 -522.5 189.5t-179.5 460.5q0 281 190.5 489t522.5 208q122 0 231 -28l-35 -231q-118 38 -226 38q-203 0 -302 -128.5t-99 -312.5q0 -188 117.5 -326t329.5 -138q124 0 270 43zM914 1566q0 -68 -46.5 -119t-129.5 -51
q-70 0 -109.5 44t-39.5 106q0 68 46.5 118t130.5 50q71 0 109.5 -43.5t38.5 -104.5z" />
    <glyph glyph-name="cdotaccent" unicode="&#x10b;" horiz-adv-x="912" 
d="M868 210l-17 -191q-91 -48 -247 -48q-258 0 -396.5 144t-138.5 346q0 210 145 366.5t397 156.5q123 0 219 -28l-34 -204q-92 38 -206 38q-121 0 -191 -85.5t-70 -210.5q0 -136 83 -230t235 -94q89 0 221 40zM752 1252q0 -68 -46.5 -119t-129.5 -51q-70 0 -109.5 44
t-39.5 106q0 68 46.5 118t130.5 50q71 0 109.5 -43.5t38.5 -104.5z" />
    <glyph glyph-name="Ccaron" unicode="&#x10c;" horiz-adv-x="1131" 
d="M1076 237l-17 -230q-142 -34 -280 -34q-343 0 -522.5 189.5t-179.5 460.5q0 281 190.5 489t522.5 208q122 0 231 -28l-35 -231q-118 38 -226 38q-203 0 -302 -128.5t-99 -312.5q0 -188 117.5 -326t329.5 -138q124 0 270 43zM1075 1690q0 -16 -100 -139.5t-100 -134.5
h-242q0 11 -100 134.5t-100 139.5h155q10 -16 166 -134q156 118 166 134h155z" />
    <glyph glyph-name="ccaron" unicode="&#x10d;" horiz-adv-x="912" 
d="M868 210l-17 -191q-91 -48 -247 -48q-258 0 -396.5 144t-138.5 346q0 210 145 366.5t397 156.5q123 0 219 -28l-34 -204q-92 38 -206 38q-121 0 -191 -85.5t-70 -210.5q0 -136 83 -230t235 -94q89 0 221 40zM902 1410q0 -16 -95 -164.5t-95 -159.5h-262q0 11 -95 159.5
t-95 164.5h155q0 -16 166 -194q166 178 166 194h155z" />
    <glyph glyph-name="Dcaron" unicode="&#x10e;" horiz-adv-x="1321" 
d="M1244 696q0 -284 -182 -496t-510 -212q-148 0 -408 12q13 302 13 681q0 364 -13 621h175q43 0 128 3t111 3q361 0 523.5 -180t162.5 -432zM971 653q0 192 -112 323.5t-342 131.5q-43 0 -118 -9q10 -200 10 -418q0 -239 10 -474q65 -13 130 -13q215 0 318.5 133.5
t103.5 325.5zM973 1690q0 -16 -100 -139.5t-100 -134.5h-242q0 11 -100 134.5t-100 139.5h155q10 -16 166 -134q156 118 166 134h155z" />
    <glyph glyph-name="dcaron" unicode="&#x10f;" horiz-adv-x="1342" 
d="M1027 1l-237 -8q-7 35 -7 73h-15q-110 -95 -281 -95q-192 0 -305 139t-113 330q0 219 123 381.5t342 162.5q142 0 213 -53h14q0 236 -23 475l283 8q-16 -233 -16 -670q0 -443 22 -743zM776 228q0 319 -15 528q-69 48 -165 48q-132 0 -196 -98t-64 -240q0 -126 62 -217.5
t172 -91.5q147 0 206 71zM1384 1177q0 -222 -204 -351l-66 55q54 89 54 174q-80 39 -80 120q0 62 43 107.5t119 45.5q63 0 98.5 -46t35.5 -105z" />
    <glyph glyph-name="Dcroat" unicode="&#x110;" horiz-adv-x="1321" 
d="M1244 696q0 -282 -181 -495t-502 -213q-157 0 -417 12q13 248 13 582q-56 -4 -146 -14l9 179q80 -1 137 -1q0 307 -13 556h175q44 0 130 3t129 3q335 0 500.5 -176t165.5 -436zM971 653q0 189 -115 322t-339 133q-51 0 -118 -8q12 -139 11 -347q99 5 329 26l-9 -176
q-70 0 -320 -7q0 -224 9 -389q65 -13 135 -13q210 0 313.5 133.5t103.5 325.5z" />
    <glyph glyph-name="dcroat" unicode="&#x111;" horiz-adv-x="1136" 
d="M1133 1238l-9 -142h-116q-3 -156 -3 -352q0 -443 22 -743l-237 -10q-7 37 -7 76l-15 -1q-110 -95 -281 -95q-192 0 -305 131.5t-113 322.5q0 202 124 365.5t341 163.5q142 0 213 -53h14q0 82 -3 195h-250l6 142h237q-5 84 -13 161l283 15q-6 -77 -9 -176h121zM776 228
q0 319 -15 498q-69 48 -165 48q-133 0 -196.5 -98.5t-63.5 -224.5t62 -210t172 -84q147 0 206 71z" />
    <glyph glyph-name="Emacron" unicode="&#x112;" horiz-adv-x="1080" 
d="M1003 220l-8 -220h-851q13 302 13 681q0 364 -13 621h812l-11 -219q-300 16 -544 16q10 -139 10 -328q209 0 447 11v-209q-234 10 -447 10q0 -203 8 -380q274 0 584 17zM841 1621l-12 -174h-504l11 174h505z" />
    <glyph glyph-name="emacron" unicode="&#x113;" horiz-adv-x="1049" 
d="M980 577q0 -51 -6 -133l-644 -11q14 -113 97 -188t218 -75q150 0 319 45l-20 -194q-138 -50 -342 -50q-258 0 -395.5 145t-137.5 349q0 213 130.5 369.5t362.5 156.5q212 0 315 -115t103 -299zM746 586q0 230 -196 230q-187 0 -222 -238zM823 1335l-12 -174h-484l11 174
h485z" />
    <glyph glyph-name="Ebreve" unicode="&#x114;" horiz-adv-x="1080" 
d="M1003 220l-8 -220h-851q13 302 13 681q0 364 -13 621h812l-11 -219q-300 16 -544 16q10 -139 10 -328q209 0 447 11v-209q-234 10 -447 10q0 -203 8 -380q274 0 584 17zM921 1630q-94 -251 -327 -251q-246 0 -329 251l132 60q72 -147 196 -147q120 0 196 147z" />
    <glyph glyph-name="ebreve" unicode="&#x115;" horiz-adv-x="1049" 
d="M980 577q0 -51 -6 -133l-644 -11q14 -113 97 -188t218 -75q150 0 319 45l-20 -194q-138 -50 -342 -50q-258 0 -395.5 145t-137.5 349q0 213 130.5 369.5t362.5 156.5q212 0 315 -115t103 -299zM746 586q0 230 -196 230q-187 0 -222 -238zM904 1360q-94 -286 -327 -286
q-246 0 -329 286l132 60q92 -182 196 -182q100 0 196 182z" />
    <glyph glyph-name="Edotaccent" unicode="&#x116;" horiz-adv-x="1080" 
d="M1003 220l-8 -220h-851q13 302 13 681q0 364 -13 621h812l-11 -219q-300 16 -544 16q10 -139 10 -328q209 0 447 11v-209q-234 10 -447 10q0 -203 8 -380q274 0 584 17zM754 1566q0 -68 -46.5 -119t-129.5 -51q-70 0 -109.5 44t-39.5 106q0 68 46.5 118t130.5 50
q71 0 109.5 -43.5t38.5 -104.5z" />
    <glyph glyph-name="edotaccent" unicode="&#x117;" horiz-adv-x="1049" 
d="M980 577q0 -51 -6 -133l-644 -11q14 -113 97 -188t218 -75q150 0 319 45l-20 -194q-138 -50 -342 -50q-258 0 -395.5 145t-137.5 349q0 213 130.5 369.5t362.5 156.5q212 0 315 -115t103 -299zM746 586q0 230 -196 230q-187 0 -222 -238zM733 1252q0 -68 -46.5 -119
t-129.5 -51q-70 0 -109.5 44t-39.5 106q0 68 46.5 118t130.5 50q71 0 109.5 -43.5t38.5 -104.5z" />
    <glyph glyph-name="Eogonek" unicode="&#x118;" horiz-adv-x="1080" 
d="M983 -468q-62 -18 -139 -18q-143 0 -208.5 59t-65.5 157q0 164 167 260v10h-593q13 302 13 681q0 364 -13 621h810l-9 -219q-300 16 -544 16q10 -139 10 -328q209 0 447 11v-209q-234 10 -447 10q0 -203 8 -380q274 0 584 17l-8 -220q-238 -41 -238 -202q0 -127 119 -127
q31 0 79 10z" />
    <glyph glyph-name="eogonek" unicode="&#x119;" horiz-adv-x="1049" 
d="M980 577q0 -51 -6 -133l-644 -11q14 -113 97 -188t218 -75q150 0 319 45l-20 -194q-212 -78 -212 -223q0 -127 119 -127q31 0 79 10l28 -149q-62 -18 -139 -18q-143 0 -208.5 59t-65.5 157q0 164 144 234v10q-42 -3 -87 -3q-258 0 -395.5 145t-137.5 349
q0 213 130.5 369.5t362.5 156.5q212 0 315 -115t103 -299zM746 586q0 230 -196 230q-187 0 -222 -238z" />
    <glyph glyph-name="Ecaron" unicode="&#x11a;" horiz-adv-x="1080" 
d="M1003 220l-8 -220h-851q13 302 13 681q0 364 -13 621h812l-11 -219q-300 16 -544 16q10 -139 10 -328q209 0 447 11v-209q-234 10 -447 10q0 -203 8 -380q274 0 584 17zM918 1690q0 -16 -100 -139.5t-100 -134.5h-242q0 11 -100 134.5t-100 139.5h155q10 -16 166 -134
q156 118 166 134h155z" />
    <glyph glyph-name="ecaron" unicode="&#x11b;" horiz-adv-x="1049" 
d="M980 577q0 -51 -6 -133l-644 -11q14 -113 97 -188t218 -75q150 0 319 45l-20 -194q-138 -50 -342 -50q-258 0 -395.5 145t-137.5 349q0 213 130.5 369.5t362.5 156.5q212 0 315 -115t103 -299zM746 586q0 230 -196 230q-187 0 -222 -238zM906 1410q0 -16 -95 -164.5
t-95 -159.5h-262q0 11 -95 159.5t-95 164.5h155q0 -16 166 -194q166 178 166 194h155z" />
    <glyph glyph-name="Gcircumflex" unicode="&#x11c;" horiz-adv-x="1273" 
d="M1174 34q-238 -61 -398 -61q-344 0 -521.5 188.5t-177.5 457.5q0 283 193.5 492t536.5 209q161 0 284 -29l-33 -236q-157 41 -282 41q-211 0 -315 -129.5t-104 -316.5q0 -191 116.5 -333t321.5 -142q57 0 132 12q-15 111 -15 218q0 108 -21 243h283q-8 -154 -8 -310
q0 -113 8 -304zM1070 1416h-155q-10 16 -166 134q-156 -118 -166 -134h-155q0 16 100 139.5t100 134.5h242q0 -11 100 -134.5t100 -139.5z" />
    <glyph glyph-name="gcircumflex" unicode="&#x11d;" horiz-adv-x="1128" 
d="M1109 1088l-22 -186q-156 0 -195 -45v-13q59 -75 59 -168q0 -143 -105.5 -244t-314.5 -101q-102 0 -167 16q-53 -24 -53 -63q0 -61 63.5 -85.5t295.5 -24.5q401 0 401 -273q0 -192 -167 -305t-406 -113q-468 0 -468 294q0 91 52.5 154.5t121.5 77.5v15q-84 53 -84 162
q0 110 115 184v14q-162 81 -162 253q0 147 111.5 246t344.5 99q159 0 258 -60h14q29 189 194 189q65 0 114 -23zM824 -173q0 74 -56.5 107t-194.5 33q-112 0 -226 10q-88 -52 -88 -155q0 -192 256 -192q143 0 226 54t83 143zM706 650q0 90 -58 137t-133 47t-131.5 -45.5
t-56.5 -133.5q0 -89 58 -135t135 -46q73 0 129.5 44.5t56.5 131.5zM833 1086h-155q0 16 -166 194q-166 -178 -166 -194h-155q0 16 95 164.5t95 159.5h262q0 -11 95 -159.5t95 -164.5z" />
    <glyph glyph-name="Gbreve" unicode="&#x11e;" horiz-adv-x="1273" 
d="M1174 34q-238 -61 -398 -61q-344 0 -521.5 188.5t-177.5 457.5q0 283 193.5 492t536.5 209q161 0 284 -29l-33 -236q-157 41 -282 41q-211 0 -315 -129.5t-104 -316.5q0 -191 116.5 -333t321.5 -142q57 0 132 12q-15 111 -15 218q0 108 -21 243h283q-8 -154 -8 -310
q0 -113 8 -304zM1081 1630q-94 -251 -327 -251q-246 0 -329 251l132 60q72 -147 196 -147q120 0 196 147z" />
    <glyph glyph-name="gbreve" unicode="&#x11f;" horiz-adv-x="1128" 
d="M1109 1088l-22 -186q-156 0 -195 -45v-13q59 -75 59 -168q0 -143 -105.5 -244t-314.5 -101q-102 0 -167 16q-53 -24 -53 -63q0 -61 63.5 -85.5t295.5 -24.5q401 0 401 -273q0 -192 -167 -305t-406 -113q-468 0 -468 294q0 91 52.5 154.5t121.5 77.5v15q-84 53 -84 162
q0 110 115 184v14q-162 81 -162 253q0 147 111.5 246t344.5 99q159 0 258 -60h14q29 189 194 189q65 0 114 -23zM824 -173q0 74 -56.5 107t-194.5 33q-112 0 -226 10q-88 -52 -88 -155q0 -192 256 -192q143 0 226 54t83 143zM706 650q0 90 -58 137t-133 47t-131.5 -45.5
t-56.5 -133.5q0 -89 58 -135t135 -46q73 0 129.5 44.5t56.5 131.5zM867 1360q-94 -286 -327 -286q-246 0 -329 286l132 60q92 -182 196 -182q100 0 196 182z" />
    <glyph glyph-name="Gdotaccent" unicode="&#x120;" horiz-adv-x="1273" 
d="M1174 34q-238 -61 -398 -61q-344 0 -521.5 188.5t-177.5 457.5q0 283 193.5 492t536.5 209q161 0 284 -29l-33 -236q-157 41 -282 41q-211 0 -315 -129.5t-104 -316.5q0 -191 116.5 -333t321.5 -142q57 0 132 12q-15 111 -15 218q0 108 -21 243h283q-8 -154 -8 -310
q0 -113 8 -304zM921 1566q0 -68 -46.5 -119t-129.5 -51q-70 0 -109.5 44t-39.5 106q0 68 46.5 118t130.5 50q71 0 109.5 -43.5t38.5 -104.5z" />
    <glyph glyph-name="gdotaccent" unicode="&#x121;" horiz-adv-x="1128" 
d="M1109 1088l-22 -186q-156 0 -195 -45v-13q59 -75 59 -168q0 -143 -105.5 -244t-314.5 -101q-102 0 -167 16q-53 -24 -53 -63q0 -61 63.5 -85.5t295.5 -24.5q401 0 401 -273q0 -192 -167 -305t-406 -113q-468 0 -468 294q0 91 52.5 154.5t121.5 77.5v15q-84 53 -84 162
q0 110 115 184v14q-162 81 -162 253q0 147 111.5 246t344.5 99q159 0 258 -60h14q29 189 194 189q65 0 114 -23zM824 -173q0 74 -56.5 107t-194.5 33q-112 0 -226 10q-88 -52 -88 -155q0 -192 256 -192q143 0 226 54t83 143zM706 650q0 90 -58 137t-133 47t-131.5 -45.5
t-56.5 -133.5q0 -89 58 -135t135 -46q73 0 129.5 44.5t56.5 131.5zM699 1252q0 -68 -46.5 -119t-129.5 -51q-70 0 -109.5 44t-39.5 106q0 68 46.5 118t130.5 50q71 0 109.5 -43.5t38.5 -104.5z" />
    <glyph glyph-name="uni0122" unicode="&#x122;" horiz-adv-x="1273" 
d="M1174 34q-238 -61 -398 -61q-344 0 -521.5 188.5t-177.5 457.5q0 283 193.5 492t536.5 209q161 0 284 -29l-33 -236q-157 41 -282 41q-211 0 -315 -129.5t-104 -316.5q0 -191 116.5 -333t321.5 -142q57 0 132 12q-15 111 -15 218q0 108 -21 243h283q-8 -154 -8 -310
q0 -113 8 -304zM837 -210q0 -188 -200 -314l-64 54q58 75 58 156q-64 38 -64 102q0 61 37 100.5t102 39.5q61 0 96 -40t35 -98z" />
    <glyph glyph-name="uni0123" unicode="&#x123;" horiz-adv-x="1128" 
d="M1109 1088l-22 -186q-156 0 -195 -45v-13q59 -75 59 -168q0 -143 -105.5 -244t-314.5 -101q-102 0 -167 16q-53 -24 -53 -63q0 -61 63.5 -85.5t295.5 -24.5q401 0 401 -273q0 -192 -167 -305t-406 -113q-468 0 -468 294q0 91 52.5 154.5t121.5 77.5v15q-84 53 -84 162
q0 110 115 184v14q-162 81 -162 253q0 147 111.5 246t344.5 99q159 0 258 -60h14q29 189 194 189q65 0 114 -23zM824 -173q0 74 -56.5 107t-194.5 33q-112 0 -226 10q-88 -52 -88 -155q0 -192 256 -192q143 0 226 54t83 143zM706 650q0 90 -58 137t-133 47t-131.5 -45.5
t-56.5 -133.5q0 -89 58 -135t135 -46q73 0 129.5 44.5t56.5 131.5zM692 1235q0 -62 -43 -107.5t-119 -45.5q-63 0 -98.5 46t-35.5 105q0 222 204 351l64 -54q-49 -66 -49 -159q77 -50 77 -136z" />
    <glyph glyph-name="Hcircumflex" unicode="&#x124;" horiz-adv-x="1338" 
d="M1194 0h-283q10 331 10 574h-504q0 -218 10 -574h-283q13 330 13 681q0 355 -13 621h283q-12 -281 -12 -520h508q0 211 -12 520h283q-14 -254 -14 -621q0 -383 14 -681zM983 1416h-155q-10 16 -166 134q-156 -118 -166 -134h-155q0 16 100 139.5t100 134.5h242
q0 -11 100 -134.5t100 -139.5z" />
    <glyph glyph-name="hcircumflex" unicode="&#x125;" horiz-adv-x="1126" 
d="M1015 0h-266q22 253 22 492q0 178 -45 233.5t-148 55.5q-109 0 -214 -73q0 -425 10 -708h-266q11 310 11 743q0 399 -31 663l283 16q-15 -322 -15 -560h13q132 121 302 121q161 0 252.5 -73t91.5 -257q0 -19 -2.5 -77.5t-2.5 -77.5q0 -167 5 -498zM551 1416h-155
q-10 16 -166 134q-156 -118 -166 -134h-155q0 16 100 139.5t100 134.5h242q0 -11 100 -134.5t100 -139.5z" />
    <glyph glyph-name="Hbar" unicode="&#x126;" horiz-adv-x="1338" 
d="M1278 1084l-10 -148h-87q-1 -120 -1 -255q0 -383 14 -681h-283q10 331 10 574h-504q0 -218 10 -574h-283q13 330 13 681q0 134 -2 255h-96l10 148h83q-3 115 -8 218h283q-5 -113 -8 -218h499q-3 102 -7 218h283q-6 -100 -9 -218h93zM923 782q0 71 -2 154h-505
q-1 -79 -1 -154h508z" />
    <glyph glyph-name="hbar" unicode="&#x127;" horiz-adv-x="1126" 
d="M1015 0h-266q22 253 22 492q0 152 -53 212q-42 47 -140 47q-109 0 -214 -73q0 -395 10 -678h-266q11 310 11 743q0 192 -7 353h-106l6 142h91q-6 90 -15 168l283 16q-5 -97 -8 -184h307l-6 -142h-305q-3 -126 -3 -264h13q134 121 292 121q169 0 254 -66q100 -79 100 -264
q0 -19 -2.5 -67.5t-2.5 -77.5q0 -147 5 -478z" />
    <glyph glyph-name="Itilde" unicode="&#x128;" horiz-adv-x="571" 
d="M427 0h-283q13 310 13 681q0 365 -13 621h283q-13 -252 -13 -621q0 -377 13 -681zM662 1625q-112 -196 -256 -196q-46 0 -121.5 23t-115.5 23q-91 0 -176 -67l-89 75q112 186 256 186q50 0 124 -23t113 -23q91 0 176 77z" />
    <glyph glyph-name="itilde" unicode="&#x129;" horiz-adv-x="510" 
d="M395 0h-269q14 207 14 475q0 266 -34 466l288 29q-13 -194 -13 -495q0 -257 14 -475zM648 1355q-112 -226 -256 -226q-46 0 -121.5 23t-115.5 23q-91 0 -176 -107l-89 75q112 226 256 226q50 0 124 -23t113 -23q91 0 176 107z" />
    <glyph glyph-name="Imacron" unicode="&#x12a;" horiz-adv-x="571" 
d="M427 0h-283q13 310 13 681q0 365 -13 621h283q-13 -252 -13 -621q0 -377 13 -681zM544 1621l-12 -174h-504l11 174h505z" />
    <glyph glyph-name="imacron" unicode="&#x12b;" horiz-adv-x="510" 
d="M395 0h-269q14 207 14 475q0 266 -34 466l288 29q-13 -194 -13 -495q0 -257 14 -475zM506 1335l-12 -174h-484l11 174h485z" />
    <glyph glyph-name="Ibreve" unicode="&#x12c;" horiz-adv-x="571" 
d="M427 0h-283q13 310 13 681q0 365 -13 621h283q-13 -252 -13 -621q0 -377 13 -681zM614 1630q-94 -251 -327 -251q-246 0 -329 251l132 60q72 -147 196 -147q120 0 196 147z" />
    <glyph glyph-name="ibreve" unicode="&#x12d;" horiz-adv-x="510" 
d="M395 0h-269q14 207 14 475q0 266 -34 466l288 29q-13 -194 -13 -495q0 -257 14 -475zM593 1360q-94 -286 -327 -286q-246 0 -329 286l132 60q92 -182 196 -182q100 0 196 182z" />
    <glyph glyph-name="Iogonek" unicode="&#x12e;" horiz-adv-x="571" 
d="M430 -468q-62 -18 -139 -18q-143 0 -208.5 59t-65.5 157q0 164 127 270q13 310 13 681q0 365 -13 621h283q-13 -252 -13 -621q0 -377 13 -681q-223 -31 -223 -202q0 -127 119 -127q31 0 79 10z" />
    <glyph glyph-name="iogonek" unicode="&#x12f;" horiz-adv-x="510" 
d="M412 -468q-62 -18 -139 -18q-143 0 -207 57q-67 61 -67 159q0 164 127 270q14 207 14 475q0 266 -34 466l288 29q-13 -194 -13 -495q0 -257 14 -475h-1q-208 -31 -208 -202q0 -127 119 -127q31 0 79 10zM441 1252q0 -68 -44 -116q-49 -54 -132 -54q-70 0 -112 46
q-37 42 -37 104q0 68 44 115q49 53 133 53q71 0 111 -45q37 -42 37 -103z" />
    <glyph glyph-name="Idotaccent" unicode="&#x130;" horiz-adv-x="571" 
d="M427 0h-283q13 310 13 681q0 365 -13 621h283q-13 -252 -13 -621q0 -377 13 -681zM462 1566q0 -68 -46.5 -119t-129.5 -51q-70 0 -109.5 44t-39.5 106q0 68 46.5 118t130.5 50q71 0 109.5 -43.5t38.5 -104.5z" />
    <glyph glyph-name="dotlessi" unicode="&#x131;" horiz-adv-x="510" 
d="M395 0h-269q14 207 14 475q0 266 -34 466l288 29q-13 -194 -13 -495q0 -257 14 -475z" />
    <glyph glyph-name="IJ" unicode="&#x132;" horiz-adv-x="1389" 
d="M427 0h-283q13 310 13 681q0 365 -13 621h283q-13 -252 -13 -621q0 -377 13 -681zM1267 1302q-12 -298 -12 -736q0 -333 -137 -473q-116 -120 -361 -120q-88 0 -175 21l18 215q67 -30 134 -30q131 0 190 57q85 82 85 310q0 457 -15 756h273z" />
    <glyph glyph-name="ij" unicode="&#x133;" horiz-adv-x="1020" 
d="M395 0h-269q14 207 14 475q0 266 -34 466l288 29q-13 -194 -13 -495q0 -257 14 -475zM441 1252q0 -68 -46.5 -119t-129.5 -51q-70 0 -109.5 44t-39.5 106q0 68 46.5 118t130.5 50q71 0 109.5 -43.5t38.5 -104.5zM904 971q-14 -303 -14 -602q0 -78 4 -214.5t4 -182.5
q0 -369 -295 -428l-73 140q71 57 96.5 167.5t25.5 465.5q0 403 -36 626zM948 1253q0 -68 -47 -119t-130 -51q-70 0 -109.5 44t-39.5 106q0 68 47 118t131 50q71 0 109.5 -43.5t38.5 -104.5z" />
    <glyph glyph-name="Jcircumflex" unicode="&#x134;" horiz-adv-x="796" 
d="M696 1302q-12 -298 -12 -736q0 -333 -137 -473q-116 -120 -361 -120q-88 0 -175 21l18 215q67 -30 134 -30q131 0 190 57q85 82 85 310q0 457 -15 756h273zM881 1416h-155q-10 16 -166 134q-156 -118 -166 -134h-155q0 16 100 139.5t100 134.5h242q0 -11 100 -134.5
t100 -139.5z" />
    <glyph glyph-name="jcircumflex" unicode="&#x135;" horiz-adv-x="510" 
d="M394 971q-14 -303 -14 -602q0 -78 4 -214.5t4 -182.5q0 -369 -295 -428l-73 140q71 57 93 152q29 126 29 481q0 403 -36 626zM584 1086h-155q0 16 -166 194q-166 -178 -166 -194h-155q0 16 95 164.5t95 159.5h262q0 -11 95 -159.5t95 -164.5z" />
    <glyph glyph-name="uni0136" unicode="&#x136;" horiz-adv-x="1207" 
d="M1196 0h-327q0 46 -169 317q-180 289 -255 289h-30q0 -228 11 -606h-282q13 302 13 681q0 364 -13 621h282q-11 -277 -11 -520h22q44 0 222 246q173 239 173 274h298q0 -33 -183 -249q-189 -223 -276 -284v-15q102 -53 321 -395q204 -318 204 -359zM783 -210
q0 -188 -200 -314l-64 54q58 75 58 156q-64 38 -64 102q0 61 37 100.5t102 39.5q61 0 96 -40t35 -98z" />
    <glyph glyph-name="uni0137" unicode="&#x137;" horiz-adv-x="1045" 
d="M1029 0h-306q0 37 -152 250.5t-194 213.5h-13q0 -205 12 -464h-265q12 467 12 743q0 382 -31 663l284 16q-14 -380 -14 -679q0 -38 1 -148h14q28 0 159 161.5t131 193.5h298q0 -31 -136 -173t-220 -196v-15q93 -65 256.5 -295.5t163.5 -270.5zM676 -210q0 -188 -200 -314
l-64 54q58 75 58 156q-64 38 -64 102q0 61 37 100.5t102 39.5q61 0 96 -40t35 -98z" />
    <glyph glyph-name="kgreenlandic" unicode="&#x138;" horiz-adv-x="1045" 
d="M1029 0h-306q0 37 -150 248q-154 216 -196 216h-10q0 -205 9 -464h-265q12 215 12 566q0 158 -31 379l284 16q-11 -157 -11 -366h12q28 0 159 161.5t131 193.5h298q0 -31 -136 -173t-220 -196v-15q93 -65 261 -302q159 -224 159 -264z" />
    <glyph glyph-name="Lacute" unicode="&#x139;" horiz-adv-x="994" 
d="M983 218l-8 -218h-831q12 271 12 681q0 376 -12 621h281q-12 -227 -12 -621q0 -301 -13 -478q276 0 583 15zM632 1690q0 -12 -133 -135t-143 -139h-175q0 16 80 139.5t80 134.5h291z" />
    <glyph glyph-name="lacute" unicode="&#x13a;" horiz-adv-x="528" 
d="M410 0h-273q15 343 15 743q0 390 -31 663l289 16q-15 -283 -15 -679q0 -402 15 -743zM583 1790q0 -12 -133 -135t-143 -139h-175q0 16 80 139.5t80 134.5h291z" />
    <glyph glyph-name="uni013B" unicode="&#x13b;" horiz-adv-x="994" 
d="M983 218l-8 -218h-831q12 271 12 681q0 376 -12 621h281q-12 -227 -12 -621q0 -301 -13 -478q276 0 583 15zM696 -210q0 -188 -200 -314l-64 54q58 75 58 156q-64 38 -64 102q0 61 37 100.5t102 39.5q61 0 96 -40t35 -98z" />
    <glyph glyph-name="uni013C" unicode="&#x13c;" horiz-adv-x="528" 
d="M410 0h-273q15 343 15 743q0 390 -31 663l289 16q-15 -283 -15 -679q0 -402 15 -743zM409 -210q0 -188 -200 -314l-64 54q58 75 58 156q-64 38 -64 102q0 61 37 100.5t102 39.5q61 0 96 -40t35 -98z" />
    <glyph glyph-name="Lcaron" unicode="&#x13d;" horiz-adv-x="994" 
d="M983 218l-8 -218h-831q12 271 12 681q0 376 -12 621h281q-12 -227 -12 -621q0 -301 -13 -478q276 0 583 15zM1018 1177q0 -222 -204 -351l-66 55q54 89 54 174q-80 39 -80 120q0 62 43 107.5t119 45.5q63 0 98.5 -46t35.5 -105z" />
    <glyph glyph-name="lcaron" unicode="&#x13e;" horiz-adv-x="730" 
d="M410 0h-273q15 343 15 743q0 390 -31 663l289 16q-15 -283 -15 -679q0 -402 15 -743zM772 1177q0 -222 -204 -351l-66 55q54 89 54 174q-80 39 -80 120q0 62 43 107.5t119 45.5q63 0 98.5 -46t35.5 -105z" />
    <glyph glyph-name="Ldot" unicode="&#x13f;" horiz-adv-x="994" 
d="M983 218l-8 -218h-831q12 271 12 681q0 376 -12 621h281q-12 -227 -12 -621q0 -301 -13 -478q276 0 583 15zM1000 713q0 -68 -46.5 -119t-129.5 -51q-70 0 -109.5 44t-39.5 106q0 68 46.5 118t130.5 50q71 0 109.5 -43.5t38.5 -104.5z" />
    <glyph glyph-name="ldot" unicode="&#x140;" horiz-adv-x="779" 
d="M410 0h-273q15 343 15 743q0 390 -31 663l289 16q-15 -283 -15 -679q0 -402 15 -743zM819 613q0 -68 -46.5 -119t-129.5 -51q-70 0 -109.5 44t-39.5 106q0 68 46.5 118t130.5 50q71 0 109.5 -43.5t38.5 -104.5z" />
    <glyph glyph-name="Lslash" unicode="&#x141;" horiz-adv-x="994" 
d="M983 218l-8 -218h-831q9 203 11 465l-97 -72l-82 128l180 114v46q0 376 -12 621h281q-10 -191 -12 -499l345 242l103 -136l-448 -273q-1 -264 -13 -433q276 0 583 15z" />
    <glyph glyph-name="lslash" unicode="&#x142;" horiz-adv-x="640" 
d="M716 934l-272 -202q0 -315 14 -732h-274q6 122 15 538l-123 -110l-80 95l204 162q0 510 -31 721l289 16q-7 -115 -15 -534l168 149z" />
    <glyph glyph-name="Nacute" unicode="&#x143;" horiz-adv-x="1361" 
d="M1217 0h-247q0 41 -275 433q-288 413 -328 565h-16q25 -219 25 -396q0 -247 14 -602h-246q15 310 15 681q0 365 -15 621h297q0 -53 247 -423q263 -393 302 -533h15q-24 223 -24 400q0 271 -14 556h250q-14 -248 -14 -621q0 -376 14 -681zM1000 1690q0 -12 -133 -135
t-143 -139h-175q0 16 80 139.5t80 134.5h291z" />
    <glyph glyph-name="nacute" unicode="&#x144;" horiz-adv-x="1126" 
d="M1015 0h-266q22 253 22 512q0 157 -46.5 213t-141.5 56q-114 0 -216 -78q5 -390 5 -703h-269q18 313 18 492q0 239 -49 451l256 28l17 -106h16q137 118 315 118q154 0 246.5 -72.5t92.5 -267.5q0 -29 -2.5 -77.5t-2.5 -99.5q0 -135 5 -466zM971 1410q0 -12 -138 -160
t-138 -164h-175q0 16 90 164.5t90 159.5h271z" />
    <glyph glyph-name="uni0145" unicode="&#x145;" horiz-adv-x="1361" 
d="M1217 0h-247q0 41 -275 433q-288 413 -328 565h-16q25 -219 25 -396q0 -247 14 -602h-246q15 310 15 681q0 365 -15 621h297q0 -53 247 -423q263 -393 302 -533h15q-24 223 -24 400q0 271 -14 556h250q-14 -248 -14 -621q0 -376 14 -681zM812 -210q0 -188 -200 -314
l-64 54q58 75 58 156q-64 38 -64 102q0 61 37 100.5t102 39.5q61 0 96 -40t35 -98z" />
    <glyph glyph-name="uni0146" unicode="&#x146;" horiz-adv-x="1126" 
d="M1015 0h-266q22 253 22 512q0 157 -46.5 213t-141.5 56q-114 0 -216 -78q5 -390 5 -703h-269q18 313 18 492q0 239 -49 451l256 28l17 -106h16q137 118 315 118q154 0 246.5 -72.5t92.5 -267.5q0 -29 -2.5 -77.5t-2.5 -99.5q0 -135 5 -466zM693 -210q0 -188 -200 -314
l-64 54q58 75 58 156q-64 38 -64 102q0 61 37 100.5t102 39.5q61 0 96 -40t35 -98z" />
    <glyph glyph-name="Ncaron" unicode="&#x147;" horiz-adv-x="1361" 
d="M1217 0h-247q0 41 -275 433q-288 413 -328 565h-16q25 -219 25 -396q0 -247 14 -602h-246q15 310 15 681q0 365 -15 621h297q0 -53 247 -423q263 -393 302 -533h15q-24 223 -24 400q0 271 -14 556h250q-14 -248 -14 -621q0 -376 14 -681zM1008 1690q0 -16 -100 -139.5
t-100 -134.5h-242q0 11 -100 134.5t-100 139.5h155q10 -16 166 -134q156 118 166 134h155z" />
    <glyph glyph-name="ncaron" unicode="&#x148;" horiz-adv-x="1126" 
d="M1015 0h-266q22 253 22 512q0 157 -46.5 213t-141.5 56q-114 0 -216 -78q5 -390 5 -703h-269q18 313 18 492q0 239 -49 451l256 28l17 -106h16q137 118 315 118q154 0 246.5 -72.5t92.5 -267.5q0 -29 -2.5 -77.5t-2.5 -99.5q0 -135 5 -466zM930 1410q0 -16 -95 -164.5
t-95 -159.5h-262q0 11 -95 159.5t-95 164.5h155q0 -16 166 -194q166 178 166 194h155z" />
    <glyph glyph-name="napostrophe" unicode="&#x149;" horiz-adv-x="1446" 
d="M1335 0h-266q22 253 22 512q0 157 -46.5 213t-141.5 56q-114 0 -216 -78q5 -390 5 -703h-269q18 313 18 492q0 239 -49 451l256 28l17 -106h16q137 118 315 118q154 0 246.5 -72.5t92.5 -267.5q0 -29 -2.5 -77.5t-2.5 -99.5q0 -135 5 -466zM414 1253q0 -262 -319 -555
l-89 76q136 151 136 329q-76 46 -76 147q0 73 50.5 126.5t140.5 53.5q74 0 115.5 -54t41.5 -123zM235 1087z" />
    <glyph glyph-name="Eng" unicode="&#x14a;" horiz-adv-x="1361" 
d="M1217 0q0 -211 -99 -308q-134 -130 -436 -135l-22 200q148 5 237.5 78.5t89.5 200.5q-64 76 -292 397q-288 413 -328 565h-16q25 -219 25 -396q0 -247 14 -602h-246q15 310 15 681q0 365 -15 621h297q0 -53 247 -423q263 -393 302 -533h15q-24 223 -24 400q0 271 -14 556
h250q-14 -248 -14 -621q0 -185 6.5 -361.5t7 -230t0.5 -89.5z" />
    <glyph glyph-name="eng" unicode="&#x14b;" horiz-adv-x="1126" 
d="M1015 0q0 -211 -116.5 -324.5t-418.5 -118.5l-22 200q148 5 219 68.5t82.5 245.5t11.5 441q0 162 -47.5 215.5t-145.5 53.5q-109 0 -211 -78q5 -390 5 -703h-269q18 313 18 492q0 239 -49 451l256 28l17 -106h16q140 118 300 118q169 0 261.5 -72.5t92.5 -257.5
q0 -19 -2.5 -94.5t-2.5 -139.5q0 -117 2.5 -220.5t2.5 -198.5z" />
    <glyph glyph-name="Omacron" unicode="&#x14c;" horiz-adv-x="1427" 
d="M1350 675q0 -307 -188 -509t-465 -202q-264 0 -442 185.5t-178 471.5q0 307 188 509t465 202q264 0 442 -185t178 -472zM1074 646q0 209 -107 339t-264 130q-146 0 -248 -131t-102 -331q0 -208 107.5 -338.5t263.5 -130.5q146 0 248 131.5t102 330.5zM973 1621l-12 -174
h-504l11 174h505z" />
    <glyph glyph-name="omacron" unicode="&#x14d;" horiz-adv-x="1144" 
d="M1075 497q0 -252 -155 -394t-365 -142q-200 0 -343 129.5t-143 364.5q0 253 156 396t366 143q199 0 341.5 -130.5t142.5 -366.5zM814 467q0 145 -68 243.5t-177 98.5q-106 0 -172.5 -92t-66.5 -230q0 -145 68 -243.5t177 -98.5q106 0 172.5 92t66.5 230zM847 1335
l-12 -174h-484l11 174h485z" />
    <glyph glyph-name="Obreve" unicode="&#x14e;" horiz-adv-x="1427" 
d="M1350 675q0 -307 -188 -509t-465 -202q-264 0 -442 185.5t-178 471.5q0 307 188 509t465 202q264 0 442 -185t178 -472zM1074 646q0 209 -107 339t-264 130q-146 0 -248 -131t-102 -331q0 -208 107.5 -338.5t263.5 -130.5q146 0 248 131.5t102 330.5zM1054 1630
q-94 -251 -327 -251q-246 0 -329 251l132 60q72 -147 196 -147q120 0 196 147z" />
    <glyph glyph-name="obreve" unicode="&#x14f;" horiz-adv-x="1144" 
d="M1075 497q0 -252 -155 -394t-365 -142q-200 0 -343 129.5t-143 364.5q0 253 156 396t366 143q199 0 341.5 -130.5t142.5 -366.5zM814 467q0 145 -68 243.5t-177 98.5q-106 0 -172.5 -92t-66.5 -230q0 -145 68 -243.5t177 -98.5q106 0 172.5 92t66.5 230zM919 1360
q-94 -286 -327 -286q-246 0 -329 286l132 60q92 -182 196 -182q100 0 196 182z" />
    <glyph glyph-name="Ohungarumlaut" unicode="&#x150;" horiz-adv-x="1427" 
d="M1350 675q0 -307 -188 -509t-465 -202q-264 0 -442 185.5t-178 471.5q0 307 188 509t465 202q264 0 442 -185t178 -472zM1074 646q0 209 -107 339t-264 130q-146 0 -248 -131t-102 -331q0 -208 107.5 -338.5t263.5 -130.5q146 0 248 131.5t102 330.5zM774 1690
q0 -22 -92 -140t-102 -134h-149q0 16 35 134.5t35 139.5h273zM1161 1690q0 -22 -92 -140t-102 -134h-149q0 16 35 134.5t35 139.5h273z" />
    <glyph glyph-name="ohungarumlaut" unicode="&#x151;" horiz-adv-x="1144" 
d="M1075 497q0 -252 -155 -394t-365 -142q-200 0 -343 129.5t-143 364.5q0 253 156 396t366 143q199 0 341.5 -130.5t142.5 -366.5zM814 467q0 145 -68 243.5t-177 98.5q-106 0 -172.5 -92t-66.5 -230q0 -145 68 -243.5t177 -98.5q106 0 172.5 92t66.5 230zM645 1410
q0 -22 -92 -165t-92 -159h-149q0 16 35 159.5t35 164.5h263zM1032 1410q0 -22 -92 -165t-92 -159h-149q0 16 35 159.5t35 164.5h263z" />
    <glyph glyph-name="OE" unicode="&#x152;" horiz-adv-x="1863" 
d="M1786 220l-9 -220h-834q-130 -35 -252 -35q-293 0 -453.5 196t-160.5 464q0 277 172.5 492t468.5 215q103 0 246 -30h774l-9 -219q-337 16 -556 16q10 -141 10 -328q178 0 459 8v-206q-247 10 -459 10q0 -193 10 -380q226 0 593 17zM930 681q0 231 -7 409q-98 25 -227 25
q-163 0 -251 -135t-88 -322q0 -190 95 -331.5t260 -141.5q131 0 210 31q8 194 8 465z" />
    <glyph glyph-name="oe" unicode="&#x153;" horiz-adv-x="1765" 
d="M1696 577q0 -51 -6 -133l-630 -11q14 -114 92.5 -188.5t212.5 -74.5q150 0 315 45l-20 -194q-134 -50 -338 -50q-257 0 -382 167h-15q-129 -177 -375 -177q-199 0 -340 129.5t-141 364.5q0 254 153.5 396.5t363.5 142.5q238 0 351 -164h16q102 161 329 161
q212 0 313 -114.5t101 -299.5zM810 467q0 145 -68.5 243.5t-177.5 98.5q-106 0 -170 -91.5t-64 -230.5q0 -146 66 -244t174 -98q106 0 173 92t67 230zM1462 586q0 230 -192 230q-188 0 -212 -238z" />
    <glyph glyph-name="Racute" unicode="&#x154;" horiz-adv-x="1187" 
d="M1166 0h-296q-116 354 -178 437t-200 83q-58 0 -111 -1q0 -257 9 -519h-278q13 302 13 681q0 364 -13 621h173q30 0 125.5 3t176.5 3q459 0 459 -314q0 -249 -262 -347v-15q101 -28 177 -157.5t205 -474.5zM791 920q0 199 -256 199q-94 0 -166 -14q11 -155 11 -404
q55 -2 93 -2q318 0 318 221zM897 1690q0 -12 -133 -135t-143 -139h-175q0 16 80 139.5t80 134.5h291z" />
    <glyph glyph-name="racute" unicode="&#x155;" horiz-adv-x="789" 
d="M771 950l-58 -234q-74 30 -150 30q-147 0 -194 -132q0 -399 6 -614h-266q17 301 17 492q0 238 -50 451l255 28q17 -110 17 -129h16q92 141 245 141q72 0 162 -33zM788 1410q0 -12 -138 -160t-138 -164h-175q0 16 90 164.5t90 159.5h271z" />
    <glyph glyph-name="uni0156" unicode="&#x156;" horiz-adv-x="1187" 
d="M1166 0h-296q-116 354 -178 437t-200 83q-58 0 -111 -1q0 -257 9 -519h-278q13 302 13 681q0 364 -13 621h173q30 0 125.5 3t176.5 3q459 0 459 -314q0 -249 -262 -347v-15q101 -28 177 -157.5t205 -474.5zM791 920q0 199 -256 199q-94 0 -166 -14q11 -155 11 -404
q55 -2 93 -2q318 0 318 221zM749 -210q0 -188 -200 -314l-64 54q58 75 58 156q-64 38 -64 102q0 61 37 100.5t102 39.5q61 0 96 -40t35 -98z" />
    <glyph glyph-name="uni0157" unicode="&#x157;" horiz-adv-x="789" 
d="M771 950l-58 -234q-74 30 -150 30q-147 0 -194 -132q0 -399 6 -614h-266q17 301 17 492q0 238 -50 451l255 28q17 -110 17 -129h16q92 141 245 141q72 0 162 -33zM379 -210q0 -188 -200 -314l-64 54q58 75 58 156q-64 38 -64 102q0 61 37 100.5t102 39.5q61 0 96 -40
t35 -98z" />
    <glyph glyph-name="Rcaron" unicode="&#x158;" horiz-adv-x="1187" 
d="M1166 0h-296q-116 354 -178 437t-200 83q-58 0 -111 -1q0 -257 9 -519h-278q13 302 13 681q0 364 -13 621h173q30 0 125.5 3t176.5 3q459 0 459 -314q0 -249 -262 -347v-15q101 -28 177 -157.5t205 -474.5zM791 920q0 199 -256 199q-94 0 -166 -14q11 -155 11 -404
q55 -2 93 -2q318 0 318 221zM903 1690q0 -16 -100 -139.5t-100 -134.5h-242q0 11 -100 134.5t-100 139.5h155q10 -16 166 -134q156 118 166 134h155z" />
    <glyph glyph-name="rcaron" unicode="&#x159;" horiz-adv-x="789" 
d="M771 950l-58 -234q-74 30 -150 30q-147 0 -194 -132q0 -399 6 -614h-266q17 301 17 492q0 238 -50 451l255 28q17 -110 17 -129h16q92 141 245 141q72 0 162 -33zM784 1410q0 -16 -95 -164.5t-95 -159.5h-262q0 11 -95 159.5t-95 164.5h155q0 -16 166 -194
q166 178 166 194h155z" />
    <glyph glyph-name="Sacute" unicode="&#x15a;" horiz-adv-x="1049" 
d="M984 355q0 -391 -562 -391q-191 0 -355 46l49 223q162 -56 306 -56q160 0 230 31t70 104q0 76 -66 128q-57 46 -231 120q-158 68 -235 148q-97 101 -97 249q0 172 127.5 269t366.5 97q196 0 329 -33l-37 -222q-135 49 -292 49q-236 0 -236 -126q0 -67 55 -109
q48 -36 209 -101q171 -69 256 -152q113 -111 113 -274zM911 1690q0 -12 -133 -135t-143 -139h-175q0 16 80 139.5t80 134.5h291z" />
    <glyph glyph-name="sacute" unicode="&#x15b;" horiz-adv-x="859" 
d="M791 273q0 -300 -444 -300q-162 0 -283 35l34 197q125 -45 249 -45q120 0 166.5 20t46.5 67q0 73 -168 139q-147 58 -214 114q-92 78 -92 191q0 133 99 214t288 81q177 0 278 -31l-34 -198q-113 44 -244 44q-160 0 -160 -82q0 -42 34 -67.5t139 -64.5q145 -53 211 -109
q94 -80 94 -205zM792 1410q0 -12 -138 -160t-138 -164h-175q0 16 90 164.5t90 159.5h271z" />
    <glyph glyph-name="Scircumflex" unicode="&#x15c;" horiz-adv-x="1049" 
d="M984 355q0 -391 -562 -391q-191 0 -355 46l49 223q162 -56 306 -56q160 0 230 31t70 104q0 76 -66 128q-57 46 -231 120q-158 68 -235 148q-97 101 -97 249q0 172 127.5 269t366.5 97q196 0 329 -33l-37 -222q-135 49 -292 49q-236 0 -236 -126q0 -67 55 -109
q48 -36 209 -101q171 -69 256 -152q113 -111 113 -274zM873 1416h-155q-10 16 -166 134q-156 -118 -166 -134h-155q0 16 100 139.5t100 134.5h242q0 -11 100 -134.5t100 -139.5z" />
    <glyph glyph-name="scircumflex" unicode="&#x15d;" horiz-adv-x="859" 
d="M791 273q0 -300 -444 -300q-162 0 -283 35l34 197q125 -45 249 -45q120 0 166.5 20t46.5 67q0 73 -168 139q-147 58 -214 114q-92 78 -92 191q0 133 99 214t288 81q177 0 278 -31l-34 -198q-113 44 -244 44q-160 0 -160 -82q0 -42 34 -67.5t139 -64.5q145 -53 211 -109
q94 -80 94 -205zM760 1086h-155q0 16 -166 194q-166 -178 -166 -194h-155q0 16 95 164.5t95 159.5h262q0 -11 95 -159.5t95 -164.5z" />
    <glyph glyph-name="Scedilla" unicode="&#x15e;" horiz-adv-x="1071" 
d="M994 355q0 -365 -491 -389l-10 -58q189 -47 189 -195q0 -227 -248 -227l-24 112q42 0 71 29.5t29 65.5q0 101 -129 125l25 146q-176 3 -329 46l49 223q162 -56 306 -56q160 0 230 31t70 104q0 76 -66 128q-57 46 -231 120q-158 68 -235 148q-97 101 -97 249
q0 172 127.5 269t366.5 97q196 0 329 -33l-37 -222q-135 49 -292 49q-236 0 -236 -126q0 -67 55 -109q48 -36 209 -101q171 -69 256 -152q113 -111 113 -274z" />
    <glyph glyph-name="scedilla" unicode="&#x15f;" horiz-adv-x="859" 
d="M791 273q0 -267 -352 -296l-8 -69q189 -47 189 -195q0 -227 -246 -227l-24 112q40 0 69 29.5t29 65.5q0 101 -129 125l27 155q-162 0 -282 35l34 197q125 -45 249 -45q120 0 168 21q45 19 45 66q0 73 -168 139q-147 58 -214 114q-92 78 -92 191q0 133 96 211
q102 84 291 84q177 0 278 -31l-34 -198q-113 44 -244 44q-160 0 -160 -82q0 -42 34 -67.5t139 -64.5q145 -53 211 -109q94 -80 94 -205z" />
    <glyph glyph-name="Scaron" unicode="&#x160;" horiz-adv-x="1049" 
d="M984 355q0 -391 -562 -391q-191 0 -355 46l49 223q162 -56 306 -56q160 0 230 31t70 104q0 76 -66 128q-57 46 -231 120q-158 68 -235 148q-97 101 -97 249q0 172 127.5 269t366.5 97q196 0 329 -33l-37 -222q-135 49 -292 49q-236 0 -236 -126q0 -67 55 -109
q48 -36 209 -101q171 -69 256 -152q113 -111 113 -274zM888 1690q0 -16 -100 -139.5t-100 -134.5h-242q0 11 -100 134.5t-100 139.5h155q10 -16 166 -134q156 118 166 134h155z" />
    <glyph glyph-name="scaron" unicode="&#x161;" horiz-adv-x="859" 
d="M791 273q0 -300 -444 -300q-162 0 -283 35l34 197q125 -45 249 -45q120 0 166.5 20t46.5 67q0 73 -168 139q-147 58 -214 114q-92 78 -92 191q0 133 99 214t288 81q177 0 278 -31l-34 -198q-113 44 -244 44q-160 0 -160 -82q0 -42 34 -67.5t139 -64.5q145 -53 211 -109
q94 -80 94 -205zM771 1410q0 -16 -95 -164.5t-95 -159.5h-262q0 11 -95 159.5t-95 164.5h155q0 -16 166 -194q166 178 166 194h155z" />
    <glyph glyph-name="uni0162" unicode="&#x162;" horiz-adv-x="1077" 
d="M1055 1302l-7 -215q-200 15 -377 15q-2 -189 -2 -421q0 -360 11 -681h-280q13 318 13 681q0 228 -4 421q-141 0 -387 -16l8 216h1025zM670 -210q0 -188 -200 -314l-64 54q58 75 58 156q-64 38 -64 102q0 61 37 100.5t102 39.5q61 0 96 -40t35 -98z" />
    <glyph glyph-name="uni0162" unicode="&#x21a;" horiz-adv-x="1077" 
d="M1055 1302l-7 -215q-200 15 -377 15q-2 -189 -2 -421q0 -360 11 -681h-280q13 318 13 681q0 228 -4 421q-141 0 -387 -16l8 216h1025zM670 -210q0 -188 -200 -314l-64 54q58 75 58 156q-64 38 -64 102q0 61 37 100.5t102 39.5q61 0 96 -40t35 -98z" />
    <glyph glyph-name="uni0163" unicode="&#x163;" horiz-adv-x="743" 
d="M704 187l-17 -178q-70 -30 -176 -30q-162 0 -244 88t-82 339q0 151 2 342q-51 0 -138 -6l7 197q77 -6 143 -6q1 53 8 279l237 29q-15 -199 -15 -308q84 0 251 8l-8 -199q-152 6 -247 6q-2 -133 -2 -279q0 -178 36 -238.5t127 -60.5q55 0 118 17zM327 950zM557 -210
q0 -188 -200 -314l-64 54q58 75 58 156q-64 38 -64 102q0 61 37 100.5t102 39.5q61 0 96 -40t35 -98z" />
    <glyph glyph-name="uni0163" unicode="&#x21b;" horiz-adv-x="743" 
d="M704 187l-17 -178q-70 -30 -176 -30q-162 0 -244 88t-82 339q0 151 2 342q-51 0 -138 -6l7 197q77 -6 143 -6q1 53 8 279l237 29q-15 -199 -15 -308q84 0 251 8l-8 -199q-152 6 -247 6q-2 -133 -2 -279q0 -178 36 -238.5t127 -60.5q55 0 118 17zM327 950zM557 -210
q0 -188 -200 -314l-64 54q58 75 58 156q-64 38 -64 102q0 61 37 100.5t102 39.5q61 0 96 -40t35 -98z" />
    <glyph glyph-name="Tcaron" unicode="&#x164;" horiz-adv-x="1077" 
d="M1055 1302l-7 -215q-200 15 -377 15q-2 -189 -2 -421q0 -360 11 -681h-280q13 318 13 681q0 228 -4 421q-141 0 -387 -16l8 216h1025zM858 1690q0 -16 -100 -139.5t-100 -134.5h-242q0 11 -100 134.5t-100 139.5h155q10 -16 166 -134q156 118 166 134h155z" />
    <glyph glyph-name="tcaron" unicode="&#x165;" horiz-adv-x="952" 
d="M704 187l-17 -178q-70 -30 -176 -30q-162 0 -244 88t-82 339q0 151 2 342q-51 0 -138 -6l7 197q77 -6 143 -6q1 53 8 279l237 29q-15 -199 -15 -308q84 0 251 8l-8 -199q-152 6 -247 6q-2 -133 -2 -279q0 -178 36 -238.5t127 -60.5q55 0 118 17zM327 950zM994 1177
q0 -222 -204 -351l-66 55q54 89 54 174q-80 39 -80 120q0 62 43 107.5t119 45.5q63 0 98.5 -46t35.5 -105z" />
    <glyph glyph-name="Tbar" unicode="&#x166;" horiz-adv-x="1077" 
d="M1055 1302l-7 -215q-200 15 -377 15q-2 -146 -2 -319h322l-10 -148h-312q0 -335 11 -635h-280q12 297 13 635h-321l10 148h311q-1 170 -4 319q-141 0 -387 -16l8 216h1025z" />
    <glyph glyph-name="tbar" unicode="&#x167;" horiz-adv-x="743" 
d="M704 187l-17 -178q-70 -30 -166 -30q-172 0 -254 88t-82 339v56h-119l6 142h113q1 68 2 144q-51 0 -138 -6l7 197q77 -6 143 -6q1 53 8 279l237 29q-15 -199 -15 -308q84 0 251 8l-8 -199q-152 6 -247 6q-1 -70 -2 -144h227l-6 -142h-221q1 -173 36.5 -232.5t126.5 -59.5
q55 0 118 17zM327 950z" />
    <glyph glyph-name="Utilde" unicode="&#x168;" horiz-adv-x="1347" 
d="M1225 1302q-9 -336 -9 -672q0 -664 -544 -664q-269 0 -405 147t-136 528q0 336 -9 661h283q-13 -338 -13 -652q0 -275 70 -377t216 -102q153 0 221 101.5t68 379.5q0 305 -13 650h271zM1082 1625q-112 -196 -256 -196q-46 0 -121.5 23t-115.5 23q-91 0 -176 -67l-89 75
q112 186 256 186q50 0 124 -23t113 -23q91 0 176 77z" />
    <glyph glyph-name="utilde" unicode="&#x169;" horiz-adv-x="1107" 
d="M1005 1l-234 -8q-16 54 -16 86h-16q-131 -108 -306 -108q-165 0 -248.5 86.5t-83.5 345.5q0 31 1.5 87t1.5 98q0 111 -19 354l279 10q-16 -192 -16 -364q0 -245 36.5 -330t143.5 -85q117 0 202 56q0 526 -12 714l270 9q-10 -189 -10 -490q0 -223 27 -461zM977 1355
q-112 -226 -256 -226q-46 0 -121.5 23t-115.5 23q-91 0 -176 -107l-89 75q112 226 256 226q50 0 124 -23t113 -23q91 0 176 107z" />
    <glyph glyph-name="Umacron" unicode="&#x16a;" horiz-adv-x="1347" 
d="M1225 1302q-9 -336 -9 -672q0 -664 -544 -664q-269 0 -405 147t-136 528q0 336 -9 661h283q-13 -338 -13 -652q0 -275 70 -377t216 -102q153 0 221 101.5t68 379.5q0 305 -13 650h271zM936 1621l-12 -174h-504l11 174h505z" />
    <glyph glyph-name="umacron" unicode="&#x16b;" horiz-adv-x="1107" 
d="M1005 1l-234 -8q-16 54 -16 86h-16q-131 -108 -306 -108q-165 0 -248.5 86.5t-83.5 345.5q0 31 1.5 87t1.5 98q0 111 -19 354l279 10q-16 -192 -16 -364q0 -245 36.5 -330t143.5 -85q117 0 202 56q0 526 -12 714l270 9q-10 -189 -10 -490q0 -223 27 -461zM819 1335
l-12 -174h-484l11 174h485z" />
    <glyph glyph-name="Ubreve" unicode="&#x16c;" horiz-adv-x="1347" 
d="M1225 1302q-9 -336 -9 -672q0 -664 -544 -664q-269 0 -405 147t-136 528q0 336 -9 661h283q-13 -338 -13 -652q0 -275 70 -377t216 -102q153 0 221 101.5t68 379.5q0 305 -13 650h271zM1017 1630q-94 -251 -327 -251q-246 0 -329 251l132 60q72 -147 196 -147
q120 0 196 147z" />
    <glyph glyph-name="ubreve" unicode="&#x16d;" horiz-adv-x="1107" 
d="M1005 1l-234 -8q-16 54 -16 86h-16q-131 -108 -306 -108q-165 0 -248.5 86.5t-83.5 345.5q0 31 1.5 87t1.5 98q0 111 -19 354l279 10q-16 -192 -16 -364q0 -245 36.5 -330t143.5 -85q117 0 202 56q0 526 -12 714l270 9q-10 -189 -10 -490q0 -223 27 -461zM885 1360
q-94 -286 -327 -286q-246 0 -329 286l132 60q92 -182 196 -182q100 0 196 182z" />
    <glyph glyph-name="Uring" unicode="&#x16e;" horiz-adv-x="1347" 
d="M1225 1302q-9 -336 -9 -672q0 -664 -544 -664q-269 0 -405 147t-136 528q0 336 -9 661h283q-13 -338 -13 -652q0 -275 70 -377t216 -102q153 0 221 101.5t68 379.5q0 305 -13 650h271zM923 1605q0 -115 -77.5 -182.5t-177.5 -67.5q-90 0 -155.5 57.5t-65.5 163.5
q0 114 77.5 180t177.5 66q90 0 155.5 -56.5t65.5 -160.5zM809 1596q0 60 -33.5 92t-81.5 32q-52 0 -92 -37t-40 -101q0 -60 33.5 -92.5t81.5 -32.5q52 0 92 37.5t40 101.5z" />
    <glyph glyph-name="uring" unicode="&#x16f;" horiz-adv-x="1107" 
d="M1005 1l-234 -8q-16 54 -16 86h-16q-131 -108 -306 -108q-165 0 -248.5 86.5t-83.5 345.5q0 31 1.5 87t1.5 98q0 111 -19 354l279 10q-16 -192 -16 -364q0 -245 36.5 -330t143.5 -85q117 0 202 56q0 526 -12 714l270 9q-10 -189 -10 -490q0 -223 27 -461zM801 1289
q0 -115 -77.5 -182.5t-177.5 -67.5q-90 0 -155.5 57.5t-65.5 163.5q0 114 77.5 180t177.5 66q90 0 155.5 -56.5t65.5 -160.5zM687 1280q0 60 -33.5 92t-81.5 32q-52 0 -92 -37t-40 -101q0 -60 33.5 -92.5t81.5 -32.5q52 0 92 37.5t40 101.5z" />
    <glyph glyph-name="Uhungarumlaut" unicode="&#x170;" horiz-adv-x="1347" 
d="M1225 1302q-9 -336 -9 -672q0 -664 -544 -664q-269 0 -405 147t-136 528q0 336 -9 661h283q-13 -338 -13 -652q0 -275 70 -377t216 -102q153 0 221 101.5t68 379.5q0 305 -13 650h271zM745 1690q0 -22 -92 -140t-102 -134h-149q0 16 35 134.5t35 139.5h273zM1132 1690
q0 -22 -92 -140t-102 -134h-149q0 16 35 134.5t35 139.5h273z" />
    <glyph glyph-name="uhungarumlaut" unicode="&#x171;" horiz-adv-x="1107" 
d="M1005 1l-234 -8q-16 54 -16 86h-16q-131 -108 -306 -108q-165 0 -248.5 86.5t-83.5 345.5q0 31 1.5 87t1.5 98q0 111 -19 354l279 10q-16 -192 -16 -364q0 -245 36.5 -330t143.5 -85q117 0 202 56q0 526 -12 714l270 9q-10 -189 -10 -490q0 -223 27 -461zM624 1410
q0 -22 -92 -165t-92 -159h-149q0 16 35 159.5t35 164.5h263zM1011 1410q0 -22 -92 -165t-92 -159h-149q0 16 35 159.5t35 164.5h263z" />
    <glyph glyph-name="Uogonek" unicode="&#x172;" horiz-adv-x="1347" 
d="M959 -468q-62 -18 -139 -18q-143 0 -208.5 59t-65.5 157q0 164 178 228v10q-25 -2 -82 -2q-233 0 -372 142t-139 563q0 306 -9 631h283q-13 -338 -13 -652q0 -275 70 -377t216 -102q153 0 221 102.5t68 387.5q0 296 -13 641h271q-9 -336 -9 -672q0 -484 -289 -615
q-194 -92 -194 -217q0 -127 119 -127q31 0 79 10z" />
    <glyph glyph-name="uogonek" unicode="&#x173;" horiz-adv-x="1107" 
d="M1023 -468q-62 -18 -139 -18q-143 0 -208.5 59t-65.5 157q0 164 161 264q-16 53 -16 85h-16q-131 -108 -295 -108q-173 0 -258 81.5t-85 340.5q0 31 1.5 92t1.5 83q0 131 -19 375l279 8q-16 -191 -16 -363q0 -245 36.5 -330t143.5 -85q117 0 202 56q0 526 -12 714l270 8
q-10 -188 -10 -489q0 -223 27 -462q-208 -31 -208 -202q0 -127 119 -127q31 0 79 10z" />
    <glyph glyph-name="Wcircumflex" unicode="&#x174;" horiz-adv-x="1877" 
d="M1866 1302q0 -93 -200 -660t-200 -642h-264q0 79 -121 445q-129 392 -145 517h-17q-16 -126 -134 -521q-110 -369 -110 -441h-270q0 94 -197 669t-197 633h317q0 -63 114 -502t114 -521h16q0 82 122 511.5t122 511.5h285q0 -75 122 -520.5t122 -502.5h16q0 72 110.5 489
t110.5 534h284zM1277 1416h-155q-10 16 -166 134q-156 -118 -166 -134h-155q0 16 100 139.5t100 134.5h242q0 -11 100 -134.5t100 -139.5z" />
    <glyph glyph-name="wcircumflex" unicode="&#x175;" horiz-adv-x="1613" 
d="M1581 950q0 -57 -166.5 -468t-166.5 -482h-233q0 46 -82 283q-102 296 -130 403h-16q-26 -103 -124 -398q-79 -234 -79 -288h-234q0 61 -158.5 486.5t-158.5 463.5h288q0 -41 87.5 -343.5t87.5 -359.5h15q0 69 100 358.5t100 344.5h235q0 -38 97.5 -345t97.5 -358h14
q0 56 88.5 340.5t88.5 362.5h249zM1140 1086h-155q0 16 -166 194q-166 -178 -166 -194h-155q0 16 95 164.5t95 159.5h262q0 -11 95 -159.5t95 -164.5z" />
    <glyph glyph-name="Ycircumflex" unicode="&#x176;" horiz-adv-x="1130" 
d="M1119 1302q0 -41 -114 -221q-175 -275 -213 -342q-114 -203 -114 -301q0 -220 12 -438h-284q11 219 11 441q0 102 -105 309q-49 96 -196 343q-105 177 -105 209h314q0 -36 125.5 -303.5t125.5 -345.5h16q0 72 122.5 328t122.5 321h282zM901 1416h-155q-10 16 -166 134
q-156 -118 -166 -134h-155q0 16 100 139.5t100 134.5h242q0 -11 100 -134.5t100 -139.5z" />
    <glyph glyph-name="ycircumflex" unicode="&#x177;" horiz-adv-x="1002" 
d="M968 950q0 -65 -143 -412q-163 -399 -201 -544q-65 -250 -175 -345q-106 -92 -318 -92l-20 193q124 0 204 70.5t80 188.5q0 119 -180 520.5t-180 420.5h309q0 -35 91 -339t91 -372h14q0 58 82.5 342.5t82.5 368.5h263zM838 1086h-155q0 16 -166 194q-166 -178 -166 -194
h-155q0 16 95 164.5t95 159.5h262q0 -11 95 -159.5t95 -164.5z" />
    <glyph glyph-name="Ydieresis" unicode="&#x178;" horiz-adv-x="1130" 
d="M1119 1302q0 -41 -114 -221q-175 -275 -213 -342q-114 -203 -114 -301q0 -220 12 -438h-284q11 219 11 441q0 102 -105 309q-49 96 -196 343q-105 177 -105 209h314q0 -36 125.5 -303.5t125.5 -345.5h16q0 72 122.5 328t122.5 321h282zM914 1567q0 -58 -39.5 -101.5
t-110.5 -43.5q-60 0 -93.5 37.5t-33.5 90.5q0 57 40.5 100t111.5 43q60 0 92.5 -37t32.5 -89zM519 1567q0 -58 -39.5 -101.5t-110.5 -43.5q-59 0 -92.5 37.5t-33.5 90.5q0 58 40 100.5t111 42.5q60 0 92.5 -37t32.5 -89z" />
    <glyph glyph-name="Zacute" unicode="&#x179;" horiz-adv-x="1054" 
d="M977 226l-7 -226h-893l15 205q109 144 323 478q232 362 232 407v16q-239 0 -553 -23l6 219h856l-14 -207q-110 -152 -308 -470q-224 -360 -224 -407v-15q210 0 567 23zM891 1690q0 -12 -133 -135t-143 -139h-175q0 16 80 139.5t80 134.5h291z" />
    <glyph glyph-name="zacute" unicode="&#x17a;" horiz-adv-x="890" 
d="M834 200l-5 -200h-756l14 191q50 45 235 278q198 249 198 285v16q-238 0 -438 -17l5 197h726l-15 -192q-63 -69 -225 -280q-189 -246 -189 -282v-15q227 0 450 19zM813 1410q0 -12 -138 -160t-138 -164h-175q0 16 90 164.5t90 159.5h271z" />
    <glyph glyph-name="Zdotaccent" unicode="&#x17b;" horiz-adv-x="1054" 
d="M977 226l-7 -226h-893l15 205q109 144 323 478q232 362 232 407v16q-239 0 -553 -23l6 219h856l-14 -207q-110 -152 -308 -470q-224 -360 -224 -407v-15q210 0 567 23zM721 1566q0 -68 -46.5 -119t-129.5 -51q-70 0 -109.5 44t-39.5 106q0 68 46.5 118t130.5 50
q71 0 109.5 -43.5t38.5 -104.5z" />
    <glyph glyph-name="zdotaccent" unicode="&#x17c;" horiz-adv-x="890" 
d="M834 200l-5 -200h-756l14 191q50 45 235 278q198 249 198 285v16q-238 0 -438 -17l5 197h726l-15 -192q-63 -69 -225 -280q-189 -246 -189 -282v-15q227 0 450 19zM626 1252q0 -68 -46.5 -119t-129.5 -51q-70 0 -109.5 44t-39.5 106q0 68 46.5 118t130.5 50
q71 0 109.5 -43.5t38.5 -104.5z" />
    <glyph glyph-name="Zcaron" unicode="&#x17d;" horiz-adv-x="1054" 
d="M977 226l-7 -226h-893l15 205q109 144 323 478q232 362 232 407v16q-239 0 -553 -23l6 219h856l-14 -207q-110 -152 -308 -470q-224 -360 -224 -407v-15q210 0 567 23zM834 1690q0 -16 -100 -139.5t-100 -134.5h-242q0 11 -100 134.5t-100 139.5h155q10 -16 166 -134
q156 118 166 134h155z" />
    <glyph glyph-name="zcaron" unicode="&#x17e;" horiz-adv-x="890" 
d="M834 200l-5 -200h-756l14 191q50 45 235 278q198 249 198 285v16q-238 0 -438 -17l5 197h726l-15 -192q-63 -69 -225 -280q-189 -246 -189 -282v-15q227 0 450 19zM791 1410q0 -16 -95 -164.5t-95 -159.5h-262q0 11 -95 159.5t-95 164.5h155q0 -16 166 -194
q166 178 166 194h155z" />
    <glyph glyph-name="longs" unicode="&#x17f;" horiz-adv-x="576" 
d="M627 1419l-36 -178q-57 14 -117 14q-74 0 -100 -66t-26 -256q0 -562 15 -933h-264q15 366 15 933q0 503 338 503q101 0 175 -17z" />
    <glyph glyph-name="florin" unicode="&#x192;" 
d="M902 1304l-21 -177q-54 9 -93 9q-88 0 -121.5 -53t-48.5 -236q91 0 233 5l-8 -140q-109 5 -231 5q-27 -521 -72 -761.5t-132.5 -325t-257.5 -116.5l-64 184q106 30 154 97.5t76.5 264.5t57.5 657q-61 0 -158 -5l6 140q77 -5 166 -5q19 269 101.5 372.5t275.5 103.5
q61 0 137 -19zM527 950zM752 1436z" />
    <glyph glyph-name="Aringacute" unicode="&#x1fa;" horiz-adv-x="1290" 
d="M858 1518q0 -90 -61 -143.5t-139 -53.5q-71 0 -123 45.5t-52 128.5q0 90 61 142.5t140 52.5q72 0 123 -45t51 -127zM1029 1900q0 -12 -114.5 -90t-124.5 -94h-165q0 16 66.5 94.5t66.5 89.5h271zM759 1515q0 43 -24 66.5t-59 23.5q-38 0 -67 -27t-29 -74
q0 -42 24.5 -65.5t58.5 -23.5q38 0 67 27t29 73zM1279 0h-320q0 66 -91 374h-462q-94 -303 -94 -374h-301q0 39 233.5 640t233.5 662h378q0 -57 211.5 -652.5t211.5 -649.5zM817 565q-171 516 -171 558h-16q0 -39 -177 -558h364z" />
    <glyph glyph-name="aringacute" unicode="&#x1fb;" horiz-adv-x="1006" 
d="M925 1l-236 -8q-16 42 -16 76h-13q-110 -94 -297 -94q-125 0 -207.5 69.5t-82.5 184.5q0 152 128.5 249t450.5 103q2 18 2 34q0 108 -52 142.5t-191 34.5q-151 0 -295 -40l22 184q136 47 384 47q181 0 279.5 -76t98.5 -266q0 -42 -3.5 -153t-3.5 -148q0 -207 32 -339z
M658 209q-6 135 -6 233q-341 0 -341 -173q0 -119 150 -119q118 0 197 59zM743 1270q0 -115 -77.5 -182.5t-177.5 -67.5q-90 0 -155.5 57.5t-65.5 163.5q0 114 77.5 180t177.5 66q90 0 155.5 -56.5t65.5 -160.5zM629 1261q0 60 -33.5 92t-81.5 32q-52 0 -92 -37t-40 -101
q0 -60 33.5 -92.5t81.5 -32.5q52 0 92 37.5t40 101.5zM886 1792q0 -12 -133 -135t-143 -139h-175q0 16 80 139.5t80 134.5h291z" />
    <glyph glyph-name="AEacute" unicode="&#x1fc;" horiz-adv-x="1695" 
d="M1618 220l-8 -220h-860q11 185 11 374h-371q-91 -290 -91 -374h-288q0 38 234 638t234 664h1091l-9 -219q-314 16 -558 16q12 -141 12 -328q194 0 460 8v-206q-247 10 -460 10q0 -193 7 -380q277 0 596 17zM763 565q0 325 -10 534h-131q0 -39 -185 -534h326zM1366 1690
q0 -12 -133 -135t-143 -139h-175q0 16 80 139.5t80 134.5h291z" />
    <glyph glyph-name="aeacute" unicode="&#x1fd;" horiz-adv-x="1611" 
d="M1542 577q0 -51 -6 -133l-640 -11q14 -114 94.5 -188.5t215.5 -74.5q150 0 320 45l-20 -194q-139 -50 -343 -50q-252 0 -391 163h-16q-97 -87 -174.5 -123t-218.5 -36q-125 0 -207.5 69.5t-82.5 184.5q0 152 128.5 249t450.5 103q2 18 2 34q0 108 -52.5 142.5
t-191.5 34.5q-151 0 -295 -40l22 184q136 47 384 47q207 0 292 -102h16q124 110 296 110q212 0 314.5 -115t102.5 -299zM696 235q-49 103 -49 207q-337 0 -337 -173q0 -119 150 -119q118 0 236 85zM1308 586q0 230 -195 230t-219 -238zM1188 1410q0 -12 -138 -160t-138 -164
h-175q0 16 90 164.5t90 159.5h271z" />
    <glyph glyph-name="Oslashacute" unicode="&#x1fe;" horiz-adv-x="1427" 
d="M1360 1322q0 -43 -144 -225q136 -177 136 -422q0 -307 -188 -509t-465 -202q-200 0 -356 113q-130 -161 -130 -196l-147 42q0 40 171 249q-158 182 -158 449q0 307 188 509t465 202q218 0 381 -131q98 126 98 158zM954 1004q-102 111 -249 111q-146 0 -248 -131
t-102 -331q0 -151 61 -267q190 216 538 618zM1076 646q0 126 -43 227q-185 -209 -529 -603q96 -86 222 -86q146 0 248 131.5t102 330.5zM1065 1690q0 -12 -133 -135t-143 -139h-175q0 16 80 139.5t80 134.5h291z" />
    <glyph glyph-name="oslashacute" unicode="&#x1ff;" horiz-adv-x="1144" 
d="M1100 981q0 -37 -117 -174q92 -125 92 -310q0 -253 -155 -394.5t-365 -141.5q-161 0 -284 84q-118 -132 -118 -159l-111 42q0 35 142 193q-115 132 -115 334q0 253 156 396t366 143q182 0 313 -106q84 101 84 130zM745 711q-69 98 -176 98q-106 0 -172.5 -92t-66.5 -230
q0 -98 33 -176zM814 467q0 70 -20 132q-128 -133 -370 -387q64 -67 151 -67q106 0 172.5 92t66.5 230zM944 1410q0 -12 -138 -160t-138 -164h-175q0 16 90 164.5t90 159.5h271z" />
    <glyph glyph-name="uni0218" unicode="&#x218;" horiz-adv-x="1049" 
d="M984 355q0 -391 -562 -391q-191 0 -355 46l49 223q162 -56 306 -56q160 0 230 31t70 104q0 76 -66 128q-57 46 -231 120q-158 68 -235 148q-97 101 -97 249q0 172 127.5 269t366.5 97q196 0 329 -33l-37 -222q-135 49 -292 49q-236 0 -236 -126q0 -67 55 -109
q48 -36 209 -101q171 -69 256 -152q113 -111 113 -274zM598 -210q0 -188 -200 -314l-64 54q58 75 58 156q-64 38 -64 102q0 61 37 100.5t102 39.5q61 0 96 -40t35 -98z" />
    <glyph glyph-name="uni0219" unicode="&#x219;" horiz-adv-x="859" 
d="M791 273q0 -300 -444 -300q-162 0 -283 35l34 197q125 -45 249 -45q120 0 166.5 20t46.5 67q0 73 -168 139q-147 58 -214 114q-92 78 -92 191q0 133 99 214t288 81q177 0 278 -31l-34 -198q-113 44 -244 44q-160 0 -160 -82q0 -42 34 -67.5t139 -64.5q145 -53 211 -109
q94 -80 94 -205zM528 -210q0 -188 -200 -314l-64 54q58 75 58 156q-64 38 -64 102q0 61 37 100.5t102 39.5q61 0 96 -40t35 -98z" />
    <glyph glyph-name="circumflex" unicode="&#x2c6;" horiz-adv-x="782" 
d="M711 1086h-155q0 16 -166 194q-166 -178 -166 -194h-155q0 16 95 164.5t95 159.5h262q0 -11 95 -159.5t95 -164.5z" />
    <glyph glyph-name="caron" unicode="&#x2c7;" horiz-adv-x="782" 
d="M711 1410q0 -16 -95 -164.5t-95 -159.5h-262q0 11 -95 159.5t-95 164.5h155q0 -16 166 -194q166 178 166 194h155z" />
    <glyph glyph-name="breve" unicode="&#x2d8;" horiz-adv-x="782" 
d="M719 1360q-94 -286 -327 -286q-246 0 -329 286l132 60q92 -182 196 -182q100 0 196 182z" />
    <glyph glyph-name="dotaccent" unicode="&#x2d9;" horiz-adv-x="526" 
d="M441 1252q0 -68 -46.5 -119t-129.5 -51q-70 0 -109.5 44t-39.5 106q0 68 46.5 118t130.5 50q71 0 109.5 -43.5t38.5 -104.5z" />
    <glyph glyph-name="ring" unicode="&#x2da;" horiz-adv-x="610" 
d="M543 1289q0 -115 -77.5 -182.5t-177.5 -67.5q-90 0 -155.5 57.5t-65.5 163.5q0 114 77.5 180t177.5 66q90 0 155.5 -56.5t65.5 -160.5zM429 1280q0 60 -33.5 92t-81.5 32q-52 0 -92 -37t-40 -101q0 -60 33.5 -92.5t81.5 -32.5q52 0 92 37.5t40 101.5z" />
    <glyph glyph-name="ogonek" unicode="&#x2db;" horiz-adv-x="470" 
d="M412 -468q-62 -18 -139 -18q-143 0 -208.5 59t-65.5 157q0 164 127 290h188q-128 -71 -128 -222q0 -127 119 -127q31 0 79 10z" />
    <glyph glyph-name="tilde" unicode="&#x2dc;" horiz-adv-x="884" 
d="M820 1355q-112 -226 -256 -226q-46 0 -121.5 23t-115.5 23q-91 0 -176 -107l-89 75q112 226 256 226q50 0 124 -23t113 -23q91 0 176 107z" />
    <glyph glyph-name="hungarumlaut" unicode="&#x2dd;" horiz-adv-x="882" 
d="M415 1410q0 -22 -92 -165t-92 -159h-149q0 16 35 159.5t35 164.5h263zM802 1410q0 -22 -92 -165t-92 -159h-149q0 16 35 159.5t35 164.5h263z" />
    <glyph glyph-name="gravecomb" unicode="&#x300;" horiz-adv-x="0" 
d="M-398 1086h-175q0 16 -138 164t-138 160h271q0 -11 90 -159.5t90 -164.5z" />
    <glyph glyph-name="acutecomb" unicode="&#x301;" horiz-adv-x="0" 
d="M-172 1410q0 -12 -138 -160t-138 -164h-175q0 16 90 164.5t90 159.5h271z" />
    <glyph glyph-name="uni0302" unicode="&#x302;" horiz-adv-x="0" 
d="M-172 1086h-155q0 16 -166 194q-166 -178 -166 -194h-155q0 16 95 164.5t95 159.5h262q0 -11 95 -159.5t95 -164.5z" />
    <glyph glyph-name="tildecomb" unicode="&#x303;" horiz-adv-x="0" 
d="M-127 1355q-112 -226 -256 -226q-46 0 -121.5 23t-115.5 23q-91 0 -176 -107l-89 75q112 226 256 226q50 0 124 -23t113 -23q91 0 176 107z" />
    <glyph glyph-name="uni0304" unicode="&#x304;" horiz-adv-x="0" 
d="M-253 1335l-12 -174h-484l11 174h485z" />
    <glyph glyph-name="uni0306" unicode="&#x306;" horiz-adv-x="0" 
d="M-168 1360q-94 -286 -327 -286q-246 0 -329 286l132 60q92 -182 196 -182q100 0 196 182z" />
    <glyph glyph-name="uni0307" unicode="&#x307;" horiz-adv-x="0" 
d="M-332 1252q0 -68 -46.5 -119t-129.5 -51q-70 0 -109.5 44t-39.5 106q0 68 46.5 118t130.5 50q71 0 109.5 -43.5t38.5 -104.5z" />
    <glyph glyph-name="uni0308" unicode="&#x308;" horiz-adv-x="0" 
d="M-145 1251q0 -58 -39.5 -101.5t-110.5 -43.5q-60 0 -93.5 37.5t-33.5 90.5q0 57 40.5 100t111.5 43q60 0 92.5 -37t32.5 -89zM-540 1251q0 -58 -39.5 -101.5t-110.5 -43.5q-59 0 -92.5 37.5t-33.5 90.5q0 58 40 100.5t111 42.5q60 0 92.5 -37t32.5 -89z" />
    <glyph glyph-name="uni030A" unicode="&#x30a;" horiz-adv-x="0" 
d="M-270 1289q0 -115 -77.5 -182.5t-177.5 -67.5q-90 0 -155.5 57.5t-65.5 163.5q0 114 77.5 180t177.5 66q90 0 155.5 -56.5t65.5 -160.5zM-384 1280q0 60 -33.5 92t-81.5 32q-52 0 -92 -37t-40 -101q0 -60 33.5 -92.5t81.5 -32.5q52 0 92 37.5t40 101.5z" />
    <glyph glyph-name="uni030B" unicode="&#x30b;" horiz-adv-x="0" 
d="M-457 1410q0 -22 -92 -165t-92 -159h-149q0 16 35 159.5t35 164.5h263zM-70 1410q0 -22 -92 -165t-92 -159h-149q0 16 35 159.5t35 164.5h263z" />
    <glyph glyph-name="uni030C" unicode="&#x30c;" horiz-adv-x="0" 
d="M-167 1410q0 -16 -95 -164.5t-95 -159.5h-262q0 11 -95 159.5t-95 164.5h155q0 -16 166 -194q166 178 166 194h155z" />
    <glyph glyph-name="uni0312" unicode="&#x312;" horiz-adv-x="0" 
d="M-404 1235q0 -62 -43 -107.5t-119 -45.5q-63 0 -98.5 46t-35.5 105q0 222 204 351l64 -54q-49 -66 -49 -159q77 -50 77 -136z" />
    <glyph glyph-name="uni0315" unicode="&#x315;" horiz-adv-x="166" 
d="M236 1177q0 -222 -204 -351l-66 55q54 89 54 174q-80 39 -80 120q0 62 43 107.5t119 45.5q63 0 98.5 -46t35.5 -105z" />
    <glyph glyph-name="uni0326" unicode="&#x326;" horiz-adv-x="0" 
d="M-350 -210q0 -188 -200 -314l-64 54q58 75 58 156q-64 38 -64 102q0 61 37 100.5t102 39.5q61 0 96 -40t35 -98z" />
    <glyph glyph-name="uni0327" unicode="&#x327;" horiz-adv-x="0" 
d="M-55 -287q0 -227 -246 -227l-24 112q40 0 69 29.5t29 65.5q0 101 -129 125l41 234l87 -14l-16 -130q189 -47 189 -195z" />
    <glyph glyph-name="uni0328" unicode="&#x328;" horiz-adv-x="0" 
d="M-31 -468q-62 -18 -139 -18q-143 0 -208.5 59t-65.5 157q0 164 127 290h188q-128 -71 -128 -222q0 -127 119 -127q31 0 79 10z" />
    <glyph glyph-name="uni0344" unicode="&#x344;" horiz-adv-x="0" 
d="M93 1650q0 -22 -139.5 -195t-139.5 -199h-156q0 33 74.5 203t74.5 191h286zM168 1256q0 -57 -39 -100t-109 -43q-59 0 -92 37t-33 89q0 57 40 99t110 42q59 0 91 -36t32 -88zM-380 1256q0 -57 -39.5 -100t-109.5 -43q-59 0 -91.5 37t-32.5 89q0 57 39.5 99t109.5 42
q59 0 91.5 -36t32.5 -88z" />
    <glyph glyph-name="uni0374" unicode="&#x374;" horiz-adv-x="411" 
d="M411 1410q0 -12 -118 -160t-118 -164h-175q0 16 70 164.5t70 159.5h271z" />
    <glyph glyph-name="uni0375" unicode="&#x375;" horiz-adv-x="411" 
d="M411 -100q0 -16 -70 -164.5t-70 -159.5h-271q0 12 118 160t118 164h175z" />
    <glyph glyph-name="uni037E" unicode="&#x37e;" horiz-adv-x="517" 
d="M428 156q0 -261 -320 -555l-89 76q136 151 136 327q-76 46 -76 149q0 72 51 126t141 54q74 0 115.5 -54t41.5 -123zM240 -10zM430 798q0 -73 -50.5 -128.5t-139.5 -55.5q-75 0 -117 48t-42 115q0 73 50.5 126.5t140.5 53.5q76 0 117 -46.5t41 -112.5z" />
    <glyph glyph-name="tonos" unicode="&#x384;" horiz-adv-x="562" 
d="M508 1510q0 -22 -134.5 -195t-134.5 -199h-176q0 33 79.5 203t79.5 191h286z" />
    <glyph glyph-name="dieresistonos" unicode="&#x385;" horiz-adv-x="836" 
d="M753 1650q0 -22 -139.5 -195t-139.5 -199h-156q0 33 74.5 203t74.5 191h286zM828 1256q0 -57 -39 -100t-109 -43q-59 0 -92 37t-33 89q0 57 40 99t110 42q59 0 91 -36t32 -88zM280 1256q0 -57 -39.5 -100t-109.5 -43q-59 0 -91.5 37t-32.5 89q0 57 39.5 99t109.5 42
q59 0 91.5 -36t32.5 -88z" />
    <glyph glyph-name="Alphatonos" unicode="&#x386;" horiz-adv-x="1374" 
d="M1363 0h-320q0 66 -91 374h-462q-94 -303 -94 -374h-301q0 39 233.5 640t233.5 662h378q0 -57 211.5 -652.5t211.5 -649.5zM901 565q-171 516 -171 558h-16q0 -39 -177 -558h364zM508 1510q0 -22 -134.5 -195t-134.5 -199h-176q0 33 79.5 203t79.5 191h286z" />
    <glyph glyph-name="anoteleia" unicode="&#x387;" horiz-adv-x="516" 
d="M430 817q0 -73 -50.5 -128.5t-139.5 -55.5q-75 0 -117 48t-42 115q0 73 50.5 126.5t140.5 53.5q76 0 117 -46.5t41 -112.5z" />
    <glyph glyph-name="Epsilontonos" unicode="&#x388;" horiz-adv-x="1431" 
d="M1354 220l-8 -220h-851q13 302 13 681q0 364 -13 621h812l-11 -219q-300 16 -544 16q10 -139 10 -328q209 0 447 11v-209q-234 10 -447 10q0 -203 8 -380q274 0 584 17zM508 1510q0 -22 -134.5 -195t-134.5 -199h-176q0 33 79.5 203t79.5 191h286z" />
    <glyph glyph-name="Etatonos" unicode="&#x389;" horiz-adv-x="1700" 
d="M1556 0h-283q10 331 10 574h-504q0 -218 10 -574h-283q13 330 13 681q0 355 -13 621h283q-12 -281 -12 -520h508q0 211 -12 520h283q-14 -254 -14 -621q0 -383 14 -681zM508 1510q0 -22 -134.5 -195t-134.5 -199h-176q0 33 79.5 203t79.5 191h286z" />
    <glyph glyph-name="Iotatonos" unicode="&#x38a;" horiz-adv-x="923" 
d="M779 0h-283q13 310 13 681q0 365 -13 621h283q-13 -252 -13 -621q0 -377 13 -681zM508 1510q0 -22 -134.5 -195t-134.5 -199h-176q0 33 79.5 203t79.5 191h286z" />
    <glyph glyph-name="Omicrontonos" unicode="&#x38c;" horiz-adv-x="1660" 
d="M1583 675q0 -307 -188 -509t-465 -202q-264 0 -442 185.5t-178 471.5q0 307 188 509t465 202q264 0 442 -185t178 -472zM1307 646q0 209 -107 339t-264 130q-146 0 -248 -131t-102 -331q0 -208 107.5 -338.5t263.5 -130.5q146 0 248 131.5t102 330.5zM508 1510
q0 -22 -134.5 -195t-134.5 -199h-176q0 33 79.5 203t79.5 191h286z" />
    <glyph glyph-name="Upsilontonos" unicode="&#x38e;" horiz-adv-x="1551" 
d="M1540 1302q0 -41 -114 -221q-175 -275 -213 -342q-114 -203 -114 -301q0 -220 12 -438h-284q11 219 11 441q0 102 -105 309q-49 96 -196 343q-105 177 -105 209h314q0 -36 125.5 -303.5t125.5 -345.5h16q0 72 122.5 328t122.5 321h282zM508 1510q0 -22 -134.5 -195
t-134.5 -199h-176q0 33 79.5 203t79.5 191h286z" />
    <glyph glyph-name="Omegatonos" unicode="&#x38f;" horiz-adv-x="1688" 
d="M508 1510q0 -22 -134.5 -195t-134.5 -199h-176q0 33 79.5 203t79.5 191h286zM1622 221l-10 -221h-545q0 180 105 312q142 190 142 411q0 172 -102 280.5t-255 108.5q-149 0 -243.5 -95.5t-94.5 -257.5q0 -245 151 -447q97 -142 97 -312h-546l-11 221q180 -30 314 -30
l-1 16q0 24 -81.5 101.5t-139 176t-57.5 254.5q0 264 175 429.5t458 165.5q269 0 439 -154.5t170 -397.5q0 -160 -62 -269.5t-148 -197t-86 -107.5l-1 -16q157 0 332 29z" />
    <glyph glyph-name="iotadieresistonos" unicode="&#x390;" horiz-adv-x="522" 
d="M522 188l-16 -179q-79 -30 -151 -30q-141 0 -199 78t-58 349q0 281 19 543l240 23q-22 -216 -22 -503q0 -189 22 -243.5t83 -54.5q33 0 82 17zM593 1650q0 -22 -139.5 -195t-139.5 -199h-156q0 33 74.5 203t74.5 191h286zM668 1256q0 -57 -39 -100t-109 -43q-59 0 -92 37
t-33 89q0 57 40 99t110 42q59 0 91 -36t32 -88zM120 1256q0 -57 -39.5 -100t-109.5 -43q-59 0 -91.5 37t-32.5 89q0 57 39.5 99t109.5 42q59 0 91.5 -36t32.5 -88z" />
    <glyph glyph-name="Alpha" unicode="&#x391;" horiz-adv-x="1290" 
d="M1279 0h-320q0 66 -91 374h-462q-94 -303 -94 -374h-301q0 39 233.5 640t233.5 662h378q0 -57 211.5 -652.5t211.5 -649.5zM817 565q-171 516 -171 558h-16q0 -39 -177 -558h364z" />
    <glyph glyph-name="Beta" unicode="&#x392;" horiz-adv-x="1224" 
d="M1147 392q0 -398 -651 -398q-113 0 -352 6q13 302 13 681q0 364 -13 621h162q46 0 154.5 3t169.5 3q443 0 443 -288q0 -222 -227 -294v-15q121 -19 211 -94.5t90 -224.5zM877 381q0 199 -349 199q-69 0 -119 -5q0 -209 9 -385q34 -8 102 -8q185 0 271 44.5t86 154.5z
M804 941q0 179 -224 179q-103 0 -183 -15q11 -101 11 -347q38 -2 80 -2q316 0 316 185z" />
    <glyph glyph-name="Gamma" unicode="&#x393;" horiz-adv-x="992" 
d="M970 1302l-7 -219q-312 16 -565 16q13 -171 13 -379q0 -467 9 -720h-276q13 302 13 681q0 364 -13 621h826z" />
    <glyph glyph-name="uni0394" unicode="&#x394;" horiz-adv-x="1249" 
d="M1238 0h-1227q0 42 223.5 641.5t223.5 660.5h377q0 -57 201.5 -652.5t201.5 -649.5zM884 203q-32 133 -157 535q-102 330 -102 385h-15q0 -58 -105 -387q-126 -395 -159 -533h538z" />
    <glyph glyph-name="Epsilon" unicode="&#x395;" horiz-adv-x="1080" 
d="M1003 220l-8 -220h-851q13 302 13 681q0 364 -13 621h812l-11 -219q-300 16 -544 16q10 -139 10 -328q209 0 447 11v-209q-234 10 -447 10q0 -203 8 -380q274 0 584 17z" />
    <glyph glyph-name="Zeta" unicode="&#x396;" horiz-adv-x="1054" 
d="M977 226l-7 -226h-893l15 205q109 144 323 478q232 362 232 407v16q-239 0 -553 -23l6 219h856l-14 -207q-110 -152 -308 -470q-224 -360 -224 -407v-15q210 0 567 23z" />
    <glyph glyph-name="Eta" unicode="&#x397;" horiz-adv-x="1338" 
d="M1194 0h-283q10 331 10 574h-504q0 -218 10 -574h-283q13 330 13 681q0 355 -13 621h283q-12 -281 -12 -520h508q0 211 -12 520h283q-14 -254 -14 -621q0 -383 14 -681z" />
    <glyph glyph-name="Theta" unicode="&#x398;" horiz-adv-x="1427" 
d="M1350 675q0 -307 -188 -509t-465 -202q-264 0 -442 185.5t-178 471.5q0 307 188 509t465 202q264 0 442 -185t178 -472zM1074 646q0 209 -107 339t-264 130q-146 0 -248 -131t-102 -331q0 -208 107.5 -338.5t263.5 -130.5q146 0 248 131.5t102 330.5zM903 563
q-80 10 -188 10q-96 0 -190 -10v216q100 -10 194 -10q103 0 184 10v-216z" />
    <glyph glyph-name="Iota" unicode="&#x399;" horiz-adv-x="571" 
d="M427 0h-283q13 310 13 681q0 365 -13 621h283q-13 -252 -13 -621q0 -377 13 -681z" />
    <glyph glyph-name="Kappa" unicode="&#x39a;" horiz-adv-x="1207" 
d="M1196 0h-327q0 46 -169 317q-180 289 -255 289h-30q0 -228 11 -606h-282q13 302 13 681q0 364 -13 621h282q-11 -277 -11 -520h22q44 0 222 246q173 239 173 274h298q0 -33 -183 -249q-189 -223 -276 -284v-15q102 -53 321 -395q204 -318 204 -359z" />
    <glyph glyph-name="Lambda" unicode="&#x39b;" horiz-adv-x="1249" 
d="M1238 0h-321q0 105 -146 584.5t-146 538.5h-15q0 -62 -149 -533.5t-149 -589.5h-301q0 42 223.5 641.5t223.5 660.5h377q0 -57 201.5 -652.5t201.5 -649.5z" />
    <glyph glyph-name="Mu" unicode="&#x39c;" horiz-adv-x="1769" 
d="M1647 0h-291q0 170 -21 573.5t-22 503.5h-15q-10 -60 -53 -222t-161.5 -477.5t-118.5 -377.5h-221q0 64 -113.5 381t-148.5 444t-56 252h-15q-1 -125 -24.5 -536t-23.5 -541h-264q0 30 72.5 601t72.5 701h387q0 -112 122.5 -494t122.5 -489h15q0 108 139.5 490t139.5 493
h384q0 -207 46.5 -738.5t46.5 -563.5z" />
    <glyph glyph-name="Nu" unicode="&#x39d;" horiz-adv-x="1361" 
d="M1217 0h-247q0 41 -275 433q-288 413 -328 565h-16q25 -219 25 -396q0 -247 14 -602h-246q15 310 15 681q0 365 -15 621h297q0 -53 247 -423q263 -393 302 -533h15q-24 223 -24 400q0 271 -14 556h250q-14 -248 -14 -621q0 -376 14 -681z" />
    <glyph glyph-name="Xi" unicode="&#x39e;" horiz-adv-x="1079" 
d="M1013 237l-8 -237h-939l8 237q238 -18 478 -18q226 0 461 18zM999 1302l-9 -235q-255 17 -458 17q-206 0 -445 -17l7 235h905zM876 563q-151 9 -324 9t-344 -9v224q187 -11 340 -11q152 0 328 11v-224z" />
    <glyph glyph-name="Omicron" unicode="&#x39f;" horiz-adv-x="1427" 
d="M1350 675q0 -307 -188 -509t-465 -202q-264 0 -442 185.5t-178 471.5q0 307 188 509t465 202q264 0 442 -185t178 -472zM1074 646q0 209 -107 339t-264 130q-146 0 -248 -131t-102 -331q0 -208 107.5 -338.5t263.5 -130.5q146 0 248 131.5t102 330.5z" />
    <glyph glyph-name="Pi" unicode="&#x3a0;" horiz-adv-x="1315" 
d="M1171 0h-280q10 284 10 660q0 216 18 433h-523q18 -209 18 -420q0 -379 10 -673h-280q12 345 12 685q0 328 -12 617h1027q-12 -275 -12 -617q0 -348 12 -685z" />
    <glyph glyph-name="Rho" unicode="&#x3a1;" horiz-adv-x="1138" 
d="M1094 961q0 -239 -177.5 -353t-435.5 -114q-47 0 -67 2q0 -188 11 -496h-281q13 289 13 681q0 360 -13 621h174q37 0 142 3t182 3q190 0 321 -86t131 -261zM836 906q0 214 -284 214q-71 0 -150 -15q11 -189 11 -428q25 -2 58 -2q365 0 365 231z" />
    <glyph glyph-name="Sigma" unicode="&#x3a3;" horiz-adv-x="1092" 
d="M1037 254l-9 -254h-1006q0 77 472 673v15q-448 513 -448 614h944l-9 -219q-295 23 -509 23l1 -18q2 -42 313 -362q-390 -431 -390 -479v-16q386 0 641 23z" />
    <glyph glyph-name="Tau" unicode="&#x3a4;" horiz-adv-x="1077" 
d="M1055 1302l-7 -215q-200 15 -377 15q-2 -189 -2 -421q0 -360 11 -681h-280q13 318 13 681q0 228 -4 421q-141 0 -387 -16l8 216h1025z" />
    <glyph glyph-name="Upsilon" unicode="&#x3a5;" horiz-adv-x="1130" 
d="M1119 1302q0 -41 -114 -221q-175 -275 -213 -342q-114 -203 -114 -301q0 -220 12 -438h-284q11 219 11 441q0 102 -105 309q-49 96 -196 343q-105 177 -105 209h314q0 -36 125.5 -303.5t125.5 -345.5h16q0 72 122.5 328t122.5 321h282z" />
    <glyph glyph-name="Phi" unicode="&#x3a6;" horiz-adv-x="1441" 
d="M1386 691q0 -216 -145 -378t-385 -207q3 -88 7 -146h-283q2 27 7 143q-245 31 -388.5 182.5t-143.5 365.5q0 221 144 383.5t386 206.5l-5 101h283q-1 -18 -6 -98q245 -32 387 -183.5t142 -369.5zM598 681q0 180 -6 389q-283 -69 -283 -375q0 -165 77.5 -272t205.5 -147
q6 208 6 405zM1131 675q0 311 -281 394q-5 -200 -5 -388q0 -186 5 -407q281 75 281 401z" />
    <glyph glyph-name="Chi" unicode="&#x3a7;" horiz-adv-x="1203" 
d="M1192 0h-335q0 35 -114 257q-111 217 -159 283h-16q-43 -59 -144 -277q-104 -223 -104 -263h-309q0 30 194.5 337t249.5 361v15q-54 62 -213 304q-164 253 -164 285h322q0 -32 93 -215t131 -229h16q37 47 125.5 229t88.5 215h296q0 -28 -171.5 -277.5t-219.5 -296.5v-15
q66 -72 249.5 -374t183.5 -339z" />
    <glyph glyph-name="Psi" unicode="&#x3a8;" horiz-adv-x="1472" 
d="M1406 1264q-35 -143 -35 -320q0 -430 -506 -513q2 -246 11 -431h-283q5 84 12 427q-246 31 -365 129q-140 115 -140 349q0 189 -34 359l204 31q49 -84 68 -291q16 -181 70 -266q61 -99 199 -125q0 399 -14 689h283q-13 -284 -13 -689q140 20 198 116q49 81 67 275
q19 207 68 291z" />
    <glyph glyph-name="uni03A9" unicode="&#x3a9;" horiz-adv-x="1444" 
d="M1378 221l-10 -221h-545q0 180 105 312q142 190 142 411q0 172 -102 280.5t-255 108.5q-149 0 -243.5 -95.5t-94.5 -257.5q0 -245 151 -447q97 -142 97 -312h-546l-11 221q180 -30 314 -30l-1 16q0 24 -81.5 101.5t-139 176t-57.5 254.5q0 264 175 429.5t458 165.5
q269 0 439 -154.5t170 -397.5q0 -160 -62 -269.5t-148 -197t-86 -107.5l-1 -16q157 0 332 29z" />
    <glyph glyph-name="Iotadieresis" unicode="&#x3aa;" horiz-adv-x="571" 
d="M427 0h-283q13 310 13 681q0 365 -13 621h283q-13 -252 -13 -621q0 -377 13 -681zM622 1567q0 -58 -39.5 -101.5t-110.5 -43.5q-60 0 -93.5 37.5t-33.5 90.5q0 57 40.5 100t111.5 43q60 0 92.5 -37t32.5 -89zM227 1567q0 -58 -39.5 -101.5t-110.5 -43.5q-59 0 -92.5 37.5
t-33.5 90.5q0 58 40 100.5t111 42.5q60 0 92.5 -37t32.5 -89z" />
    <glyph glyph-name="Upsilondieresis" unicode="&#x3ab;" horiz-adv-x="1130" 
d="M1119 1302q0 -41 -114 -221q-175 -275 -213 -342q-114 -203 -114 -301q0 -220 12 -438h-284q11 219 11 441q0 102 -105 309q-49 96 -196 343q-105 177 -105 209h314q0 -36 125.5 -303.5t125.5 -345.5h16q0 72 122.5 328t122.5 321h282zM917 1567q0 -58 -39.5 -101.5
t-110.5 -43.5q-60 0 -93.5 37.5t-33.5 90.5q0 57 40.5 100t111.5 43q60 0 92.5 -37t32.5 -89zM522 1567q0 -58 -39.5 -101.5t-110.5 -43.5q-59 0 -92.5 37.5t-33.5 90.5q0 58 40 100.5t111 42.5q60 0 92.5 -37t32.5 -89z" />
    <glyph glyph-name="alphatonos" unicode="&#x3ac;" horiz-adv-x="1187" 
d="M1167 188l-16 -181q-87 -28 -161 -28q-181 0 -222 226h-16q-44 -105 -124 -172.5t-183 -67.5q-202 0 -289.5 136.5t-87.5 346.5q0 234 119 385.5t326 151.5q165 0 248 -178h15q9 81 37 164l225 -21q-59 -192 -59 -507q0 -157 25 -214.5t80 -57.5q41 0 83 17zM746 598
q-81 198 -217 198q-98 0 -148 -83.5t-50 -227.5q0 -141 47 -234t127 -93q201 0 241 440zM922 1510q0 -22 -134.5 -195t-134.5 -199h-176q0 33 79.5 203t79.5 191h286z" />
    <glyph glyph-name="epsilontonos" unicode="&#x3ad;" horiz-adv-x="940" 
d="M864 239l-17 -191q-147 -75 -353 -75q-418 0 -418 274q0 101 63 158.5t149 71.5v15q-197 54 -197 216q0 127 109.5 200t297.5 73q198 0 332 -35l-32 -182q-137 45 -274 45q-184 0 -184 -106q0 -123 246 -123q63 0 145 8l-20 -175q-69 9 -125 9q-257 0 -257 -135
q0 -133 207 -133q146 0 328 85zM900 1510q0 -22 -134.5 -195t-134.5 -199h-176q0 33 79.5 203t79.5 191h286z" />
    <glyph glyph-name="etatonos" unicode="&#x3ae;" horiz-adv-x="1117" 
d="M1017 -433l-254 -33q-22 196 -22 570q0 53 5 188.5t5 219.5q0 161 -35 213.5t-114 52.5q-123 0 -220 -131q0 -417 -15 -652l-264 10q38 226 38 487q0 253 -103 410l235 70q23 -27 47 -72t31 -91h15q126 174 314 174q319 0 319 -330q0 -70 -7.5 -211.5t-7.5 -232.5
q0 -396 33 -642zM936 1510q0 -22 -134.5 -195t-134.5 -199h-176q0 33 79.5 203t79.5 191h286z" />
    <glyph glyph-name="iotatonos" unicode="&#x3af;" horiz-adv-x="522" 
d="M522 188l-16 -179q-79 -30 -151 -30q-141 0 -199 78t-58 349q0 281 19 543l240 23q-22 -216 -22 -503q0 -189 22 -243.5t83 -54.5q33 0 82 17zM585 1510q0 -22 -134.5 -195t-134.5 -199h-176q0 33 79.5 203t79.5 191h286z" />
    <glyph glyph-name="upsilondieresistonos" unicode="&#x3b0;" horiz-adv-x="1095" 
d="M1026 595q0 -313 -145 -470.5t-338 -157.5q-199 0 -303.5 98.5t-104.5 343.5q0 333 -81 522l271 41q64 -171 64 -418q0 -227 45 -309t138 -82q194 0 194 397q0 219 -59 387l130 25q189 -123 189 -377zM880 1650q0 -22 -139.5 -195t-139.5 -199h-156q0 33 74.5 203
t74.5 191h286zM955 1256q0 -57 -39 -100t-109 -43q-59 0 -92 37t-33 89q0 57 40 99t110 42q59 0 91 -36t32 -88zM407 1256q0 -57 -39.5 -100t-109.5 -43q-59 0 -91.5 37t-32.5 89q0 57 39.5 99t109.5 42q59 0 91.5 -36t32.5 -88z" />
    <glyph glyph-name="alpha" unicode="&#x3b1;" horiz-adv-x="1187" 
d="M1167 188l-16 -181q-87 -28 -161 -28q-181 0 -222 226h-16q-44 -105 -124 -172.5t-183 -67.5q-202 0 -289.5 136.5t-87.5 346.5q0 234 119 385.5t326 151.5q165 0 248 -178h15q9 81 37 164l225 -21q-59 -192 -59 -507q0 -157 25 -214.5t80 -57.5q41 0 83 17zM746 598
q-81 198 -217 198q-98 0 -148 -83.5t-50 -227.5q0 -141 47 -234t127 -93q201 0 241 440z" />
    <glyph glyph-name="beta" unicode="&#x3b2;" horiz-adv-x="1101" 
d="M1049 460q0 -214 -132.5 -350t-332.5 -136q-135 0 -199 44h-13q10 -243 64 -452l-281 -43q-56 170 -56 1245q0 365 115.5 516.5t367.5 151.5q166 0 280.5 -69t114.5 -223q0 -218 -238 -278v-15q310 -83 310 -391zM794 434q0 154 -83 242q-75 80 -186 80q-40 0 -78 -4
l19 152q31 -7 69 -7q86 0 145 49t59 143q0 77 -47.5 123t-125.5 46q-141 0 -181.5 -93t-40.5 -380q0 -300 16 -595q72 -39 195 -39q104 0 171.5 77t67.5 206z" />
    <glyph glyph-name="gamma" unicode="&#x3b3;" horiz-adv-x="1022" 
d="M1002 950q0 -227 -198.5 -601t-205.5 -399q23 -222 23 -391l-230 -37q-35 92 -35 231q0 125 35 247q-28 318 -149 548t-228 348l247 75q81 -78 168.5 -283t124.5 -484h14q1 5 94 239.5t93 527.5z" />
    <glyph glyph-name="delta" unicode="&#x3b4;" horiz-adv-x="1125" 
d="M1056 468q0 -242 -145.5 -374.5t-361.5 -132.5q-213 0 -346.5 114t-133.5 317q0 194 113 319.5t249 168.5v15q-215 153 -215 294q0 259 411 259q245 0 388 -69l-44 -196q-181 89 -359 89q-171 0 -171 -71q0 -44 159 -148q210 -138 297 -228q159 -165 159 -357zM797 429
q0 209 -248 374q-218 -122 -218 -373q0 -134 66 -210t172 -76q101 0 164.5 74t63.5 211z" />
    <glyph glyph-name="epsilon" unicode="&#x3b5;" horiz-adv-x="940" 
d="M864 239l-17 -191q-147 -75 -353 -75q-418 0 -418 274q0 101 63 158.5t149 71.5v15q-197 54 -197 216q0 127 109.5 200t297.5 73q198 0 332 -35l-32 -182q-137 45 -274 45q-184 0 -184 -106q0 -123 246 -123q63 0 145 8l-20 -175q-69 9 -125 9q-257 0 -257 -135
q0 -133 207 -133q146 0 328 85z" />
    <glyph glyph-name="zeta" unicode="&#x3b6;" horiz-adv-x="894" 
d="M874 -71q0 -161 -142 -296l-106 38q28 73 28 171q0 113 -203 157q-177 38 -260 110q-122 106 -122 322q0 279 223 545q92 111 222 211v16q-122 -24 -318 -24l23 208q356 0 573 43l38 -171q-147 -81 -252 -187q-253 -254 -253 -587q0 -137 60 -196q48 -46 182 -76
q307 -68 307 -284z" />
    <glyph glyph-name="eta" unicode="&#x3b7;" horiz-adv-x="1117" 
d="M1017 -433l-254 -33q-22 196 -22 570q0 53 5 188.5t5 219.5q0 161 -35 213.5t-114 52.5q-123 0 -220 -131q0 -417 -15 -652l-264 10q38 226 38 487q0 253 -103 410l235 70q23 -27 47 -72t31 -91h15q126 174 314 174q319 0 319 -330q0 -70 -7.5 -211.5t-7.5 -232.5
q0 -396 33 -642z" />
    <glyph glyph-name="theta" unicode="&#x3b8;" horiz-adv-x="1177" 
d="M1108 725q0 -365 -149.5 -565t-385.5 -200q-229 0 -366.5 180t-137.5 526q0 365 150 566t387 201q227 0 364.5 -181t137.5 -527zM849 620h-517q26 -476 257 -476q254 0 260 476zM841 816q-37 433 -252 433q-239 0 -258 -433h510z" />
    <glyph glyph-name="iota" unicode="&#x3b9;" horiz-adv-x="522" 
d="M522 188l-16 -179q-79 -30 -151 -30q-141 0 -199 78t-58 349q0 281 19 543l240 23q-22 -216 -22 -503q0 -189 22 -243.5t83 -54.5q33 0 82 17z" />
    <glyph glyph-name="kappa" unicode="&#x3ba;" horiz-adv-x="1117" 
d="M1055 10l-282 -31q0 60 -235 366h-15q-88 -91 -206 -364l-225 27q57 207 57 484q0 244 -33 448l288 31q-11 -168 -11 -408q0 -81 -11 -177h15q10 28 191 285.5t181 299.5l279 -21q0 -58 -346 -413v-15q353 -432 353 -512z" />
    <glyph glyph-name="lambda" unicode="&#x3bb;" horiz-adv-x="1055" 
d="M1048 57l-263 -93q-173 149 -227 719h-14q0 -45 -121.5 -319.5t-121.5 -373.5l-275 20q0 95 238 477.5t253 432.5q-11 182 -67.5 229t-161.5 47q-62 0 -142 -12l24 208q95 23 171 23q173 0 246.5 -89t106.5 -352q93 -726 354 -917z" />
    <glyph glyph-name="uni03BC" unicode="&#x3bc;" horiz-adv-x="1198" 
d="M1184 187l-16 -180q-77 -28 -144 -28q-171 0 -222 121h-18q-106 -121 -237 -121q-170 0 -249 121h-15q0 -293 153 -512l-233 -70q-71 88 -71 234q0 57 13 235.5t13 276.5q0 376 -40 690l284 17q-13 -172 -13 -383q0 -246 43.5 -332.5t152.5 -86.5q105 0 178 103
q0 495 -17 678l276 21q-19 -260 -19 -490q0 -198 20.5 -254.5t73.5 -56.5q37 0 87 17z" />
    <glyph glyph-name="nu" unicode="&#x3bd;" horiz-adv-x="1022" 
d="M952 727q0 -128 -66 -252t-187 -300q-92 -133 -96 -175h-212q-22 239 -158.5 535.5t-207.5 377.5l264 63q41 -38 141.5 -309.5t117.5 -449.5h14q7 22 80 181.5t73 541.5l184 31q53 -86 53 -244z" />
    <glyph glyph-name="xi" unicode="&#x3be;" horiz-adv-x="915" 
d="M884 -71q0 -161 -142 -296l-106 38q28 84 28 166q0 115 -203 162q-175 41 -256 101q-125 94 -125 274q0 128 78 220.5t179 112.5v15q-169 46 -169 202q0 169 261 269v15q-147 -24 -294 -24l24 208q390 0 633 43l38 -176q-424 -100 -424 -272q0 -83 65 -112
q42 -19 136 -19q68 0 165 9l-23 -222q-70 13 -142 13q-124 0 -199 -62t-75 -161q0 -103 61 -153q51 -42 183 -72q143 -33 225 -93.5t82 -185.5z" />
    <glyph glyph-name="omicron" unicode="&#x3bf;" horiz-adv-x="1144" 
d="M1075 497q0 -252 -155 -394t-365 -142q-200 0 -343 129.5t-143 364.5q0 253 156 396t366 143q199 0 341.5 -130.5t142.5 -366.5zM814 467q0 145 -68 243.5t-177 98.5q-106 0 -172.5 -92t-66.5 -230q0 -145 68 -243.5t177 -98.5q106 0 172.5 92t66.5 230z" />
    <glyph glyph-name="pi" unicode="&#x3c0;" horiz-adv-x="1264" 
d="M1198 961l-7 -214q-120 7 -237 7q-6 -133 -6 -277q0 -307 123 -307q41 0 92 18l-15 -181q-82 -28 -157 -28q-130 0 -204.5 76t-74.5 288q0 218 40 397v14h-242q-32 -589 -109 -764l-265 20q41 95 73 203q77 260 93 541h-78q-80 0 -170 -44l-50 115q97 125 335 125
q517 0 859 11z" />
    <glyph glyph-name="rho" unicode="&#x3c1;" horiz-adv-x="1104" 
d="M1035 501q0 -211 -116 -371t-320 -160q-170 0 -231 121h-13q10 -243 73 -525l-281 -43q-58 288 -58 914q0 303 122 430t357 127q233 0 350 -138t117 -355zM775 475q0 136 -59 234t-169 98q-207 0 -207 -321q0 -94 9 -209q72 -121 212 -121q105 0 159.5 93.5t54.5 225.5z
" />
    <glyph glyph-name="sigma1" unicode="&#x3c2;" horiz-adv-x="816" 
d="M824 -91q0 -186 -158 -276l-95 38q33 78 33 150q0 56 -39.5 96t-148.5 87q-160 68 -253.5 176t-93.5 307q0 244 145.5 368t374.5 124q130 0 220 -15l-34 -206q-86 32 -199 32q-119 0 -192 -68.5t-73 -196.5q0 -124 51.5 -191t169.5 -116q167 -69 229.5 -137.5
t62.5 -171.5z" />
    <glyph glyph-name="sigma" unicode="&#x3c3;" horiz-adv-x="1185" 
d="M1136 820q-148 -49 -289 -49v-21q173 -113 173 -324q0 -225 -137.5 -345t-348.5 -120q-198 0 -331.5 129.5t-133.5 364.5q0 254 150.5 382.5t344.5 128.5q354 0 521 20zM769 447q0 177 -103 324q-41 8 -102 8q-234 0 -234 -292q0 -154 58.5 -246.5t166.5 -92.5
q214 0 214 299z" />
    <glyph glyph-name="tau" unicode="&#x3c4;" horiz-adv-x="991" 
d="M944 961l-8 -211q-140 4 -367 4q-6 -133 -6 -277q0 -307 133 -307q56 0 135 18l-15 -181q-108 -28 -217 -28q-130 0 -201 80.5t-71 293.5q0 208 40 387v14h-122q-108 0 -191 -44l-50 115q82 125 304 125q364 0 636 11z" />
    <glyph glyph-name="upsilon" unicode="&#x3c5;" horiz-adv-x="1095" 
d="M1026 595q0 -313 -145 -470.5t-338 -157.5q-199 0 -303.5 98.5t-104.5 343.5q0 333 -81 522l271 41q64 -171 64 -418q0 -227 45 -309t138 -82q194 0 194 397q0 219 -59 387l130 25q189 -123 189 -377z" />
    <glyph glyph-name="phi" unicode="&#x3c6;" horiz-adv-x="1537" 
d="M1473 570q0 -214 -157.5 -389t-432.5 -210q2 -62 2 -114q0 -219 -59 -347l-196 9q23 143 23 301q0 79 -6 151q-582 62 -582 518q0 210 123 338.5t333 171.5l58 -147q-129 -44 -191.5 -120.5t-62.5 -210.5q0 -328 316 -373q-17 195 -17 353q0 254 116.5 373.5t292.5 119.5
q225 0 332.5 -116t107.5 -308zM1212 534q0 275 -179 275q-183 0 -183 -306q0 -225 19 -355q169 31 256 135.5t87 250.5z" />
    <glyph glyph-name="chi" unicode="&#x3c7;" horiz-adv-x="1032" 
d="M1028 -227l-22 -229q-63 -27 -141 -27q-87 0 -154 107q-72 114 -203 479h-17l-106 -252q-98 -231 -98 -328l-268 20q0 165 386 773q-117 275 -180 354q-52 64 -133 64q-32 0 -56 -7l21 227q45 23 120 23q102 0 167 -96.5t177 -419.5h12q49 113 97 216q89 195 89 294
l263 -21q0 -176 -356 -688q142 -312 218 -416q59 -81 118 -81q36 0 66 8z" />
    <glyph glyph-name="psi" unicode="&#x3c8;" horiz-adv-x="1491" 
d="M1419 542q0 -231 -147.5 -375.5t-401.5 -174.5q2 -252 8 -428l-240 -41q3 90 8 465q-260 14 -390.5 125t-130.5 360q0 307 -36 456l211 41q78 -156 78 -410q0 -198 56 -290t214 -112q3 183 3 373q0 529 -13 877l240 15q-12 -339 -12 -892q0 -127 2 -371q172 29 231 139.5
t59 358.5q0 131 -52 288l154 30q159 -156 159 -434z" />
    <glyph glyph-name="omega" unicode="&#x3c9;" horiz-adv-x="1543" 
d="M1469 462q0 -495 -432 -495q-85 0 -170 47t-109 102h-21q-32 -57 -108 -103.5t-157 -46.5q-397 0 -397 449q0 331 255 556l147 -92q-138 -188 -138 -375q0 -180 49 -260.5t153 -80.5q96 0 143 109v21q-33 113 -33 271q0 196 51 273l132 10q59 -78 59 -293
q0 -165 -31 -263v-20q47 -108 147 -108q197 0 197 336q0 194 -145 370l131 92q277 -200 277 -499z" />
    <glyph glyph-name="iotadieresis" unicode="&#x3ca;" horiz-adv-x="522" 
d="M522 188l-16 -179q-79 -30 -151 -30q-141 0 -199 78t-58 349q0 281 19 543l240 23q-22 -216 -22 -503q0 -189 22 -243.5t83 -54.5q33 0 82 17zM594 1251q0 -58 -39.5 -101.5t-110.5 -43.5q-60 0 -93.5 37.5t-33.5 90.5q0 57 40.5 100t111.5 43q60 0 92.5 -37t32.5 -89z
M199 1251q0 -58 -39.5 -101.5t-110.5 -43.5q-59 0 -92.5 37.5t-33.5 90.5q0 58 40 100.5t111 42.5q60 0 92.5 -37t32.5 -89z" />
    <glyph glyph-name="upsilondieresis" unicode="&#x3cb;" horiz-adv-x="1095" 
d="M1026 595q0 -313 -145 -470.5t-338 -157.5q-199 0 -303.5 98.5t-104.5 343.5q0 333 -81 522l271 41q64 -171 64 -418q0 -227 45 -309t138 -82q194 0 194 397q0 219 -59 387l130 25q189 -123 189 -377zM913 1251q0 -58 -39.5 -101.5t-110.5 -43.5q-60 0 -93.5 37.5
t-33.5 90.5q0 57 40.5 100t111.5 43q60 0 92.5 -37t32.5 -89zM518 1251q0 -58 -39.5 -101.5t-110.5 -43.5q-59 0 -92.5 37.5t-33.5 90.5q0 58 40 100.5t111 42.5q60 0 92.5 -37t32.5 -89z" />
    <glyph glyph-name="omicrontonos" unicode="&#x3cc;" horiz-adv-x="1144" 
d="M1075 497q0 -252 -155 -394t-365 -142q-200 0 -343 129.5t-143 364.5q0 253 156 396t366 143q199 0 341.5 -130.5t142.5 -366.5zM814 467q0 145 -68 243.5t-177 98.5q-106 0 -172.5 -92t-66.5 -230q0 -145 68 -243.5t177 -98.5q106 0 172.5 92t66.5 230zM956 1510
q0 -22 -134.5 -195t-134.5 -199h-176q0 33 79.5 203t79.5 191h286z" />
    <glyph glyph-name="upsilontonos" unicode="&#x3cd;" horiz-adv-x="1095" 
d="M1026 595q0 -313 -145 -470.5t-338 -157.5q-199 0 -303.5 98.5t-104.5 343.5q0 333 -81 522l271 41q64 -171 64 -418q0 -227 45 -309t138 -82q194 0 194 397q0 219 -59 387l130 25q189 -123 189 -377zM907 1510q0 -22 -134.5 -195t-134.5 -199h-176q0 33 79.5 203
t79.5 191h286z" />
    <glyph glyph-name="omegatonos" unicode="&#x3ce;" horiz-adv-x="1543" 
d="M1469 462q0 -495 -432 -495q-85 0 -170 47t-109 102h-21q-32 -57 -108 -103.5t-157 -46.5q-397 0 -397 449q0 331 255 556l147 -92q-138 -188 -138 -375q0 -180 49 -260.5t153 -80.5q96 0 143 109v21q-33 113 -33 271q0 196 51 273l132 10q59 -78 59 -293
q0 -165 -31 -263v-20q47 -108 147 -108q197 0 197 336q0 194 -145 370l131 92q277 -200 277 -499zM1147 1510q0 -22 -134.5 -195t-134.5 -199h-176q0 33 79.5 203t79.5 191h286z" />
    <glyph glyph-name="uni0400" unicode="&#x400;" horiz-adv-x="1080" 
d="M1003 220l-8 -220h-851q13 302 13 681q0 364 -13 621h812l-11 -219q-300 16 -544 16q10 -139 10 -328q209 0 447 11v-209q-234 10 -447 10q0 -203 8 -380q274 0 584 17zM737 1416h-175q-10 16 -143 139t-133 135h291q0 -11 80 -134.5t80 -139.5z" />
    <glyph glyph-name="uni0401" unicode="&#x401;" horiz-adv-x="1080" 
d="M1003 220l-8 -220h-851q13 302 13 681q0 364 -13 621h812l-11 -219q-300 16 -544 16q10 -139 10 -328q209 0 447 11v-209q-234 10 -447 10q0 -203 8 -380q274 0 584 17zM894 1567q0 -58 -39.5 -101.5t-110.5 -43.5q-60 0 -93.5 37.5t-33.5 90.5q0 57 40.5 100t111.5 43
q60 0 92.5 -37t32.5 -89zM499 1567q0 -58 -39.5 -101.5t-110.5 -43.5q-59 0 -92.5 37.5t-33.5 90.5q0 58 40 100.5t111 42.5q60 0 92.5 -37t32.5 -89z" />
    <glyph glyph-name="uni0402" unicode="&#x402;" horiz-adv-x="1315" 
d="M1260 406q0 -207 -140.5 -314.5t-373.5 -107.5l-21 188q271 0 271 218q0 197 -289 197q-43 0 -82 -10q0 -209 9 -577h-279q13 322 13 681q0 245 -5 421q-141 0 -341 -16l8 216h995l-7 -215q-203 15 -389 15q-4 -112 -4 -326q46 9 104 9q531 0 531 -379z" />
    <glyph glyph-name="uni0403" unicode="&#x403;" horiz-adv-x="997" 
d="M975 1302l-7 -228q-322 15 -571 15q16 -158 16 -476q0 -416 9 -613h-278q12 272 12 648q0 437 -12 654h831zM914 1690q0 -12 -133 -135t-143 -139h-175q0 16 80 139.5t80 134.5h291z" />
    <glyph glyph-name="uni0404" unicode="&#x404;" horiz-adv-x="1137" 
d="M1082 234l-17 -227q-219 -34 -348 -34q-640 0 -640 650q0 309 166.5 503t500.5 194q155 0 319 -28l-34 -223q-161 40 -310 40q-327 0 -372 -334q224 0 532 7v-209q-297 9 -529 9q14 -202 104 -299t289 -97q143 0 339 48z" />
    <glyph glyph-name="uni0405" unicode="&#x405;" horiz-adv-x="1071" 
d="M994 355q0 -391 -562 -391q-191 0 -355 46l49 223q162 -56 306 -56q160 0 230 31t70 104q0 76 -66 128q-57 46 -231 120q-158 68 -235 148q-97 101 -97 249q0 172 127.5 269t366.5 97q196 0 329 -33l-37 -222q-135 49 -292 49q-236 0 -236 -126q0 -67 55 -109
q48 -36 209 -101q171 -69 256 -152q113 -111 113 -274z" />
    <glyph glyph-name="uni0406" unicode="&#x406;" horiz-adv-x="571" 
d="M427 0h-283q13 310 13 681q0 365 -13 621h283q-13 -252 -13 -621q0 -377 13 -681z" />
    <glyph glyph-name="uni0407" unicode="&#x407;" horiz-adv-x="571" 
d="M427 0h-283q13 310 13 681q0 365 -13 621h283q-13 -252 -13 -621q0 -377 13 -681zM615 1567q0 -58 -39.5 -101.5t-110.5 -43.5q-60 0 -93.5 37.5t-33.5 90.5q0 57 40.5 100t111.5 43q60 0 92.5 -37t32.5 -89zM220 1567q0 -58 -39.5 -101.5t-110.5 -43.5q-59 0 -92.5 37.5
t-33.5 90.5q0 58 40 100.5t111 42.5q60 0 92.5 -37t32.5 -89z" />
    <glyph glyph-name="uni0408" unicode="&#x408;" horiz-adv-x="818" 
d="M696 1302q-12 -298 -12 -736q0 -333 -137 -473q-116 -120 -361 -120q-88 0 -175 21l18 215q67 -30 134 -30q131 0 190 57q85 82 85 310q0 457 -15 756h273z" />
    <glyph glyph-name="uni0409" unicode="&#x409;" horiz-adv-x="1754" 
d="M1435 390q0 197 -289 197q-43 0 -82 -10q0 -209 8 -392q34 -8 67 -8q296 0 296 213zM1699 406q0 -206 -159 -309t-430 -103q-168 0 -311 6q11 288 11 668q0 209 12 436h-141q-15 -77 -38.5 -165t-54.5 -180.5t-68.5 -184.5t-81 -177.5t-92 -159.5t-101.5 -129.5
t-110 -88.5t-116 -36l-10 250q38 7 84 58t95.5 133.5t98 188.5t91 222.5t76 236.5t51.5 230h573q-14 -221 -14 -526q46 9 104 9q531 0 531 -379z" />
    <glyph glyph-name="uni040A" unicode="&#x40a;" horiz-adv-x="1785" 
d="M1730 406q0 -206 -159 -309t-430 -103q-168 0 -314 6q11 331 11 574h-421q0 -218 10 -574h-283q13 330 13 681q0 355 -13 621h283q-12 -281 -12 -520h424q0 211 -13 520h283q-13 -226 -14 -526q46 9 104 9q531 0 531 -379zM1466 390q0 197 -289 197q-43 0 -82 -10
q0 -209 8 -392q34 -8 67 -8q296 0 296 213z" />
    <glyph glyph-name="uni040B" unicode="&#x40b;" horiz-adv-x="1367" 
d="M1268 0h-282q10 181 10 440q0 147 -199 147q-113 0 -172 -20q0 -199 9 -567h-279q13 322 13 681q0 245 -5 421q-141 0 -341 -16l8 216h995l-7 -215q-203 15 -389 15q-4 -112 -4 -336q66 19 214 19q421 0 421 -289q0 -249 8 -496z" />
    <glyph glyph-name="uni040C" unicode="&#x40c;" horiz-adv-x="1221" 
d="M1177 0h-314q-9 15 -27 68q-82 316 -154 407t-206 91q-38 0 -61 -4q0 -289 11 -562h-282q13 302 13 681q0 364 -13 621h282q-11 -296 -11 -539q41 -2 61 -2q274 0 360 479q6 35 24 62h270q-13 -31 -40 -109q-66 -234 -141.5 -341t-203.5 -161v-11q133 -43 204.5 -143
t183.5 -427q14 -42 44 -110zM982 1690q0 -12 -133 -135t-143 -139h-175q0 16 80 139.5t80 134.5h291z" />
    <glyph glyph-name="uni040D" unicode="&#x40d;" horiz-adv-x="1389" 
d="M1245 0h-283q14 165 14 499q0 135 11 381h-15q-35 -90 -338 -448q-274 -326 -274 -432h-216q17 265 17 618q0 359 -17 684h282q-14 -254 -14 -549q0 -132 -14 -330h15q42 99 345 453q269 315 269 426h218q-15 -325 -15 -684q0 -353 15 -618zM843 1416h-175
q-10 16 -143 139t-133 135h291q0 -11 80 -134.5t80 -139.5z" />
    <glyph glyph-name="uni040E" unicode="&#x40e;" horiz-adv-x="1091" 
d="M1114 1302q0 -56 -128.5 -395.5t-250.5 -557.5t-251 -303.5t-364 -85.5l-19 209q180 0 265.5 38.5t134.5 160.5q0 67 -239 489.5t-239 444.5h316q0 -28 145.5 -338.5t145.5 -353.5h11q203 567 203 692h270zM962 1664q0 -309 -355 -309q-190 0 -282 98q-76 81 -76 211
l222 26q0 -191 137 -191q91 0 116.5 49t25.5 142z" />
    <glyph glyph-name="uni040F" unicode="&#x40f;" horiz-adv-x="1300" 
d="M1156 0h-377q-26 -289 -26 -415h-202q0 127 -23 415h-384q12 302 12 644q0 348 -12 658h280q-12 -264 -12 -640v-458h475v449q0 379 -11 649h280q-12 -313 -12 -658q0 -337 12 -644z" />
    <glyph glyph-name="uni0410" unicode="&#x410;" horiz-adv-x="1290" 
d="M1279 0h-320q0 66 -91 374h-462q-94 -303 -94 -374h-301q0 39 233.5 640t233.5 662h378q0 -57 211.5 -652.5t211.5 -649.5zM817 565q-171 516 -171 558h-16q0 -39 -177 -558h364z" />
    <glyph glyph-name="uni0411" unicode="&#x411;" horiz-adv-x="1201" 
d="M1146 392q0 -398 -650 -398q-113 0 -352 6q13 306 13 681q0 395 -13 621h913l-8 -219q-372 16 -652 16q12 -127 12 -326q81 4 141 4q596 0 596 -385zM877 381q0 199 -349 199q-69 0 -119 -5q0 -209 8 -385q35 -8 103 -8q185 0 271 44.5t86 154.5z" />
    <glyph glyph-name="uni0412" unicode="&#x412;" horiz-adv-x="1224" 
d="M1147 392q0 -398 -651 -398q-113 0 -352 6q13 302 13 681q0 364 -13 621h162q46 0 154.5 3t169.5 3q443 0 443 -288q0 -222 -227 -294v-15q121 -19 211 -94.5t90 -224.5zM877 381q0 199 -349 199q-69 0 -119 -5q0 -209 9 -385q34 -8 102 -8q185 0 271 44.5t86 154.5z
M804 941q0 179 -224 179q-103 0 -183 -15q11 -101 11 -347q38 -2 80 -2q316 0 316 185z" />
    <glyph glyph-name="uni0413" unicode="&#x413;" horiz-adv-x="997" 
d="M975 1302l-7 -228q-322 15 -571 15q16 -158 16 -476q0 -416 9 -613h-278q12 272 12 648q0 437 -12 654h831z" />
    <glyph glyph-name="uni0414" unicode="&#x414;" horiz-adv-x="1359" 
d="M1337 204q0 -50 -28 -282t-28 -337h-199q0 127 -3 423q-165 10 -425 10q-219 0 -392 -10q-54 -302 -54 -423h-191q0 97 -3.5 311.5t-3.5 307.5h122q194 562 446 1098h569q-12 -288 -12 -592q0 -274 16 -506h186zM889 204q-11 173 -11 464q0 264 -5 436h-165
q-241 -552 -347 -900h528z" />
    <glyph glyph-name="uni0415" unicode="&#x415;" horiz-adv-x="1080" 
d="M1003 220l-8 -220h-851q13 302 13 681q0 364 -13 621h812l-11 -219q-300 16 -544 16q10 -139 10 -328q209 0 447 11v-209q-234 10 -447 10q0 -203 8 -380q274 0 584 17z" />
    <glyph glyph-name="uni0416" unicode="&#x416;" horiz-adv-x="1747" 
d="M1703 0h-315q-8 15 -26 68q-79 303 -150 400.5t-197 97.5q-10 0 -17 -4q0 -289 11 -562h-271q11 273 11 562q-18 4 -28 4q-125 0 -196 -97.5t-150 -400.5q-9 -34 -27 -68h-304q14 32 44 110q111 326 183 426.5t205 143.5v11q-130 55 -203 157t-142 345q-12 44 -40 109
h278q8 -12 23 -62q87 -479 341 -479q9 0 16 2q0 243 -11 539h271q-11 -296 -11 -539q9 -2 18 -2q259 0 346 479q6 35 23 62h270q-13 -31 -39 -109q-66 -234 -141.5 -341t-203.5 -161v-11q133 -43 204.5 -143t183.5 -427q14 -42 44 -110z" />
    <glyph glyph-name="uni0417" unicode="&#x417;" horiz-adv-x="1110" 
d="M1044 374q0 -201 -158.5 -305.5t-433.5 -104.5q-219 0 -397 62l28 224q179 -79 369 -79q167 0 244.5 44t77.5 152q0 200 -389 200q-75 0 -170 -5l25 207q92 -5 177 -5q304 0 304 191q0 78 -68 121.5t-178 43.5q-209 0 -357 -58l26 210q176 52 418 52q190 0 309 -80
t119 -226q0 -213 -237 -297v-15q122 -21 206.5 -103.5t84.5 -228.5z" />
    <glyph glyph-name="uni0418" unicode="&#x418;" horiz-adv-x="1389" 
d="M1245 0h-283q14 165 14 499q0 135 11 381h-15q-35 -90 -338 -448q-274 -326 -274 -432h-216q17 265 17 618q0 359 -17 684h282q-14 -254 -14 -549q0 -132 -14 -330h15q42 99 345 453q269 315 269 426h218q-15 -325 -15 -684q0 -353 15 -618z" />
    <glyph glyph-name="uni0419" unicode="&#x419;" horiz-adv-x="1389" 
d="M1245 0h-283q14 165 14 499q0 135 11 381h-15q-35 -90 -338 -448q-274 -326 -274 -432h-216q17 265 17 618q0 359 -17 684h282q-14 -254 -14 -549q0 -132 -14 -330h15q42 99 345 453q269 315 269 426h218q-15 -325 -15 -684q0 -353 15 -618zM1079 1664q0 -309 -355 -309
q-190 0 -282 98q-76 81 -76 211l222 26q0 -191 137 -191q91 0 116.5 49t25.5 142z" />
    <glyph glyph-name="uni041A" unicode="&#x41a;" horiz-adv-x="1221" 
d="M1177 0h-314q-9 15 -27 68q-82 316 -154 407t-206 91q-38 0 -61 -4q0 -289 11 -562h-282q13 302 13 681q0 364 -13 621h282q-11 -296 -11 -539q41 -2 61 -2q274 0 360 479q6 35 24 62h270q-13 -31 -40 -109q-66 -234 -141.5 -341t-203.5 -161v-11q133 -43 204.5 -143
t183.5 -427q14 -42 44 -110z" />
    <glyph glyph-name="uni041B" unicode="&#x41b;" horiz-adv-x="1256" 
d="M1112 1302q-12 -265 -12 -607q0 -380 12 -695h-280q12 288 12 668q0 264 -6 436h-157q-15 -77 -38.5 -165t-54.5 -180.5t-68.5 -184.5t-81 -177.5t-92 -159.5t-101.5 -129.5t-110 -88.5t-116 -36l-10 250q38 7 84 58t95.5 133.5t98 188.5t91 222.5t76 236.5t51.5 230h607
z" />
    <glyph glyph-name="uni041C" unicode="&#x41c;" horiz-adv-x="1769" 
d="M1647 0h-291q0 170 -21 573.5t-22 503.5h-15q-10 -60 -53 -222t-161.5 -477.5t-118.5 -377.5h-221q0 64 -113.5 381t-148.5 444t-56 252h-15q-1 -125 -24.5 -536t-23.5 -541h-264q0 30 72.5 601t72.5 701h387q0 -112 122.5 -494t122.5 -489h15q0 108 139.5 490t139.5 493
h384q0 -207 46.5 -738.5t46.5 -563.5z" />
    <glyph glyph-name="uni041D" unicode="&#x41d;" horiz-adv-x="1338" 
d="M1194 0h-283q10 331 10 574h-504q0 -218 10 -574h-283q13 330 13 681q0 355 -13 621h283q-12 -281 -12 -520h508q0 211 -12 520h283q-14 -254 -14 -621q0 -383 14 -681z" />
    <glyph glyph-name="uni041E" unicode="&#x41e;" horiz-adv-x="1427" 
d="M1350 675q0 -307 -188 -509t-465 -202q-264 0 -442 185.5t-178 471.5q0 307 188 509t465 202q264 0 442 -185t178 -472zM1074 646q0 209 -107 339t-264 130q-146 0 -248 -131t-102 -331q0 -208 107.5 -338.5t263.5 -130.5q146 0 248 131.5t102 330.5z" />
    <glyph glyph-name="uni041F" unicode="&#x41f;" horiz-adv-x="1286" 
d="M1142 0h-280q10 284 10 660q0 216 16 433h-491q17 -209 17 -420q0 -379 10 -673h-280q12 345 12 685q0 328 -12 617h998q-12 -275 -12 -617q0 -348 12 -685z" />
    <glyph glyph-name="uni0420" unicode="&#x420;" horiz-adv-x="1138" 
d="M1094 961q0 -239 -177.5 -353t-435.5 -114q-47 0 -67 2q0 -188 11 -496h-281q13 289 13 681q0 360 -13 621h174q37 0 142 3t182 3q190 0 321 -86t131 -261zM836 906q0 214 -284 214q-71 0 -150 -15q11 -189 11 -428q25 -2 58 -2q365 0 365 231z" />
    <glyph glyph-name="uni0421" unicode="&#x421;" horiz-adv-x="1109" 
d="M1076 237l-17 -230q-142 -34 -280 -34q-343 0 -522.5 189.5t-179.5 460.5q0 281 190.5 489t522.5 208q122 0 231 -28l-35 -231q-118 38 -226 38q-203 0 -302 -128.5t-99 -312.5q0 -188 117.5 -326t329.5 -138q124 0 270 43z" />
    <glyph glyph-name="uni0422" unicode="&#x422;" horiz-adv-x="1077" 
d="M1055 1302l-7 -215q-200 15 -377 15q-2 -189 -2 -421q0 -360 11 -681h-280q13 318 13 681q0 228 -4 421q-141 0 -387 -16l8 216h1025z" />
    <glyph glyph-name="uni0423" unicode="&#x423;" horiz-adv-x="1091" 
d="M1114 1302q0 -56 -128.5 -395.5t-250.5 -557.5t-251 -303.5t-364 -85.5l-19 209q180 0 265.5 38.5t134.5 160.5q0 67 -239 489.5t-239 444.5h316q0 -28 145.5 -338.5t145.5 -353.5h11q203 567 203 692h270z" />
    <glyph glyph-name="uni0424" unicode="&#x424;" horiz-adv-x="1460" 
d="M1394 720q0 -205 -134.5 -343t-410.5 -168q3 -118 7 -209h-251q6 134 6 209q-282 23 -413.5 149t-131.5 322q0 205 134 341t411 166l-6 166h251q-2 -29 -7 -166q282 -23 413.5 -147t131.5 -320zM618 680q0 141 -3 346q-308 -37 -308 -331q0 -279 308 -325q3 178 3 310z
M1153 701q0 279 -308 325q-3 -177 -3 -309q0 -141 3 -347q308 37 308 331z" />
    <glyph glyph-name="uni0425" unicode="&#x425;" horiz-adv-x="1203" 
d="M1192 0h-335q0 35 -114 257q-111 217 -159 283h-16q-43 -59 -144 -277q-104 -223 -104 -263h-309q0 30 194.5 337t249.5 361v15q-54 62 -213 304q-164 253 -164 285h322q0 -32 93 -215t131 -229h16q37 47 125.5 229t88.5 215h296q0 -28 -171.5 -277.5t-219.5 -296.5v-15
q66 -72 249.5 -374t183.5 -339z" />
    <glyph glyph-name="uni0426" unicode="&#x426;" horiz-adv-x="1322" 
d="M1300 204q0 -49 -23.5 -281t-23.5 -338h-206q0 127 -3 415h-900q12 302 12 644q0 348 -12 658h280q-11 -264 -11 -640v-458h432v449q0 379 -10 649h280q-12 -318 -12 -658q0 -235 7 -440h190z" />
    <glyph glyph-name="uni0427" unicode="&#x427;" horiz-adv-x="1223" 
d="M1112 0h-283q14 234 14 552q-107 -28 -295 -28q-244 0 -348 107.5t-104 403.5q0 116 -8 267h281q-13 -107 -13 -199q0 -237 59.5 -311t219.5 -74q126 0 208 27q0 338 -14 557h283q-14 -252 -14 -621q0 -377 14 -681z" />
    <glyph glyph-name="uni0428" unicode="&#x428;" horiz-adv-x="1825" 
d="M1681 0h-1537q12 302 12 644q0 348 -12 658h278q-12 -264 -12 -640v-458h375v449q0 387 -11 649h278q-11 -264 -11 -640v-458h372v449q0 379 -10 649h278q-12 -313 -12 -658q0 -337 12 -644z" />
    <glyph glyph-name="uni0429" unicode="&#x429;" horiz-adv-x="1894" 
d="M1872 204q0 -54 -23.5 -284t-23.5 -335h-206q0 127 -3 415h-1472q12 302 12 644q0 348 -12 658h278q-12 -264 -12 -640v-458h375v449q0 387 -11 649h278q-11 -264 -11 -640v-458h372v449q0 379 -10 649h278q-12 -313 -12 -658q0 -157 7 -440h196z" />
    <glyph glyph-name="uni042A" unicode="&#x42a;" horiz-adv-x="1408" 
d="M1353 428q0 -216 -168.5 -325t-445.5 -109q-119 0 -341 6q14 306 14 681q0 252 15 419q-158 0 -405 -12l7 214h655q-7 -65 -16 -480q72 5 127 5q558 0 558 -399zM1084 418q0 213 -313 213q-47 0 -103 -5q0 -209 6 -436q54 -8 89 -8q321 0 321 236z" />
    <glyph glyph-name="uni042B" unicode="&#x42b;" horiz-adv-x="1625" 
d="M1090 423q0 -212 -168 -320.5t-446 -108.5q-113 0 -332 6q13 306 13 681q0 395 -13 621h283q-6 -65 -13 -480q64 5 117 5q241 0 400 -94.5t159 -309.5zM1481 0h-283q13 310 13 681q0 365 -13 621h283q-14 -252 -14 -621q0 -377 14 -681zM821 413q0 117 -94 167.5
t-220 50.5q-50 0 -93 -5q0 -209 6 -436q42 -8 79 -8q322 0 322 231z" />
    <glyph glyph-name="uni042C" unicode="&#x42c;" horiz-adv-x="1187" 
d="M1132 423q0 -217 -172.5 -323t-452.5 -106q-106 0 -363 6q13 306 13 681q0 395 -13 621h283q-6 -65 -13 -480q91 5 149 5q569 0 569 -404zM863 413q0 218 -324 218q-59 0 -125 -5q0 -209 8 -436q60 -8 109 -8q332 0 332 231z" />
    <glyph glyph-name="uni042D" unicode="&#x42d;" horiz-adv-x="1148" 
d="M1071 670q0 -312 -170 -504.5t-502 -192.5q-155 0 -344 28l27 227q173 -43 338 -43q189 0 284 107t102 287q-235 0 -534 -6v208q304 -9 534 -9q-43 336 -407 336q-149 0 -323 -48l23 226q163 34 327 34q645 0 645 -650z" />
    <glyph glyph-name="uni042E" unicode="&#x42e;" horiz-adv-x="1882" 
d="M1805 675q0 -311 -171.5 -511t-455.5 -200q-280 0 -428.5 179t-159.5 446h-176q2 -329 13 -589h-283q13 310 13 681q0 365 -13 621h283q-6 -95 -13 -525h190q41 255 202 405t405 150q270 0 432 -183.5t162 -473.5zM1535 646q0 211 -97.5 341t-252.5 130q-146 0 -239 -131
t-93 -334q0 -214 96.5 -342.5t254.5 -128.5q148 0 239.5 132t91.5 333z" />
    <glyph glyph-name="uni042F" unicode="&#x42f;" horiz-adv-x="1220" 
d="M1076 0h-278q9 233 9 522q-52 3 -123 3q-124 0 -192 -85.5t-152 -379.5q-10 -36 -26 -60h-292q15 32 53 131q92 269 154.5 355t167.5 114v16q-295 61 -295 326q0 366 508 366q76 0 171.5 -3t120.5 -3h174q-14 -258 -14 -622q0 -378 14 -680zM807 715q0 210 -9 390
q-117 14 -205 14q-236 0 -236 -175q0 -232 337 -232q63 0 113 3z" />
    <glyph glyph-name="uni0430" unicode="&#x430;" horiz-adv-x="1006" 
d="M925 1l-236 -8q-16 42 -16 76h-13q-110 -94 -297 -94q-125 0 -207.5 69.5t-82.5 184.5q0 152 128.5 249t450.5 103q2 18 2 34q0 108 -52 142.5t-191 34.5q-151 0 -295 -40l22 184q136 47 384 47q181 0 279.5 -76t98.5 -266q0 -42 -3.5 -153t-3.5 -148q0 -207 32 -339z
M658 209q-6 135 -6 233q-341 0 -341 -173q0 -119 150 -119q118 0 197 59z" />
    <glyph glyph-name="uni0431" unicode="&#x431;" horiz-adv-x="1144" 
d="M1086 478q0 -250 -157.5 -383.5t-378.5 -133.5q-266 0 -371 161.5t-105 522.5q0 189 39 322t120.5 220t206.5 133.5t297 63.5q54 5 117.5 15.5t147.5 21.5l-12 -224q-26 -3 -98 -12t-181 -23q-93 -12 -166.5 -31.5t-125 -58.5t-80 -104t-32.5 -169h10q114 132 308 132
q201 0 331 -110t130 -343zM827 447q0 130 -64.5 214.5t-185.5 84.5q-171 0 -265 -118q1 -268 63 -375.5t191 -107.5q119 0 190 86t71 216z" />
    <glyph glyph-name="uni0432" unicode="&#x432;" horiz-adv-x="1043" 
d="M970 282q0 -154 -128 -221t-317 -67q-88 0 -234 3t-181 3q13 175 13 476q0 271 -34 474h177q140 11 305 11q355 0 355 -217q0 -153 -160 -218v-15q204 -39 204 -229zM732 288q0 73 -58.5 101t-184.5 28q-59 0 -137 -6q0 -145 3 -245q91 -9 182 -9q195 0 195 131zM696 688
q0 115 -178 115q-84 0 -173 -7q7 -121 7 -235q93 -4 159 -4q185 0 185 131z" />
    <glyph glyph-name="uni0433" unicode="&#x433;" horiz-adv-x="838" 
d="M818 950l-6 -213q-71 8 -447 17q6 -172 6 -290q0 -257 13 -464h-266q14 207 14 475q0 266 -14 475h700z" />
    <glyph glyph-name="uni0434" unicode="&#x434;" horiz-adv-x="1133" 
d="M1116 180q0 -40 -26 -264t-26 -331h-178q0 127 -4 423q-129 6 -334 6q-159 0 -296 -6q-51 -296 -51 -423h-178q0 93 -2.5 287.5t-2.5 307.5h119q85 322 315 770h313l182 20q-13 -194 -13 -495q0 -140 16 -295h166zM710 180q-9 151 -9 295q0 156 -8 297h-115
q-180 -372 -228 -592h360z" />
    <glyph glyph-name="uni0435" unicode="&#x435;" horiz-adv-x="1049" 
d="M980 577q0 -51 -6 -133l-644 -11q14 -113 97 -188t218 -75q150 0 319 45l-20 -194q-138 -50 -342 -50q-258 0 -395.5 145t-137.5 349q0 213 130.5 369.5t362.5 156.5q212 0 315 -115t103 -299zM746 586q0 230 -196 230q-187 0 -222 -238z" />
    <glyph glyph-name="uni0436" unicode="&#x436;" horiz-adv-x="1466" 
d="M1425 0h-268q-8 14 -24 54q-56 193 -113 269.5t-142 76.5q-17 0 -32 -2q0 -192 15 -398h-256q15 206 15 398q-23 2 -40 2q-84 0 -141.5 -76.5t-113.5 -269.5q-7 -25 -25 -54h-259q12 26 44 110q59 172 122.5 261t158.5 117v10q-142 54 -256 367q-13 36 -34 85h255
q9 -13 23 -50q82 -339 239 -339q16 0 27 2q0 240 -14 387h254q-14 -147 -14 -387q14 -2 30 -2q160 0 242 339q6 23 22 50h251q-10 -23 -35 -85q-114 -313 -256 -367v-10q95 -28 158.5 -117t122.5 -261q18 -53 44 -110z" />
    <glyph glyph-name="uni0437" unicode="&#x437;" horiz-adv-x="905" 
d="M843 286q0 -157 -128 -235t-345 -78q-178 0 -312 45l23 182q128 -52 289 -52q228 0 228 129q0 128 -254 128q-107 0 -186 -7l19 173q77 -6 168 -6q232 0 232 127q0 109 -195 109q-148 0 -288 -45l23 182q125 45 322 45q376 0 376 -220q0 -163 -165 -228v-16
q76 -15 127 -64q66 -64 66 -169z" />
    <glyph glyph-name="uni0438" unicode="&#x438;" horiz-adv-x="1107" 
d="M1007 0h-264q13 177 13 397q0 89 11 221h-15q-26 -75 -238 -322q-196 -228 -196 -296h-207q13 218 13 475q0 289 -34 466l284 29q-12 -192 -12 -382q0 -100 -11 -257h15q19 63 227 312q196 235 196 298l217 29q-12 -192 -12 -495q0 -240 13 -475z" />
    <glyph glyph-name="uni0439" unicode="&#x439;" horiz-adv-x="1107" 
d="M1007 0h-264q13 177 13 397q0 89 11 221h-15q-26 -75 -238 -322q-196 -228 -196 -296h-207q13 218 13 475q0 289 -34 466l284 29q-12 -192 -12 -382q0 -100 -11 -257h15q19 63 227 312q196 235 196 298l217 29q-12 -192 -12 -495q0 -240 13 -475zM938 1402
q0 -313 -355 -313q-190 0 -282 98q-76 81 -76 212l222 29q0 -195 137 -195q91 0 116.5 52t25.5 143z" />
    <glyph glyph-name="uni043A" unicode="&#x43a;" horiz-adv-x="1046" 
d="M998 0h-268q-8 14 -24 54q-58 201 -119.5 273.5t-154.5 72.5q-24 0 -66 -2q0 -192 15 -398h-268q15 200 15 457q0 289 -36 485l287 27q-13 -166 -13 -406q43 -2 66 -2q177 0 259 339q6 25 22 50h251q-10 -23 -35 -85q-114 -313 -256 -367v-10q95 -28 158.5 -117
t122.5 -261q18 -53 44 -110z" />
    <glyph glyph-name="uni043B" unicode="&#x43b;" horiz-adv-x="1045" 
d="M934 0h-265q13 187 13 455q0 157 -8 317h-113q-22 -91 -54 -183.5t-72.5 -179.5t-87.5 -163t-100 -133.5t-110.5 -92t-117.5 -37.5l-10 240q28 5 62 36t70.5 82.5t73.5 119.5t72 147t65.5 166t54.5 176h344l182 20q-13 -194 -13 -495q0 -257 14 -475z" />
    <glyph glyph-name="uni043C" unicode="&#x43c;" horiz-adv-x="1382" 
d="M1301 0h-259q0 157 -2.5 425t-2.5 333h-18q-20 -72 -132 -364t-112 -394h-227q0 114 -82 351.5t-128 406.5h-17q0 -67 -11 -363.5t-11 -394.5h-228q0 29 37 425.5t37 524.5h367q0 -115 89 -394t89 -335h10q0 57 94.5 336t94.5 393h372q0 -128 20 -517.5t20 -432.5z" />
    <glyph glyph-name="uni043D" unicode="&#x43d;" horiz-adv-x="1097" 
d="M995 0h-264q13 178 13 414h-381q0 -222 14 -414h-264q14 207 14 475q0 266 -35 466l284 29q-6 -65 -13 -376h379q-3 201 -32 347l284 29q-12 -194 -12 -495q0 -257 13 -475z" />
    <glyph glyph-name="uni043E" unicode="&#x43e;" horiz-adv-x="1144" 
d="M1075 497q0 -252 -155 -394t-365 -142q-200 0 -343 129.5t-143 364.5q0 253 156 396t366 143q199 0 341.5 -130.5t142.5 -366.5zM814 467q0 145 -68 243.5t-177 98.5q-106 0 -172.5 -92t-66.5 -230q0 -145 68 -243.5t177 -98.5q106 0 172.5 92t66.5 230z" />
    <glyph glyph-name="uni043F" unicode="&#x43f;" horiz-adv-x="1066" 
d="M964 0h-266q13 207 13 475q0 141 -2 296h-341q-2 -128 -2 -296q0 -257 13 -475h-266q14 207 14 475q0 266 -35 466l279 9h398l194 20q-12 -194 -12 -495q0 -257 13 -475z" />
    <glyph glyph-name="uni0440" unicode="&#x440;" horiz-adv-x="1146" 
d="M1076 516q0 -217 -124 -381t-339 -164q-160 0 -220 68h-12q0 -245 7 -496h-272q18 287 18 662q0 484 -52 738l256 28l15 -86h16q107 99 291 99q192 0 304 -138.5t112 -329.5zM810 490q0 126 -63 217t-174 91q-138 0 -202 -81q15 -281 15 -515q63 -49 163 -49
q133 0 197 98.5t64 238.5z" />
    <glyph glyph-name="uni0441" unicode="&#x441;" horiz-adv-x="912" 
d="M868 210l-17 -191q-91 -48 -247 -48q-258 0 -396.5 144t-138.5 346q0 210 145 366.5t397 156.5q123 0 219 -28l-34 -204q-92 38 -206 38q-121 0 -191 -85.5t-70 -210.5q0 -136 83 -230t235 -94q89 0 221 40z" />
    <glyph glyph-name="uni0442" unicode="&#x442;" horiz-adv-x="946" 
d="M896 950l-6 -203q-145 15 -288 15q-3 -141 -3 -293q0 -257 14 -469h-269q14 201 14 469q0 147 -5 293q-145 0 -302 -15l7 203h838z" />
    <glyph glyph-name="uni0443" unicode="&#x443;" horiz-adv-x="1002" 
d="M968 950q0 -65 -143 -412q-163 -399 -201 -544q-65 -250 -175 -345q-106 -92 -318 -92l-20 193q124 0 204 70.5t80 188.5q0 119 -180 520.5t-180 420.5h309q0 -35 91 -339t91 -372h14q0 58 82.5 342.5t82.5 368.5h263z" />
    <glyph glyph-name="uni0444" unicode="&#x444;" horiz-adv-x="1359" 
d="M1293 518q0 -470 -507 -542q0 -163 21 -433h-250q13 250 13 433q-249 18 -377.5 117.5t-128.5 343.5q0 266 131.5 389.5t374.5 152.5q0 182 -21 387l258 31q-21 -212 -21 -418q250 -18 378.5 -117.5t128.5 -343.5zM572 437q0 165 -2 383q-128 -13 -194.5 -80.5
t-66.5 -253.5q0 -185 65 -256t196 -94q2 169 2 301zM1049 469q0 181 -67 254.5t-196 96.5v-684q263 44 263 333z" />
    <glyph glyph-name="uni0445" unicode="&#x445;" horiz-adv-x="1055" 
d="M1023 0h-313q0 27 -82 180q-78 145 -119 203h-14q-33 -45 -108 -200t-75 -183h-278q0 24 144.5 234t201.5 268v15q-48 52 -174 225q-134 185 -134 208h311q0 -26 67 -155q65 -125 100 -172h12q31 39 92.5 169.5t61.5 157.5h268q0 -19 -133.5 -200t-175.5 -220v-15
q57 -63 200 -271q148 -215 148 -244z" />
    <glyph glyph-name="uni0446" unicode="&#x446;" horiz-adv-x="1134" 
d="M1100 180q0 -41 -25.5 -264.5t-25.5 -330.5h-181q0 127 -3 415h-752q14 207 14 475q0 266 -35 466l288 29q-12 -194 -12 -495q0 -131 -4 -295h324q-4 161 -4 295q0 266 -34 466l287 29q-12 -194 -12 -495q0 -155 8 -295h167z" />
    <glyph glyph-name="uni0447" unicode="&#x447;" horiz-adv-x="1004" 
d="M894 0h-267q13 166 13 386q-100 -50 -278 -50q-161 0 -229 85t-68 331q0 93 -16 191l263 29q-11 -94 -11 -183q0 -159 40 -212t146 -53q98 0 153 27q-3 224 -33 390l286 29q-12 -194 -12 -495q0 -257 13 -475z" />
    <glyph glyph-name="uni0448" unicode="&#x448;" horiz-adv-x="1549" 
d="M1452 0h-1343q13 207 13 475q0 266 -34 466l278 29q-12 -194 -12 -495q0 -131 -9 -295h314q6 154 6 295q0 266 -34 466l278 29q-13 -194 -13 -495q0 -131 6 -295h313q-9 160 -9 295q0 267 -34 466l278 29q-12 -192 -12 -495q0 -240 14 -475z" />
    <glyph glyph-name="uni0449" unicode="&#x449;" horiz-adv-x="1648" 
d="M1623 180q0 -44 -26 -266t-26 -329h-180q0 127 -3 415h-1279q14 207 14 475q0 266 -35 466l279 29q-12 -194 -12 -495q0 -131 -10 -295h314q6 154 6 295q0 266 -34 466l278 29q-12 -194 -12 -495q0 -131 5 -295h314q-9 160 -9 295q0 266 -34 466l278 29
q-13 -194 -13 -495q0 -161 8 -295h177z" />
    <glyph glyph-name="uni044A" unicode="&#x44a;" horiz-adv-x="1179" 
d="M1131 313q0 -157 -122.5 -238t-293.5 -81q-71 0 -210.5 3t-177.5 3q11 207 11 475q0 107 15 299q-183 -22 -327 -22l6 196q275 0 577 22q-16 -68 -33 -361q62 12 110 12q445 0 445 -308zM888 310q0 73 -57.5 112.5t-144.5 39.5q-42 0 -110 -9q0 -145 4 -291q65 -8 126 -8
q182 0 182 156z" />
    <glyph glyph-name="uni044B" unicode="&#x44b;" horiz-adv-x="1355" 
d="M902 313q0 -157 -121 -238t-291 -81q-71 0 -203 3t-170 3q12 207 12 475q0 266 -34 466l279 29q-4 -49 -10 -361q50 12 98 12q440 0 440 -308zM1251 0h-264q13 207 13 475q0 266 -34 466l284 29q-13 -194 -13 -495q0 -257 14 -475zM659 310q0 74 -55 113t-142 39
q-42 0 -98 -9q0 -145 4 -291q52 -8 113 -8q178 0 178 156z" />
    <glyph glyph-name="uni044C" unicode="&#x44c;" horiz-adv-x="981" 
d="M938 313q0 -153 -119.5 -236t-296.5 -83q-71 0 -221 3t-188 3q11 207 11 475q0 266 -34 466l282 29q-4 -49 -10 -361q73 12 126 12q450 0 450 -308zM695 310q0 74 -58 113t-149 39q-46 0 -126 -9q0 -145 4 -291q68 -8 137 -8q192 0 192 156z" />
    <glyph glyph-name="uni044D" unicode="&#x44d;" horiz-adv-x="947" 
d="M878 495q0 -237 -123.5 -380.5t-391.5 -143.5q-168 0 -308 32l30 203q135 -51 296 -51q246 0 262 252q-197 0 -433 -13l6 197q236 -13 427 -13q-47 217 -273 217q-137 0 -285 -46l19 190q126 45 306 45q468 0 468 -489z" />
    <glyph glyph-name="uni044E" unicode="&#x44e;" horiz-adv-x="1558" 
d="M1489 497q0 -250 -144 -393t-357 -143q-186 0 -309.5 115t-140.5 323h-177q2 -218 13 -399h-261q14 207 14 475q0 266 -35 466l281 29q-5 -66 -12 -381h185q39 192 169 298.5t309 106.5q201 0 333 -131t132 -366zM1234 467q0 147 -60.5 244.5t-170.5 97.5
q-109 0 -168 -91t-59 -231q0 -147 60.5 -244.5t172.5 -97.5q107 0 166 91t59 231z" />
    <glyph glyph-name="uni044F" unicode="&#x44f;" horiz-adv-x="1073" 
d="M965 0h-265q10 180 10 372q-63 6 -122 6q-107 0 -153.5 -57t-130.5 -321h-252q81 243 136.5 330.5t132.5 104.5v15q-218 51 -218 240q0 139 98 206.5t257 67.5q129 0 331 -12l176 19q-13 -224 -13 -495q0 -301 13 -476zM710 538q0 144 -6 252q-110 9 -215 9
q-142 0 -142 -123q0 -142 211 -142q56 0 152 4z" />
    <glyph glyph-name="uni0450" unicode="&#x450;" horiz-adv-x="1049" 
d="M980 577q0 -51 -6 -133l-644 -11q14 -113 97 -188t218 -75q150 0 319 45l-20 -194q-138 -50 -342 -50q-258 0 -395.5 145t-137.5 349q0 213 130.5 369.5t362.5 156.5q212 0 315 -115t103 -299zM746 586q0 230 -196 230q-187 0 -222 -238zM674 1086h-175q0 16 -138 164
t-138 160h271q0 -11 90 -159.5t90 -164.5z" />
    <glyph glyph-name="uni0451" unicode="&#x451;" horiz-adv-x="1049" 
d="M980 577q0 -51 -6 -133l-644 -11q14 -113 97 -188t218 -75q150 0 319 45l-20 -194q-138 -50 -342 -50q-258 0 -395.5 145t-137.5 349q0 213 130.5 369.5t362.5 156.5q212 0 315 -115t103 -299zM746 586q0 230 -196 230q-187 0 -222 -238zM893 1251q0 -58 -39.5 -101.5
t-110.5 -43.5q-60 0 -93.5 37.5t-33.5 90.5q0 57 40.5 100t111.5 43q60 0 92.5 -37t32.5 -89zM498 1251q0 -58 -39.5 -101.5t-110.5 -43.5q-59 0 -92.5 37.5t-33.5 90.5q0 58 40 100.5t111 42.5q60 0 92.5 -37t32.5 -89z" />
    <glyph glyph-name="uni0452" unicode="&#x452;" horiz-adv-x="1135" 
d="M1035 361q0 -344 -129.5 -550t-353.5 -272l-50 164q135 47 206 208t71 386q0 395 -208 395q-142 0 -210 -77q0 -425 11 -615h-264q11 310 11 743q0 213 -8 320l-2 33h-124l6 142h109l-12 168l281 16l-7 -184h322l-9 -142h-317q-5 -211 -5 -317h16q105 113 292 113
q189 0 281.5 -149t92.5 -382z" />
    <glyph glyph-name="uni0453" unicode="&#x453;" horiz-adv-x="838" 
d="M818 950l-6 -213q-71 8 -447 17q6 -172 6 -290q0 -257 13 -464h-266q14 207 14 475q0 266 -14 475h700zM813 1410q0 -12 -138 -160t-138 -164h-175q0 16 90 164.5t90 159.5h271z" />
    <glyph glyph-name="uni0454" unicode="&#x454;" horiz-adv-x="944" 
d="M889 208l-20 -191q-131 -46 -311 -46q-489 0 -489 490q0 240 125 381.5t391 141.5q167 0 272 -32l-30 -197q-105 41 -265 41q-210 0 -252 -221q198 3 446 12l-6 -192q-113 6 -440 14q13 -121 78 -182t210 -61q134 0 291 42z" />
    <glyph glyph-name="uni0455" unicode="&#x455;" horiz-adv-x="859" 
d="M791 273q0 -300 -444 -300q-162 0 -283 35l34 197q125 -45 249 -45q120 0 166.5 20t46.5 67q0 73 -168 139q-147 58 -214 114q-92 78 -92 191q0 133 99 214t288 81q177 0 278 -31l-34 -198q-113 44 -244 44q-160 0 -160 -82q0 -42 34 -67.5t139 -64.5q145 -53 211 -109
q94 -80 94 -205z" />
    <glyph glyph-name="uni0456" unicode="&#x456;" horiz-adv-x="510" 
d="M395 0h-269q14 207 14 475q0 266 -34 466l288 29q-13 -194 -13 -495q0 -257 14 -475zM441 1252q0 -68 -46.5 -119t-129.5 -51q-70 0 -109.5 44t-39.5 106q0 68 46.5 118t130.5 50q71 0 109.5 -43.5t38.5 -104.5z" />
    <glyph glyph-name="uni0457" unicode="&#x457;" horiz-adv-x="510" 
d="M395 0h-269q14 207 14 475q0 266 -34 466l288 29q-13 -194 -13 -495q0 -257 14 -475zM600 1251q0 -58 -39.5 -101.5t-110.5 -43.5q-60 0 -93.5 37.5t-33.5 90.5q0 57 40.5 100t111.5 43q60 0 92.5 -37t32.5 -89zM205 1251q0 -58 -39.5 -101.5t-110.5 -43.5
q-59 0 -92.5 37.5t-33.5 90.5q0 58 40 100.5t111 42.5q60 0 92.5 -37t32.5 -89z" />
    <glyph glyph-name="uni0458" unicode="&#x458;" horiz-adv-x="510" 
d="M394 971q-14 -303 -14 -602q0 -78 4 -214.5t4 -182.5q0 -369 -295 -428l-73 140q71 57 96.5 167.5t25.5 465.5q0 403 -36 626zM438 1253q0 -68 -47 -119t-130 -51q-70 0 -109.5 44t-39.5 106q0 68 47 118t131 50q71 0 109.5 -43.5t38.5 -104.5z" />
    <glyph glyph-name="uni0459" unicode="&#x459;" horiz-adv-x="1445" 
d="M1166 310q0 74 -55 113t-142 39q-42 0 -90 -9q0 -145 4 -291q44 -8 105 -8q178 0 178 156zM1404 313q0 -153 -116.5 -236t-305.5 -83q-61 0 -184 3t-161 3q8 207 8 475q0 152 5 297h-89q-22 -91 -54 -183.5t-72.5 -179.5t-87.5 -163t-100 -133.5t-110.5 -92t-117.5 -37.5
l-10 240q28 5 62 36t70.5 82.5t73.5 119.5t72 147t65.5 166t54.5 176h305l177 20q-4 -49 -10 -361q37 12 85 12q440 0 440 -308z" />
    <glyph glyph-name="uni045A" unicode="&#x45a;" horiz-adv-x="1515" 
d="M1471 313q0 -153 -118.5 -236t-293.5 -83q-71 0 -194 3t-161 3q5 178 5 414h-348q0 -222 14 -414h-262q14 207 14 475q0 266 -35 466l282 29q-6 -65 -13 -376h346q-3 201 -32 347l281 29q-4 -49 -10 -361q37 12 85 12q440 0 440 -308zM1233 310q0 74 -55 113t-142 39
q-42 0 -90 -9q0 -145 4 -291q44 -8 105 -8q178 0 178 156z" />
    <glyph glyph-name="uni045B" unicode="&#x45b;" horiz-adv-x="1115" 
d="M1015 565q0 -19 -2.5 -77.5t-2.5 -77.5q0 -145 5 -410h-266q22 211 22 425q0 162 -47.5 215t-145.5 53q-109 0 -214 -73q0 -358 10 -620h-266q11 310 11 743q0 185 -9 353h-125l6 142h110q-4 53 -13 168l287 16q-9 -99 -11 -184h320l-9 -142h-314q-5 -210 -5 -322h13
q134 122 292 122q169 0 261.5 -73t92.5 -258z" />
    <glyph glyph-name="uni045C" unicode="&#x45c;" horiz-adv-x="1046" 
d="M998 0h-268q-8 14 -24 54q-58 201 -119.5 273.5t-154.5 72.5q-24 0 -66 -2q0 -192 15 -398h-268q15 200 15 457q0 289 -36 485l287 27q-13 -166 -13 -406q43 -2 66 -2q177 0 259 339q6 25 22 50h251q-10 -23 -35 -85q-114 -313 -256 -367v-10q95 -28 158.5 -117
t122.5 -261q18 -53 44 -110zM877 1410q0 -12 -138 -160t-138 -164h-175q0 16 90 164.5t90 159.5h271z" />
    <glyph glyph-name="uni045D" unicode="&#x45d;" horiz-adv-x="1107" 
d="M1007 0h-264q13 177 13 397q0 89 11 221h-15q-26 -75 -238 -322q-196 -228 -196 -296h-207q13 218 13 475q0 289 -34 466l284 29q-12 -192 -12 -382q0 -100 -11 -257h15q19 63 227 312q196 235 196 298l217 29q-12 -192 -12 -495q0 -240 13 -475zM688 1086h-175
q0 16 -138 164t-138 160h271q0 -11 90 -159.5t90 -164.5z" />
    <glyph glyph-name="uni045E" unicode="&#x45e;" horiz-adv-x="1002" 
d="M968 950q0 -65 -143 -412q-163 -399 -201 -544q-65 -250 -175 -345q-106 -92 -318 -92l-20 193q124 0 204 70.5t80 188.5q0 119 -180 520.5t-180 420.5h309q0 -35 91 -339t91 -372h14q0 58 82.5 342.5t82.5 368.5h263zM878 1402q0 -313 -355 -313q-190 0 -282 98
q-76 81 -76 212l222 29q0 -195 137 -195q91 0 116.5 52t25.5 143z" />
    <glyph glyph-name="uni045F" unicode="&#x45f;" horiz-adv-x="1058" 
d="M956 0h-317q-16 -274 -16 -415h-185q0 127 -18 415h-307q14 207 14 475q0 266 -35 466l288 29q-12 -194 -12 -495q0 -131 -4 -295h340q-4 161 -4 295q0 266 -34 466l288 29q-12 -210 -12 -513q0 -240 14 -457z" />
    <glyph glyph-name="uni0462" unicode="&#x462;" horiz-adv-x="1366" 
d="M1311 402q0 -213 -172.5 -310.5t-457.5 -97.5q-113 0 -321 6q14 302 14 681q0 191 -5 271q-149 -3 -347 -16l8 216h336q-1 162 -5 274h283q-4 -63 -4 -274h395l-7 -215q-116 6 -391 15q-7 -95 -6 -161q54 5 104 5q576 0 576 -394zM1042 392q0 208 -329 208q-50 0 -83 -5
q0 -209 6 -405q32 -8 69 -8q337 0 337 210z" />
    <glyph glyph-name="uni0463" unicode="&#x463;" horiz-adv-x="1169" 
d="M1109 308q0 -156 -122 -235t-294 -79q-71 0 -216 3t-183 3q11 207 11 475q0 143 2 312q-139 0 -258 -4l7 198q149 -6 250 -6q-2 227 -28 431l279 16q-7 -63 -15 -447q156 0 375 4l-9 -197q-263 5 -368 5q-6 -110 -6 -188q85 12 133 12q442 0 442 -303zM869 305
q0 147 -197 147q-47 0 -138 -9q0 -145 4 -279q83 -8 149 -8q182 0 182 149z" />
    <glyph glyph-name="uni0472" unicode="&#x472;" horiz-adv-x="1427" 
d="M1350 675q0 -307 -188 -509t-465 -202q-264 0 -442 185.5t-178 471.5q0 307 188 509t465 202q264 0 442 -185t178 -472zM1086 573h-745q18 -187 124 -288t260 -101q146 0 244.5 103.5t116.5 285.5zM1083 762q-28 171 -130.5 262t-249.5 91q-139 0 -235.5 -93t-123.5 -260
h739z" />
    <glyph glyph-name="uni0473" unicode="&#x473;" horiz-adv-x="1144" 
d="M1075 497q0 -252 -155 -394t-365 -142q-200 0 -343 129.5t-143 364.5q0 253 156 396t366 143q199 0 341.5 -130.5t142.5 -366.5zM842 412h-537q15 -103 80 -185t193 -82t190.5 81.5t73.5 185.5zM835 560q-27 125 -91 187t-175 62q-205 0 -260 -249h526z" />
    <glyph glyph-name="uni0474" unicode="&#x474;" horiz-adv-x="1311" 
d="M634 279q0 63 43.5 208.5t89 259.5t101.5 219.5t121 187t138 131.5t152 54l10 -250q-37 -7 -89.5 -58.5t-102.5 -133.5t-100 -188t-94 -222.5t-87 -264.5t-43 -222h-320q0 74 -221 653t-221 649h317q0 -72 144 -518q145 -442 145 -505h17z" />
    <glyph glyph-name="uni0475" unicode="&#x475;" horiz-adv-x="1074" 
d="M1063 747q-28 -5 -63.5 -36t-74 -82.5t-78 -119.5t-76.5 -147t-81.5 -188t-44.5 -174h-300q0 65 -159 486q-159 423 -159 464h292q0 -42 98 -348q99 -301 99 -355h13q0 54 41.5 170t80 195t83.5 146.5t96 117t107 79t116 32.5z" />
    <glyph glyph-name="uni0490" unicode="&#x490;" horiz-adv-x="985" 
d="M963 1079q-317 15 -566 15q16 -158 16 -476q0 -416 9 -618h-278q12 272 12 648q0 437 -12 654h618q20 180 20 268h176q0 -73 2.5 -246t2.5 -245z" />
    <glyph glyph-name="uni0491" unicode="&#x491;" horiz-adv-x="843" 
d="M823 750q-193 18 -458 18q6 -175 6 -293q0 -257 13 -475h-266q14 207 14 475q0 266 -14 475h510q25 225 25 285h165q0 -50 2.5 -237t2.5 -248z" />
    <glyph glyph-name="Wgrave" unicode="&#x1e80;" horiz-adv-x="1877" 
d="M1866 1302q0 -93 -200 -660t-200 -642h-264q0 79 -121 445q-129 392 -145 517h-17q-16 -126 -134 -521q-110 -369 -110 -441h-270q0 94 -197 669t-197 633h317q0 -63 114 -502t114 -521h16q0 82 122 511.5t122 511.5h285q0 -75 122 -520.5t122 -502.5h16q0 72 110.5 489
t110.5 534h284zM1052 1416h-175q-10 16 -143 139t-133 135h291q0 -11 80 -134.5t80 -139.5z" />
    <glyph glyph-name="wgrave" unicode="&#x1e81;" horiz-adv-x="1613" 
d="M1581 950q0 -57 -166.5 -468t-166.5 -482h-233q0 46 -82 283q-102 296 -130 403h-16q-26 -103 -124 -398q-79 -234 -79 -288h-234q0 61 -158.5 486.5t-158.5 463.5h288q0 -41 87.5 -343.5t87.5 -359.5h15q0 69 100 358.5t100 344.5h235q0 -38 97.5 -345t97.5 -358h14
q0 56 88.5 340.5t88.5 362.5h249zM898 1086h-175q0 16 -138 164t-138 160h271q0 -11 90 -159.5t90 -164.5z" />
    <glyph glyph-name="Wacute" unicode="&#x1e82;" horiz-adv-x="1877" 
d="M1866 1302q0 -93 -200 -660t-200 -642h-264q0 79 -121 445q-129 392 -145 517h-17q-16 -126 -134 -521q-110 -369 -110 -441h-270q0 94 -197 669t-197 633h317q0 -63 114 -502t114 -521h16q0 82 122 511.5t122 511.5h285q0 -75 122 -520.5t122 -502.5h16q0 72 110.5 489
t110.5 534h284zM1290 1690q0 -12 -133 -135t-143 -139h-175q0 16 80 139.5t80 134.5h291z" />
    <glyph glyph-name="wacute" unicode="&#x1e83;" horiz-adv-x="1613" 
d="M1581 950q0 -57 -166.5 -468t-166.5 -482h-233q0 46 -82 283q-102 296 -130 403h-16q-26 -103 -124 -398q-79 -234 -79 -288h-234q0 61 -158.5 486.5t-158.5 463.5h288q0 -41 87.5 -343.5t87.5 -359.5h15q0 69 100 358.5t100 344.5h235q0 -38 97.5 -345t97.5 -358h14
q0 56 88.5 340.5t88.5 362.5h249zM1170 1410q0 -12 -138 -160t-138 -164h-175q0 16 90 164.5t90 159.5h271z" />
    <glyph glyph-name="Wdieresis" unicode="&#x1e84;" horiz-adv-x="1877" 
d="M1866 1302q0 -93 -200 -660t-200 -642h-264q0 79 -121 445q-129 392 -145 517h-17q-16 -126 -134 -521q-110 -369 -110 -441h-270q0 94 -197 669t-197 633h317q0 -63 114 -502t114 -521h16q0 82 122 511.5t122 511.5h285q0 -75 122 -520.5t122 -502.5h16q0 72 110.5 489
t110.5 534h284zM1280 1567q0 -58 -39.5 -101.5t-110.5 -43.5q-60 0 -93.5 37.5t-33.5 90.5q0 57 40.5 100t111.5 43q60 0 92.5 -37t32.5 -89zM885 1567q0 -58 -39.5 -101.5t-110.5 -43.5q-59 0 -92.5 37.5t-33.5 90.5q0 58 40 100.5t111 42.5q60 0 92.5 -37t32.5 -89z" />
    <glyph glyph-name="wdieresis" unicode="&#x1e85;" horiz-adv-x="1613" 
d="M1581 950q0 -57 -166.5 -468t-166.5 -482h-233q0 46 -82 283q-102 296 -130 403h-16q-26 -103 -124 -398q-79 -234 -79 -288h-234q0 61 -158.5 486.5t-158.5 463.5h288q0 -41 87.5 -343.5t87.5 -359.5h15q0 69 100 358.5t100 344.5h235q0 -38 97.5 -345t97.5 -358h14
q0 56 88.5 340.5t88.5 362.5h249zM1163 1251q0 -58 -39.5 -101.5t-110.5 -43.5q-60 0 -93.5 37.5t-33.5 90.5q0 57 40.5 100t111.5 43q60 0 92.5 -37t32.5 -89zM768 1251q0 -58 -39.5 -101.5t-110.5 -43.5q-59 0 -92.5 37.5t-33.5 90.5q0 58 40 100.5t111 42.5
q60 0 92.5 -37t32.5 -89z" />
    <glyph glyph-name="Ygrave" unicode="&#x1ef2;" horiz-adv-x="1130" 
d="M1119 1302q0 -41 -114 -221q-175 -275 -213 -342q-114 -203 -114 -301q0 -220 12 -438h-284q11 219 11 441q0 102 -105 309q-49 96 -196 343q-105 177 -105 209h314q0 -36 125.5 -303.5t125.5 -345.5h16q0 72 122.5 328t122.5 321h282zM682 1416h-175q-10 16 -143 139
t-133 135h291q0 -11 80 -134.5t80 -139.5z" />
    <glyph glyph-name="ygrave" unicode="&#x1ef3;" horiz-adv-x="1002" 
d="M968 950q0 -65 -143 -412q-163 -399 -201 -544q-65 -250 -175 -345q-106 -92 -318 -92l-20 193q124 0 204 70.5t80 188.5q0 119 -180 520.5t-180 420.5h309q0 -35 91 -339t91 -372h14q0 58 82.5 342.5t82.5 368.5h263zM659 1086h-175q0 16 -138 164t-138 160h271
q0 -11 90 -159.5t90 -164.5z" />
    <glyph glyph-name="endash" unicode="&#x2013;" horiz-adv-x="1024" 
d="M966 410h-909v180h909v-180z" />
    <glyph glyph-name="emdash" unicode="&#x2014;" horiz-adv-x="2048" 
d="M2048 410h-2048v180h2048v-180z" />
    <glyph glyph-name="uni2015" unicode="&#x2015;" horiz-adv-x="2048" 
d="M1995 410h-1942v200h1942v-200z" />
    <glyph glyph-name="quoteleft" unicode="&#x2018;" horiz-adv-x="516" 
d="M463 1364q-136 -151 -136 -329q76 -46 76 -147q0 -73 -50.5 -126.5t-140.5 -53.5q-74 0 -115.5 54t-41.5 123q0 262 319 555zM224 1051z" />
    <glyph glyph-name="quoteright" unicode="&#x2019;" horiz-adv-x="516" 
d="M463 1253q0 -262 -319 -555l-89 76q136 151 136 329q-76 46 -76 147q0 73 50.5 126.5t140.5 53.5q74 0 115.5 -54t41.5 -123zM284 1087z" />
    <glyph glyph-name="quotesinglbase" unicode="&#x201a;" horiz-adv-x="516" 
d="M428 156q0 -261 -320 -555l-89 76q136 151 136 327q-76 46 -76 149q0 72 51 126t141 54q74 0 115.5 -54t41.5 -123zM240 -10z" />
    <glyph glyph-name="quotedblleft" unicode="&#x201c;" 
d="M463 1364q-136 -151 -136 -329q76 -46 76 -147q0 -73 -50.5 -126.5t-140.5 -53.5q-74 0 -115.5 54t-41.5 123q0 262 319 555zM224 1051zM972 1364q-136 -151 -136 -329q76 -46 76 -147q0 -73 -50.5 -126.5t-140.5 -53.5q-74 0 -115.5 54t-41.5 123q0 262 319 555z
M733 1051z" />
    <glyph glyph-name="quotedblright" unicode="&#x201d;" 
d="M463 1253q0 -262 -319 -555l-89 76q136 151 136 329q-76 46 -76 147q0 73 50.5 126.5t140.5 53.5q74 0 115.5 -54t41.5 -123zM284 1087zM972 1253q0 -262 -319 -555l-89 76q136 151 136 329q-76 46 -76 147q0 73 50.5 126.5t140.5 53.5q74 0 115.5 -54t41.5 -123z
M793 1087z" />
    <glyph glyph-name="quotedblbase" unicode="&#x201e;" 
d="M428 156q0 -261 -320 -555l-89 76q136 151 136 327q-76 46 -76 149q0 72 51 126t141 54q74 0 115.5 -54t41.5 -123zM240 -10zM960 156q0 -261 -320 -555l-89 76q136 151 136 327q-76 46 -76 149q0 72 51 126t141 54q74 0 115.5 -54t41.5 -123zM772 -10z" />
    <glyph glyph-name="dagger" unicode="&#x2020;" horiz-adv-x="723" 
d="M715 942l-10 -191q-66 3 -212 6q0 -479 -85 -1170h-92q-66 695 -66 1170q-50 0 -242 -6l13 191q93 -5 246 -10q-9 203 -48 473l287 21q-15 -133 -33 -494q71 1 242 10z" />
    <glyph glyph-name="daggerdbl" unicode="&#x2021;" horiz-adv-x="723" 
d="M715 529l-10 -198q-131 6 -206 6q1 -226 -91 -750h-92q-73 528 -72 750q-50 0 -236 -6l13 198q201 -10 261 -10q-32 198 -32 238q-56 0 -242 -6l13 191q191 -10 246 -10q-4 203 -48 473l287 21q-16 -133 -33 -494q73 0 242 10l-10 -191q-138 6 -212 6q0 -40 -30 -238
q71 0 252 10z" />
    <glyph glyph-name="bullet" unicode="&#x2022;" horiz-adv-x="1351" 
d="M982 640q0 -154 -89.5 -240t-213.5 -86q-123 0 -213.5 85.5t-90.5 238.5q0 155 90.5 242t213.5 87t213 -86.5t90 -240.5z" />
    <glyph glyph-name="ellipsis" unicode="&#x2026;" horiz-adv-x="2048" 
d="M430 174q0 -73 -50.5 -128.5t-139.5 -55.5q-75 0 -117 48t-42 115q0 73 50.5 126.5t140.5 53.5q76 0 117 -46.5t41 -112.5zM1048 174q0 -73 -50.5 -128.5t-139.5 -55.5q-75 0 -117 48t-42 115q0 73 50.5 126.5t140.5 53.5q76 0 117 -46.5t41 -112.5zM1666 174
q0 -73 -50.5 -128.5t-139.5 -55.5q-75 0 -117 48t-42 115q0 73 50.5 126.5t140.5 53.5q76 0 117 -46.5t41 -112.5z" />
    <glyph glyph-name="perthousand" unicode="&#x2030;" horiz-adv-x="1550" 
d="M563 1068q0 -98 -64 -166q-71 -76 -192 -76t-192 75q-64 67 -64 165t64 166q71 76 192 76t192 -75q64 -67 64 -165zM987 231q0 -98 -64 -166q-71 -75 -192 -75t-193 74q-64 68 -64 165q0 98 65 166q71 76 192 76t192 -75q64 -67 64 -165zM1531 231q0 -98 -64 -166
q-71 -75 -192 -75t-192 74q-64 67 -64 165t64 166q71 76 192 76t192 -75q64 -67 64 -165zM960 1292q0 -89 -375 -633t-375 -659l-148 10q0 97 375 643t375 649zM1389 227q0 55 -28 94q-31 43 -83 43q-51 0 -82 -43q-28 -39 -28 -94q0 -54 27 -91q31 -41 83 -41q53 0 83 41
q28 37 28 91zM420 1064q0 55 -28 94q-30 43 -82 43q-51 0 -82 -43q-28 -39 -28 -94q0 -54 27 -91q31 -41 83 -41q53 0 83 41q27 37 27 91zM844 227q0 55 -28 94q-30 43 -82 43q-51 0 -82 -43q-28 -39 -28 -94q0 -54 27 -91q31 -41 83 -41q53 0 83 41q27 37 27 91zM1033 0z
" />
    <glyph glyph-name="guilsinglleft" unicode="&#x2039;" horiz-adv-x="516" 
d="M446 244l-82 -118l-294 261v201l294 259l82 -117l-201 -242z" />
    <glyph glyph-name="guilsinglright" unicode="&#x203a;" horiz-adv-x="516" 
d="M446 387l-293 -261l-83 118l202 242l-202 244l83 117l293 -259v-201z" />
    <glyph glyph-name="uni203D" unicode="&#x203d;" horiz-adv-x="723" 
d="M681 1033q0 -236 -309 -385l-21 -111h-103q-55 215 -55 313q0 190 110 190q105 0 105 -121q0 -50 -25 -156l7 -7q75 61 75 212q0 187 -411 198l23 169q311 0 457.5 -65.5t146.5 -236.5zM472 174q0 -73 -50.5 -128.5t-139.5 -55.5q-75 0 -117 48t-42 115q0 73 50.5 126.5
t140.5 53.5q76 0 117 -46.5t41 -112.5z" />
    <glyph glyph-name="fraction" unicode="&#x2044;" horiz-adv-x="300" 
d="M730 1315q0 -66 -497.5 -666t-497.5 -691l-165 20q0 71 497 665.5t497 691.5z" />
    <glyph glyph-name="fraction" unicode="&#x2215;" horiz-adv-x="300" 
d="M730 1315q0 -66 -497.5 -666t-497.5 -691l-165 20q0 71 497 665.5t497 691.5z" />
    <glyph glyph-name="uni2070" unicode="&#x2070;" horiz-adv-x="547" 
d="M526 960q0 -159 -62.5 -261.5t-200.5 -102.5q-251 0 -251 350q0 145 60.5 258t202.5 113q132 0 191.5 -97.5t59.5 -259.5zM358 926q0 136 -24 206.5t-66 70.5q-88 0 -88 -222q0 -143 25.5 -206.5t62.5 -63.5q90 0 90 215z" />
    <glyph glyph-name="uni2074" unicode="&#x2074;" horiz-adv-x="547" 
d="M544 945l-16 -132h-82q0 -47 2.5 -110t5.5 -126h-170q3 64 4.5 122t1.5 114h-273l-13 96q0 10 37 64.5t123 172t104 158.5h187q-3 -53 -6 -141t-3 -226q44 0 98 8zM294 1157h-5q-10 -41 -138 -215v-9h52q58 0 87 1q1 28 2 85q2 98 2 138z" />
    <glyph glyph-name="uni2075" unicode="&#x2075;" horiz-adv-x="547" 
d="M501 849q0 -140 -114.5 -214.5t-322.5 -87.5l-24 108q167 16 229 62.5t62 108.5q0 69 -65.5 91t-219.5 22q14 131 22 221t8 144h384l-6 -145q-65 8 -123.5 13t-116.5 6q-7 -55 -9 -113q134 -2 215 -53.5t81 -162.5z" />
    <glyph glyph-name="uni2076" unicode="&#x2076;" horiz-adv-x="547" 
d="M528 850q0 -96 -64 -170t-196 -74q-116 0 -186 76.5t-70 218.5q0 411 421 436l12 -107q-144 -15 -197.5 -62.5t-62.5 -117.5h9q52 25 111 25q103 0 163 -61t60 -164zM360 836q0 56 -32.5 91t-81.5 35q-42 0 -66 -27q0 -124 22 -168.5t68 -44.5q43 0 66.5 34t23.5 80z" />
    <glyph glyph-name="uni2077" unicode="&#x2077;" horiz-adv-x="547" 
d="M507 1304q0 -57 -19 -129t-129.5 -310t-120.5 -293l-171 19q0 65 115.5 272.5t132 247.5t22.5 68q-56 -1 -136.5 -5t-170.5 -10l20 140h457z" />
    <glyph glyph-name="uni2078" unicode="&#x2078;" horiz-adv-x="547" 
d="M525 813q0 -98 -67.5 -157t-192.5 -59q-105 0 -180 52.5t-75 156.5q0 67 31.5 113.5t99.5 74.5v12q-91 65 -91 151q0 78 60 128.5t161 50.5q102 0 160.5 -46t58.5 -121q0 -58 -33.5 -96t-61.5 -52v-12q66 -40 98 -86.5t32 -109.5zM364 800q0 48 -27.5 82t-87.5 65
q-28 -13 -53.5 -46t-25.5 -82q0 -55 29.5 -81t69.5 -26q45 0 70 26t25 62zM333 1157q0 36 -19.5 54.5t-45.5 18.5q-23 0 -42 -13.5t-19 -44.5q0 -61 78 -103q23 14 35.5 36.5t12.5 51.5z" />
    <glyph glyph-name="uni2079" unicode="&#x2079;" horiz-adv-x="547" 
d="M526 1012q0 -452 -431 -476l-26 108q114 8 188 65t88 164h-10q-32 -28 -97 -28q-111 0 -168.5 67.5t-57.5 159.5q0 94 65.5 169t200.5 75q112 0 180 -79.5t68 -224.5zM357 985q-1 113 -25 163.5t-72 50.5q-35 0 -58 -28.5t-23 -83.5q0 -58 31 -93t75 -35q45 0 72 26z" />
    <glyph glyph-name="uni207A" unicode="&#x207a;" horiz-adv-x="547" 
d="M519 922h-177v-189h-144v189h-177v133h177v187h144v-187h177v-133z" />
    <glyph glyph-name="uni207B" unicode="&#x207b;" horiz-adv-x="547" 
d="M519 921h-498v132h498v-132z" />
    <glyph glyph-name="uni207C" unicode="&#x207c;" horiz-adv-x="547" 
d="M519 1027h-498v135h498v-135zM519 815h-498v133h498v-133z" />
    <glyph glyph-name="uni207D" unicode="&#x207d;" horiz-adv-x="547" 
d="M495 434l-78 -92q-81 38 -139.5 92t-96 122t-55 149t-17.5 173q0 99 17.5 185.5t55.5 160t98 134.5t145 108l60 -100q-114 -91 -164 -214.5t-50 -273.5q0 -140 56 -249.5t168 -194.5z" />
    <glyph glyph-name="uni207E" unicode="&#x207e;" horiz-adv-x="547" 
d="M481 931q0 -99 -16.5 -186t-54 -162t-98 -135t-148.5 -106l-58 99q113 92 163 215t50 275q0 277 -224 444l79 91q84 -38 142 -92t95 -122t53.5 -148.5t16.5 -172.5z" />
    <glyph glyph-name="uni207F" unicode="&#x207f;" horiz-adv-x="628" 
d="M564 607h-167q8 80 11 161t3 166q0 60 -23.5 85t-63.5 25q-54 0 -103 -36q1 -23 1.5 -61.5t1 -90t0.5 -114.5v-135h-170q5 90 8 167t3 118q0 60 -7.5 124.5t-21.5 134.5l166 23l5 -59l10 1q53 59 148 59q91 0 145 -51t54 -148q0 -42 -0.5 -71.5t-0.5 -72.5q0 -97 1 -225z
" />
    </font>
</defs>
</svg>
