<?xml version="1.0" encoding="UTF-8" standalone="no"?>
<!DOCTYPE svg PUBLIC "-//W3C//DTD SVG 1.1//EN" "http://www.w3.org/Graphics/SVG/1.1/DTD/svg11.dtd">
<svg version="1.1" xmlns="http://www.w3.org/2000/svg" xmlns:xlink="http://www.w3.org/1999/xlink" preserveAspectRatio="xMidYMid meet" viewBox="0 0 640 640" width="640" height="640"><defs><path d="M292.08 489.07C250.67 489.07 217.11 522.58 217.11 563.91C217.11 605.24 250.67 638.75 292.08 638.75C333.48 638.75 367.04 605.24 367.04 563.91C367.04 522.58 333.48 489.07 292.08 489.07Z" id="c18OsD0kv7"></path><path d="M270.29 492.29C301.06 501.61 323.46 530.14 323.46 563.91C323.46 597.68 301.06 626.21 270.29 635.53C277.18 637.62 284.5 638.75 292.08 638.75C333.48 638.75 367.04 605.24 367.04 563.91C367.04 522.58 333.48 489.07 292.08 489.07C284.5 489.07 277.18 490.21 270.29 492.29Z" id="c8o4FEvxU"></path><path d="M248.49 92.35C243.65 68.32 259.24 44.92 283.32 40.09C307.39 35.26 330.83 50.83 335.66 74.86C340.5 98.9 324.91 122.29 300.83 127.12C276.76 131.95 253.33 116.39 248.49 92.35Z" id="d365reukVK"></path><path d="M283.32 40.09C281.07 40.54 278.91 41.15 276.83 41.9C290.88 47.04 302.01 59.14 305.17 74.86C309.56 96.66 297.14 117.93 276.83 125.31C284.26 128.02 292.51 128.79 300.83 127.12C324.91 122.29 340.5 98.9 335.66 74.86C330.83 50.83 307.39 35.26 283.32 40.09Z" id="a1GfTnwwWj"></path><path d="M106.41 551.39C73.18 551.39 46.25 524.5 46.25 491.33C46.25 472.96 54.58 455.59 68.89 444.06C70.08 443.1 79.63 435.41 80.82 434.45C108.41 412.23 124.46 378.74 124.46 343.35C124.46 337.04 124.46 286.54 124.46 280.23C124.46 187.1 200.07 111.61 293.35 111.61C386.63 111.61 462.25 187.1 462.25 280.23C462.25 286.66 462.25 338.09 462.25 344.52C462.25 379.24 477.7 412.17 504.41 434.41C505.57 435.38 514.86 443.11 516.03 444.08C529.89 455.62 537.9 472.71 537.9 490.72C537.9 490.78 537.9 491.27 537.9 491.33C537.9 524.5 510.97 551.39 477.74 551.39C403.47 551.39 143.54 551.39 106.41 551.39Z" id="d1VBgOYWB9"></path><path d="M504.41 434.41C477.7 412.17 462.25 379.24 462.25 344.51C462.25 338.08 462.25 286.65 462.25 280.22C462.25 187.1 386.63 111.6 293.35 111.6C276.83 111.6 260.86 113.98 245.77 118.4C315.87 138.92 367.08 203.6 367.08 280.22C367.08 286.65 367.08 338.08 367.08 344.51C367.08 379.24 382.52 412.17 409.23 434.41C410.4 435.38 419.69 443.11 420.85 444.08C434.71 455.62 442.73 472.71 442.73 490.72C442.73 490.78 442.73 491.27 442.73 491.33C442.73 524.5 415.8 551.39 382.57 551.39C392.09 551.39 468.23 551.39 477.74 551.39C510.97 551.39 537.9 524.5 537.9 491.33C537.9 491.27 537.9 490.78 537.9 490.72C537.9 472.71 529.89 455.62 516.03 444.08C513.7 442.14 505.57 435.38 504.41 434.41Z" id="as2EvPQeb"></path><path d="M450.77 -1.25C370.71 -1.25 305.81 63.54 305.81 143.47C305.81 223.4 370.71 288.19 450.77 288.19C530.83 288.19 595.72 223.4 595.72 143.47C595.72 63.54 530.83 -1.25 450.77 -1.25Z" id="c2QI32iiGR"></path><path d="M550.75 122.08C550.75 202.01 485.85 266.8 405.79 266.8C392.31 266.8 379.27 264.96 366.89 261.52C390.57 278.32 419.51 288.19 450.77 288.19C530.82 288.19 595.72 223.4 595.72 143.47C595.72 77 550.83 21 489.66 4.03C526.63 30.25 550.75 73.35 550.75 122.08Z" id="cGo3YypRv"></path><path d="M436.44 79.9L459.45 79.9L459.45 176.11L436.44 176.11L436.44 79.9Z" id="jxLDyXlOW"></path></defs><g><g><g><use xlink:href="#c18OsD0kv7" opacity="1" fill="#f7c92b" fill-opacity="1"></use><g><use xlink:href="#c18OsD0kv7" opacity="1" fill-opacity="0" stroke="#000000" stroke-width="1" stroke-opacity="0"></use></g></g><g><use xlink:href="#c8o4FEvxU" opacity="1" fill="#f2b51d" fill-opacity="1"></use><g><use xlink:href="#c8o4FEvxU" opacity="1" fill-opacity="0" stroke="#000000" stroke-width="1" stroke-opacity="0"></use></g></g><g><use xlink:href="#d365reukVK" opacity="1" fill="#f7c92b" fill-opacity="1"></use><g><use xlink:href="#d365reukVK" opacity="1" fill-opacity="0" stroke="#000000" stroke-width="1" stroke-opacity="0"></use></g></g><g><use xlink:href="#a1GfTnwwWj" opacity="1" fill="#f2b51d" fill-opacity="1"></use><g><use xlink:href="#a1GfTnwwWj" opacity="1" fill-opacity="0" stroke="#000000" stroke-width="1" stroke-opacity="0"></use></g></g><g><use xlink:href="#d1VBgOYWB9" opacity="1" fill="#f7e249" fill-opacity="1"></use><g><use xlink:href="#d1VBgOYWB9" opacity="1" fill-opacity="0" stroke="#000000" stroke-width="1" stroke-opacity="0"></use></g></g><g><use xlink:href="#as2EvPQeb" opacity="1" fill="#f7c92b" fill-opacity="1"></use><g><use xlink:href="#as2EvPQeb" opacity="1" fill-opacity="0" stroke="#000000" stroke-width="1" stroke-opacity="0"></use></g></g><g><use xlink:href="#c2QI32iiGR" opacity="1" fill="#fc476e" fill-opacity="1"></use><g><use xlink:href="#c2QI32iiGR" opacity="1" fill-opacity="0" stroke="#000000" stroke-width="1" stroke-opacity="0"></use></g></g><g><use xlink:href="#cGo3YypRv" opacity="1" fill="#cc2b5a" fill-opacity="1"></use><g><use xlink:href="#cGo3YypRv" opacity="1" fill-opacity="0" stroke="#000000" stroke-width="1" stroke-opacity="0"></use></g></g><g><use xlink:href="#jxLDyXlOW" opacity="1" fill="#f5f5f5" fill-opacity="1"></use><g><use xlink:href="#jxLDyXlOW" opacity="1" fill-opacity="0" stroke="#79e0e2" stroke-width="1" stroke-opacity="1"></use></g></g></g></g></svg>