<?xml version="1.0" encoding="UTF-8" standalone="no"?>
<!DOCTYPE svg PUBLIC "-//W3C//DTD SVG 1.1//EN" "http://www.w3.org/Graphics/SVG/1.1/DTD/svg11.dtd">
<svg version="1.1" xmlns="http://www.w3.org/2000/svg" xmlns:xlink="http://www.w3.org/1999/xlink" preserveAspectRatio="xMidYMid meet" viewBox="0 0 640 640" width="640" height="640"><defs><path d="M297.3 482.54C255.9 482.54 222.34 516.04 222.34 557.38C222.34 598.71 255.9 632.21 297.3 632.21C338.71 632.21 372.26 598.71 372.26 557.38C372.26 516.04 338.71 482.54 297.3 482.54Z" id="aqkdxe6RF"></path><path d="M275.52 485.76C306.29 495.08 328.69 523.61 328.69 557.38C328.69 591.14 306.29 619.68 275.52 628.99C282.41 631.08 289.73 632.21 297.3 632.21C338.71 632.21 372.26 598.71 372.26 557.38C372.26 516.04 338.71 482.54 297.3 482.54C289.73 482.54 282.41 483.67 275.52 485.76Z" id="b3OWUqWKns"></path><path d="M253.72 85.81C248.88 61.78 264.47 38.38 288.54 33.55C312.62 28.72 336.05 44.29 340.89 68.33C345.73 92.36 330.14 115.76 306.06 120.59C281.99 125.42 258.55 109.85 253.72 85.81Z" id="aIIdoTHSI"></path><path d="M288.54 33.55C286.3 34 284.14 34.62 282.05 35.37C296.11 40.51 307.24 52.6 310.4 68.33C314.79 90.12 302.37 111.4 282.06 118.77C289.49 121.49 297.74 122.26 306.06 120.59C330.14 115.76 345.73 92.36 340.89 68.33C336.05 44.29 312.62 28.72 288.54 33.55Z" id="d737cpArpk"></path><path d="M111.64 544.85C78.41 544.85 51.48 517.96 51.48 484.79C51.48 466.43 59.8 449.05 74.12 437.52C75.31 436.56 84.86 428.87 86.05 427.91C113.64 405.7 129.69 372.2 129.69 336.81C129.69 330.5 129.69 280.01 129.69 273.69C129.69 180.56 205.3 105.07 298.58 105.07C391.86 105.07 467.48 180.56 467.48 273.69C467.48 280.12 467.48 331.55 467.48 337.98C467.48 372.7 482.92 405.64 509.64 427.87C510.8 428.84 520.09 436.57 521.25 437.54C535.12 449.08 543.13 466.17 543.13 484.19C543.13 484.25 543.13 484.73 543.13 484.79C543.13 517.96 516.2 544.85 482.97 544.85C408.7 544.85 148.77 544.85 111.64 544.85Z" id="b16xERzHSK"></path><path d="M509.64 427.87C482.92 405.63 467.48 372.7 467.48 337.98C467.48 331.55 467.48 280.12 467.48 273.69C467.48 180.56 391.86 105.07 298.58 105.07C282.05 105.07 266.09 107.45 251 111.87C321.1 132.38 372.3 197.06 372.3 273.69C372.3 280.12 372.3 331.55 372.3 337.98C372.3 372.7 387.75 405.63 414.46 427.87C415.62 428.84 424.92 436.57 426.08 437.54C439.94 449.08 447.96 466.17 447.96 484.19C447.96 484.25 447.96 484.73 447.96 484.79C447.96 517.96 421.02 544.85 387.8 544.85C397.31 544.85 473.46 544.85 482.97 544.85C516.2 544.85 543.13 517.96 543.13 484.79C543.13 484.73 543.13 484.25 543.13 484.19C543.13 466.17 535.12 449.08 521.25 437.54C518.93 435.61 510.8 428.84 509.64 427.87Z" id="a6wPwjsfya"></path></defs><g><g><g><use xlink:href="#aqkdxe6RF" opacity="1" fill="#f7c92b" fill-opacity="1"></use><g><use xlink:href="#aqkdxe6RF" opacity="1" fill-opacity="0" stroke="#000000" stroke-width="1" stroke-opacity="0"></use></g></g><g><use xlink:href="#b3OWUqWKns" opacity="1" fill="#f2b51d" fill-opacity="1"></use><g><use xlink:href="#b3OWUqWKns" opacity="1" fill-opacity="0" stroke="#000000" stroke-width="1" stroke-opacity="0"></use></g></g><g><use xlink:href="#aIIdoTHSI" opacity="1" fill="#f7c92b" fill-opacity="1"></use><g><use xlink:href="#aIIdoTHSI" opacity="1" fill-opacity="0" stroke="#000000" stroke-width="1" stroke-opacity="0"></use></g></g><g><use xlink:href="#d737cpArpk" opacity="1" fill="#f2b51d" fill-opacity="1"></use><g><use xlink:href="#d737cpArpk" opacity="1" fill-opacity="0" stroke="#000000" stroke-width="1" stroke-opacity="0"></use></g></g><g><use xlink:href="#b16xERzHSK" opacity="1" fill="#f7e249" fill-opacity="1"></use><g><use xlink:href="#b16xERzHSK" opacity="1" fill-opacity="0" stroke="#000000" stroke-width="1" stroke-opacity="0"></use></g></g><g><use xlink:href="#a6wPwjsfya" opacity="1" fill="#f7c92b" fill-opacity="1"></use><g><use xlink:href="#a6wPwjsfya" opacity="1" fill-opacity="0" stroke="#000000" stroke-width="1" stroke-opacity="0"></use></g></g></g></g></svg>