<svg id="Capa_1" enable-background="new 0 0 512 512" height="512" viewBox="0 0 512 512" width="512" xmlns="http://www.w3.org/2000/svg"><g><path d="m481 361v60l-208 15h-17-16l-209-15v-60c0-8.28 6.72-15 15-15h150c24.51 0 46.31 11.82 60 30.05 13.69-18.23 35.49-30.05 60-30.05h150c8.28 0 15 6.72 15 15z" fill="#fff7cc"/><path d="m481 361v60l-208 15h-17v-59.95c13.69-18.23 35.49-30.05 60-30.05h150c8.28 0 15 6.72 15 15z" fill="#ffe6b3"/><g><g><g><path d="m512 421c0 8.28-6.72 15-15 15h-141.79c-30.52 0-54.43 6.77-71.06 20.11-7.95 6.38-17.94 9.89-28.15 9.89s-20.2-3.51-28.15-9.89c-16.63-13.34-40.54-20.11-71.06-20.11h-141.79c-8.28 0-15-6.72-15-15s6.72-15 15-15h141.79c37.52 0 67.75 8.99 89.83 26.71 1.87 1.5 5.02 3.29 9.38 3.29s7.51-1.79 9.37-3.29c22.09-17.72 52.32-26.71 89.84-26.71h141.79c8.28 0 15 6.72 15 15z" fill="#613d5c"/></g></g></g><path d="m512 421c0 8.28-6.72 15-15 15h-141.79c-30.52 0-54.43 6.77-71.06 20.11-7.95 6.38-17.94 9.89-28.15 9.89v-30c4.36 0 7.51-1.79 9.37-3.29 22.09-17.72 52.32-26.71 89.84-26.71h141.79c8.28 0 15 6.72 15 15z" fill="#4b2746"/><path d="m361 155.29v85.71c0 5.68-3.21 10.88-8.29 13.42l-66.34 33.16c-7.35 3.68-14.08 8.42-20 14.08-2.9 2.77-6.63 4.16-10.37 4.16s-7.47-1.39-10.37-4.16c-5.92-5.66-12.65-10.4-20-14.08l-66.34-33.16c-5.08-2.54-8.29-7.74-8.29-13.42v-85.71c0-8.29 6.72-15 15-15h180c8.28 0 15 6.71 15 15z" fill="#4b2746"/><path d="m361 155.29v85.71c0 5.68-3.21 10.88-8.29 13.42l-66.34 33.16c-7.35 3.68-14.08 8.42-20 14.08-2.9 2.77-6.63 4.16-10.37 4.16v-165.53h90c8.28 0 15 6.71 15 15z" fill="#351b33"/><g><path d="m406 286c-8.284 0-15-6.716-15-15v-132.857c0-8.284 6.716-15 15-15s15 6.716 15 15v132.857c0 8.284-6.716 15-15 15z" fill="#ffd400"/></g><g><g><g><g><path d="m470.12 106.58-210-60c-1.34-.38-2.73-.58-4.12-.58s-2.78.2-4.12.58l-210 60c-14.47 4.13-14.45 24.72 0 28.84l210 60c1.35.39 2.74.58 4.12.58 1.4 0 2.78-.19 4.12-.58l210-60c14.47-4.13 14.45-24.72 0-28.84z" fill="#613d5c"/></g></g></g></g><path d="m470.12 135.42-210 60c-1.34.39-2.72.58-4.12.58v-150c1.39 0 2.78.2 4.12.58l210 60c14.45 4.12 14.47 24.71 0 28.84z" fill="#4b2746"/></g></svg>