<?xml version="1.0" encoding="iso-8859-1"?>
<!-- Generator: Adobe Illustrator 19.0.0, SVG Export Plug-In . SVG Version: 6.00 Build 0)  -->
<svg version="1.1" id="Capa_1" xmlns="http://www.w3.org/2000/svg" xmlns:xlink="http://www.w3.org/1999/xlink" x="0px" y="0px"
	 viewBox="0 0 464.174 464.174" style="enable-background:new 0 0 464.174 464.174;" xml:space="preserve">
<path style="fill:#383838;" d="M226.103,209.27c1.144-0.296,2.32-0.528,3.496-0.72c1.443-0.222,2.9-0.348,4.36-0.376h22.128
	c0,6.152,5.456,11.752,14.344,16h83.312c8.888-4.248,14.344-9.848,14.344-16h22.128c1.46,0.028,2.917,0.154,4.36,0.376
	c1.176,0.192,2.352,0.424,3.496,0.72c1.277,0.336,2.532,0.747,3.76,1.232c1.236-7.552,1.585-15.223,1.04-22.856l-12.128-84.888
	H233.431l-12.128,84.888c-0.545,7.633-0.196,15.304,1.04,22.856C223.571,210.017,224.826,209.606,226.103,209.27z"/>
<path style="fill:#D1E1E8;" d="M32.087,320.174h120v-104h-120c-13.255,0-24,10.745-24,24v104
	C8.087,330.919,18.832,320.174,32.087,320.174z"/>
<polygon style="opacity:0.3;enable-background:new    ;" points="312.087,304.174 440.087,272.174 440.087,240.174 424.607,247.918 
	424.607,247.918 "/>
<polygon style="opacity:0.3;enable-background:new    ;" points="199.567,247.918 199.567,247.918 184.087,240.174 184.087,272.174 
	312.087,304.174 "/>
<g>
	<path style="fill:#4F81BD;" d="M184.087,272.174v48h8c8.837,0,16,7.163,16,16v16c0,8.837-7.163,16-16,16h-8v64l128,32v-160
		L184.087,272.174z"/>
	<path style="fill:#4F81BD;" d="M416.087,352.174v-16c0-8.837,7.163-16,16-16h8v-48l-128,32v160l128-32v-64h-8
		C423.25,368.174,416.087,361.01,416.087,352.174z"/>
</g>
<g>
	<path style="fill:#FFEBDB;" d="M208.087,352.174v-16c0-8.837-7.163-16-16-16h-16c-8.837,0-16,7.163-16,16v16
		c0,8.837,7.163,16,16,16h16C200.924,368.174,208.087,361.01,208.087,352.174z"/>
	<path style="fill:#FFEBDB;" d="M448.087,320.174h-16c-8.837,0-16,7.163-16,16v16c0,8.837,7.163,16,16,16h16c8.837,0,16-7.163,16-16
		v-16C464.087,327.337,456.924,320.174,448.087,320.174z"/>
</g>
<path style="fill:#FFA442;" d="M424.607,247.918l-3.096-14.448c-2.575-11.868-11.66-21.248-23.44-24.2
	c-1.144-0.296-2.32-0.528-3.496-0.72c-1.443-0.222-2.9-0.348-4.36-0.376h-22.128c0,13.256-25.072,24-56,24s-56-10.744-56-24h-22.128
	c-1.46,0.028-2.917,0.154-4.36,0.376c-1.176,0.192-2.352,0.424-3.496,0.72c-11.78,2.952-20.865,12.332-23.44,24.2l-3.096,14.448
	l112.52,56.256L424.607,247.918z"/>
<g>
	<path style="fill:#4F81BD;" d="M40.087,416.174c-13.255,0-24,10.745-24,24s10.745,24,24,24h120v-48H40.087z"/>
	<path style="fill:#4F81BD;" d="M24.087,368.174c-13.255,0-24,10.745-24,24s10.745,24,24,24h120v-48H24.087z"/>
</g>
<path style="opacity:0.3;enable-background:new    ;" d="M32.087,320.174c-13.255,0-24,10.745-24,24s10.745,24,24,24h120v-48H32.087
	z"/>
<g>
	<rect x="64.087" y="176.174" style="fill:#4F81BD;" width="16" height="16"/>
	<rect x="64.087" y="144.174" style="fill:#4F81BD;" width="16" height="16"/>
	<rect x="64.087" y="112.174" style="fill:#4F81BD;" width="16" height="16"/>
	<rect x="64.087" y="80.174" style="fill:#4F81BD;" width="16" height="16"/>
	<rect x="64.087" y="48.174" style="fill:#4F81BD;" width="16" height="16"/>
	<rect x="96.087" y="48.174" style="fill:#4F81BD;" width="16" height="16"/>
	<rect x="128.087" y="48.174" style="fill:#4F81BD;" width="16" height="16"/>
	<rect x="160.087" y="48.174" style="fill:#4F81BD;" width="16" height="16"/>
	<rect x="192.087" y="48.174" style="fill:#4F81BD;" width="16" height="16"/>
</g>
<path style="fill:#FFEBDB;" d="M308.679,0.174c-43.049,1.834-76.911,37.433-76.592,80.52v7.2c0,34.968,17.064,51.744,45.704,71.792
	c5.572,3.848,11.76,6.718,18.296,8.488l0,0c-4.928,19.695-20.305,35.072-40,40l0,0c0,13.256,25.072,24,56,24s56-10.744,56-24l0,0
	c-19.695-4.928-35.072-20.305-40-40l0,0c6.539-1.78,12.726-4.661,18.296-8.52c28.64-20.048,45.704-36.8,45.704-71.792v-8.208
	c0.799-43.186-33.563-78.842-76.749-79.641C313.117-0.028,310.895,0.026,308.679,0.174z"/>
<path style="fill:#383838;" d="M308.679,0.174c-43.049,1.834-76.911,37.433-76.592,80.52v7.2c-1.114,8.055-1.114,16.225,0,24.28
	l38.28-50.112l121.72,50.112l0,0c1.016-8.072,1.016-16.24,0-24.312v-8.208c0.799-43.186-33.563-78.842-76.749-79.641
	C313.117-0.028,310.895,0.026,308.679,0.174z"/>
<g>
</g>
<g>
</g>
<g>
</g>
<g>
</g>
<g>
</g>
<g>
</g>
<g>
</g>
<g>
</g>
<g>
</g>
<g>
</g>
<g>
</g>
<g>
</g>
<g>
</g>
<g>
</g>
<g>
</g>
</svg>
